SplineFontDB: 3.2
FontName: ZainRo-Black
FullName: ZainRo Black
FamilyName: ZainRo Black
Weight: Black
Copyright: Copyright 2024 The Zain Project Authors (https://github.com/googlefonts/zain) and 2025 Lazar (https://bylazar.com)
Version: 1.51; ttfautohint (v1.8.4)
ItalicAngle: 0
UnderlinePosition: -100
UnderlineWidth: 50
Ascent: 800
Descent: 200
InvalidEm: 0
sfntRevision: 0x0001828f
LayerCount: 2
Layer: 0 1 "Back" 1
Layer: 1 1 "Fore" 0
XUID: [1021 736 -289526145 16086]
StyleMap: 0x0040
FSType: 0
OS2Version: 4
OS2_WeightWidthSlopeOnly: 0
OS2_UseTypoMetrics: 1
CreationTime: 1722724818
ModificationTime: 1760721806
PfmFamily: 81
TTFWeight: 900
TTFWidth: 5
LineGap: 0
VLineGap: 0
Panose: 0 0 9 0 0 0 0 0 0 0
OS2TypoAscent: 900
OS2TypoAOffset: 0
OS2TypoDescent: -500
OS2TypoDOffset: 0
OS2TypoLinegap: 0
OS2WinAscent: 881
OS2WinAOffset: 0
OS2WinDescent: 501
OS2WinDOffset: 0
HheadAscent: 900
HheadAOffset: 0
HheadDescent: -500
HheadDOffset: 0
OS2SubXSize: 650
OS2SubYSize: 600
OS2SubXOff: 0
OS2SubYOff: 75
OS2SupXSize: 650
OS2SupYSize: 600
OS2SupXOff: 0
OS2SupYOff: 350
OS2StrikeYSize: 45
OS2StrikeYPos: 267
OS2CapHeight: 556
OS2XHeight: 386
OS2Vendor: '1BOU'
OS2CodePages: 00000041.00000000
OS2UnicodeRanges: 800020af.d000204a.00000008.00000000
Lookup: 1 0 0 "'aalt' Access All Alternates lookup 0" { "'aalt' Access All Alternates lookup 0 subtable"  } ['aalt' ('DFLT' <'dflt' > 'arab' <'URD ' 'dflt' > 'latn' <'dflt' > ) ]
Lookup: 3 0 0 "'aalt' Access All Alternates lookup 1" { "'aalt' Access All Alternates lookup 1 subtable"  } ['aalt' ('DFLT' <'dflt' > 'arab' <'URD ' 'dflt' > 'latn' <'dflt' > ) ]
Lookup: 1 0 0 "Single Substitution lookup 2" { "Single Substitution lookup 2 subtable"  } []
Lookup: 1 0 0 "'sups' Superscript lookup 3" { "'sups' Superscript lookup 3 subtable" ("superior") } ['sups' ('DFLT' <'dflt' > 'arab' <'URD ' 'dflt' > 'latn' <'dflt' > ) ]

StartChar: .notdef
Encoding: 65536 -1 0
Width: 531
GlyphClass: 1
Flags: W
LayerCount: 2
Fore
SplineSet
21 559 m 1,0,-1
 509 559 l 1,1,-1
 509 -268 l 1,2,-1
 21 -268 l 1,3,-1
 21 559 l 1,0,-1
96 484 m 1,4,-1
 96 -193 l 1,5,-1
 434 -193 l 1,6,-1
 434 484 l 1,7,-1
 96 484 l 1,4,-1
211 64 m 2,8,-1
 211 88 l 2,9,10
 211 117 211 117 227 136.5 c 128,-1,11
 243 156 243 156 264 172 c 128,-1,12
 285 188 285 188 301 205.5 c 128,-1,13
 317 223 317 223 317 247 c 0,14,15
 317 269 317 269 301.5 281.5 c 128,-1,16
 286 294 286 294 258 294 c 0,17,18
 227 294 227 294 204.5 286.5 c 128,-1,19
 182 279 182 279 153 265 c 0,20,21
 147 262 147 262 143 262 c 0,22,23
 138 262 138 262 135 269 c 2,24,-1
 129 290 l 2,25,26
 121 315 121 315 128 331.5 c 128,-1,27
 135 348 135 348 163 360 c 0,28,29
 186 368 186 368 208 373.5 c 128,-1,30
 230 379 230 379 261 379 c 0,31,32
 326 379 326 379 370 349.5 c 128,-1,33
 414 320 414 320 414 263 c 0,34,35
 414 209 414 209 384 174 c 128,-1,36
 354 139 354 139 302 101 c 0,37,38
 293 94 293 94 290.5 88.5 c 128,-1,39
 288 83 288 83 288 75 c 2,40,-1
 288 64 l 2,41,42
 288 54 288 54 277 54 c 2,43,-1
 221 54 l 2,44,45
 211 54 211 54 211 64 c 2,8,-1
195 -29 m 0,46,47
 195 -5 195 -5 211.5 11 c 128,-1,48
 228 27 228 27 251 27 c 256,49,50
 274 27 274 27 289.5 11 c 128,-1,51
 305 -5 305 -5 305 -29 c 0,52,53
 305 -54 305 -54 289.5 -69.5 c 128,-1,54
 274 -85 274 -85 251 -85 c 256,55,56
 228 -85 228 -85 211.5 -69.5 c 128,-1,57
 195 -54 195 -54 195 -29 c 0,46,47
EndSplineSet
Validated: 33
EndChar

StartChar: exclam
Encoding: 33 33 3
Width: 206
GlyphClass: 1
Flags: W
LayerCount: 2
Fore
SplineSet
45 180 m 2,0,-1
 32 542 l 2,1,2
 32 556 32 556 45 556 c 2,3,-1
 73 556 l 2,4,5
 120 556 120 556 144.5 533 c 128,-1,6
 169 510 169 510 167 456 c 2,7,-1
 158 180 l 2,8,9
 158 167 158 167 145 167 c 2,10,-1
 58 167 l 2,11,12
 45 167 45 167 45 180 c 2,0,-1
24 68 m 256,13,14
 24 102 24 102 47 124 c 128,-1,15
 70 146 70 146 101 146 c 0,16,17
 135 146 135 146 156.5 124 c 128,-1,18
 178 102 178 102 178 68 c 256,19,20
 178 34 178 34 156.5 12.5 c 128,-1,21
 135 -9 135 -9 101 -9 c 0,22,23
 70 -9 70 -9 47 12.5 c 128,-1,24
 24 34 24 34 24 68 c 256,13,14
EndSplineSet
Validated: 33
Substitution2: "'locl' Localized Forms in Arabic lookup 15 subtable" exclam.ar
EndChar

StartChar: quotedbl
Encoding: 34 34 4
Width: 334
GlyphClass: 1
Flags: W
LayerCount: 2
Fore
SplineSet
43 356 m 2,0,-1
 24 542 l 2,1,2
 22 556 22 556 37 556 c 2,3,-1
 77 556 l 2,4,5
 124 556 124 556 141 537.5 c 128,-1,6
 158 519 158 519 152 462 c 2,7,-1
 141 356 l 2,8,9
 140 343 140 343 128 343 c 2,10,-1
 56 343 l 2,11,12
 44 343 44 343 43 356 c 2,0,-1
199 356 m 2,13,-1
 180 542 l 2,14,15
 178 556 178 556 193 556 c 2,16,-1
 233 556 l 2,17,18
 280 556 280 556 297 537.5 c 128,-1,19
 314 519 314 519 308 462 c 2,20,-1
 297 356 l 2,21,22
 296 343 296 343 284 343 c 2,23,-1
 212 343 l 2,24,25
 200 343 200 343 199 356 c 2,13,-1
EndSplineSet
Validated: 33
EndChar

StartChar: numbersign
Encoding: 35 35 5
Width: 592
GlyphClass: 1
Flags: W
LayerCount: 2
Fore
SplineSet
91 134 m 1,0,-1
 31 134 l 2,1,2
 18 134 18 134 21 147 c 2,3,-1
 38 213 l 2,4,5
 43 226 43 226 54 226 c 2,6,-1
 112 226 l 1,7,-1
 138 329 l 1,8,-1
 79 329 l 2,9,10
 66 329 66 329 69 343 c 2,11,-1
 86 408 l 2,12,13
 89 422 89 422 101 422 c 2,14,-1
 160 422 l 1,15,-1
 190 542 l 2,16,17
 193 556 193 556 207 556 c 2,18,-1
 254 556 l 2,19,20
 288 556 288 556 298.5 537.5 c 128,-1,21
 309 519 309 519 301 487 c 2,22,-1
 284 422 l 1,23,-1
 380 422 l 1,24,-1
 410 542 l 2,25,26
 413 556 413 556 427 556 c 2,27,-1
 473 556 l 2,28,29
 508 556 508 556 518.5 537.5 c 128,-1,30
 529 519 529 519 521 487 c 2,31,-1
 503 422 l 1,32,-1
 563 422 l 2,33,34
 578 422 578 422 573 408 c 2,35,-1
 557 343 l 2,36,37
 554 329 554 329 541 329 c 2,38,-1
 482 329 l 1,39,-1
 457 226 l 1,40,-1
 516 226 l 2,41,42
 529 226 529 226 526 213 c 2,43,-1
 508 147 l 2,44,45
 505 134 505 134 493 134 c 2,46,-1
 435 134 l 1,47,-1
 407 13 l 2,48,49
 404 0 404 0 393 0 c 2,50,-1
 291 0 l 2,51,52
 278 0 278 0 282 13 c 2,53,-1
 310 134 l 1,54,-1
 215 134 l 1,55,-1
 186 13 l 2,56,57
 183 0 183 0 172 0 c 2,58,-1
 71 0 l 2,59,60
 58 0 58 0 62 13 c 2,61,-1
 91 134 l 1,0,-1
237 226 m 1,62,-1
 332 226 l 1,63,-1
 358 329 l 1,64,-1
 263 329 l 1,65,-1
 237 226 l 1,62,-1
EndSplineSet
Validated: 33
EndChar

StartChar: dollar
Encoding: 36 36 6
Width: 477
GlyphClass: 1
Flags: W
LayerCount: 2
Fore
SplineSet
208 109 m 1,0,-1
 208 228 l 1,1,2
 168 242 168 242 129 261 c 128,-1,3
 90 280 90 280 64.5 313.5 c 128,-1,4
 39 347 39 347 39 402 c 0,5,6
 39 451 39 451 61.5 485 c 128,-1,7
 84 519 84 519 122.5 539.5 c 128,-1,8
 161 560 161 560 208 566 c 1,9,-1
 208 611 l 2,10,11
 208 623 208 623 220 623 c 2,12,-1
 274 623 l 2,13,14
 286 623 286 623 286 611 c 2,15,-1
 286 566 l 1,16,17
 341 562 341 562 385 547 c 0,18,19
 421 535 421 535 429.5 514 c 128,-1,20
 438 493 438 493 429 461 c 2,21,-1
 419 427 l 2,22,23
 417 420 417 420 415 416.5 c 128,-1,24
 413 413 413 413 408 413 c 0,25,26
 404 413 404 413 399.5 415 c 128,-1,27
 395 417 395 417 390 418 c 0,28,29
 366 429 366 429 340.5 437 c 128,-1,30
 315 445 315 445 286 448 c 1,31,-1
 286 339 l 1,32,33
 326 327 326 327 364 308 c 128,-1,34
 402 289 402 289 427 257 c 128,-1,35
 452 225 452 225 452 171 c 0,36,37
 452 104 452 104 407.5 56.5 c 128,-1,38
 363 9 363 9 286 -6 c 1,39,-1
 286 -52 l 2,40,41
 286 -65 286 -65 274 -65 c 2,42,-1
 220 -65 l 2,43,44
 208 -65 208 -65 208 -52 c 2,45,-1
 208 -10 l 1,46,47
 145 -6 145 -6 103.5 19 c 128,-1,48
 62 44 62 44 42 80 c 128,-1,49
 22 116 22 116 22 152 c 0,50,51
 22 178 22 178 40 178 c 0,52,53
 46 178 46 178 50 174 c 0,54,55
 80 147 80 147 117 129.5 c 128,-1,56
 154 112 154 112 208 109 c 1,0,-1
208 363 m 1,57,-1
 208 449 l 1,58,59
 166 440 166 440 166 408 c 0,60,61
 166 383 166 383 208 363 c 1,57,-1
286 203 m 1,62,-1
 286 117 l 1,63,64
 306 124 306 124 315 135.5 c 128,-1,65
 324 147 324 147 324 161 c 0,66,67
 324 187 324 187 286 203 c 1,62,-1
EndSplineSet
Validated: 33
EndChar

StartChar: percent
Encoding: 37 37 7
Width: 861
GlyphClass: 1
Flags: W
LayerCount: 2
Fore
SplineSet
181 214 m 0,0,1
 110 214 110 214 66.5 262.5 c 128,-1,2
 23 311 23 311 23 391 c 0,3,4
 23 468 23 468 66.5 517 c 128,-1,5
 110 566 110 566 181 566 c 0,6,7
 253 566 253 566 297.5 517 c 128,-1,8
 342 468 342 468 342 391 c 0,9,10
 342 311 342 311 297.5 262.5 c 128,-1,11
 253 214 253 214 181 214 c 0,0,1
221 0 m 2,12,13
 215 0 215 0 213.5 4.5 c 128,-1,14
 212 9 212 9 214 13 c 2,15,-1
 505 542 l 2,16,17
 512 556 512 556 525 556 c 2,18,-1
 571 556 l 2,19,20
 606 556 606 556 616 534 c 128,-1,21
 626 512 626 512 610 483 c 2,22,-1
 350 13 l 2,23,24
 343 0 343 0 331 0 c 2,25,-1
 221 0 l 2,12,13
181 311 m 0,26,27
 201 311 201 311 219 326.5 c 128,-1,28
 237 342 237 342 237 388 c 0,29,30
 237 435 237 435 219 451.5 c 128,-1,31
 201 468 201 468 181 468 c 0,32,33
 162 468 162 468 145 451.5 c 128,-1,34
 128 435 128 435 128 388 c 0,35,36
 128 342 128 342 145 326.5 c 128,-1,37
 162 311 162 311 181 311 c 0,26,27
677 -8 m 0,38,39
 606 -8 606 -8 563 41 c 128,-1,40
 520 90 520 90 520 169 c 256,41,42
 520 248 520 248 563 296 c 128,-1,43
 606 344 606 344 677 344 c 0,44,45
 750 344 750 344 794.5 296 c 128,-1,46
 839 248 839 248 839 169 c 256,47,48
 839 90 839 90 794.5 41 c 128,-1,49
 750 -8 750 -8 677 -8 c 0,38,39
677 90 m 0,50,51
 698 90 698 90 716 105.5 c 128,-1,52
 734 121 734 121 734 167 c 256,53,54
 734 213 734 213 716 230.5 c 128,-1,55
 698 248 698 248 677 248 c 0,56,57
 658 248 658 248 642 230.5 c 128,-1,58
 626 213 626 213 626 167 c 256,59,60
 626 121 626 121 642 105.5 c 128,-1,61
 658 90 658 90 677 90 c 0,50,51
EndSplineSet
Validated: 33
EndChar

StartChar: ampersand
Encoding: 38 38 8
Width: 561
GlyphClass: 1
Flags: W
LayerCount: 2
Fore
SplineSet
324 277 m 1,0,-1
 365 231 l 1,1,-1
 403 279 l 2,2,3
 413 292 413 292 428 292 c 2,4,-1
 533 292 l 2,5,6
 538 292 538 292 540 287.5 c 128,-1,7
 542 283 542 283 539 279 c 2,8,-1
 443 152 l 1,9,-1
 546 13 l 2,10,11
 549 9 549 9 547.5 4.5 c 128,-1,12
 546 0 546 0 540 0 c 2,13,-1
 456 0 l 2,14,15
 418 0 418 0 396 11.5 c 128,-1,16
 374 23 374 23 358 42 c 2,17,-1
 354 47 l 1,18,19
 326 16 326 16 290 3 c 128,-1,20
 254 -10 254 -10 213 -10 c 0,21,22
 125 -10 125 -10 76 37.5 c 128,-1,23
 27 85 27 85 27 155 c 0,24,25
 27 214 27 214 59 248 c 128,-1,26
 91 282 91 282 136 304 c 1,27,28
 113 330 113 330 99.5 357 c 128,-1,29
 86 384 86 384 86 422 c 0,30,31
 86 487 86 487 135.5 526.5 c 128,-1,32
 185 566 185 566 265 566 c 0,33,34
 351 566 351 566 397 530 c 128,-1,35
 443 494 443 494 443 427 c 0,36,37
 443 394 443 394 425 366 c 128,-1,38
 407 338 407 338 379.5 315.5 c 128,-1,39
 352 293 352 293 324 277 c 1,0,-1
260 357 m 1,40,41
 281 368 281 368 300 384 c 128,-1,42
 319 400 319 400 319 422 c 0,43,44
 319 441 319 441 305 452 c 128,-1,45
 291 463 291 463 269 463 c 0,46,47
 250 463 250 463 237 452 c 128,-1,48
 224 441 224 441 224 421 c 0,49,50
 224 404 224 404 235.5 387 c 128,-1,51
 247 370 247 370 260 357 c 1,40,41
285 129 m 1,52,-1
 210 220 l 1,53,54
 191 208 191 208 177.5 193.5 c 128,-1,55
 164 179 164 179 164 156 c 0,56,57
 164 130 164 130 183 114.5 c 128,-1,58
 202 99 202 99 224 99 c 256,59,60
 246 99 246 99 259 107.5 c 128,-1,61
 272 116 272 116 285 129 c 1,52,-1
EndSplineSet
Validated: 1
EndChar

StartChar: quotesingle
Encoding: 39 39 9
Width: 179
GlyphClass: 1
Flags: W
LayerCount: 2
Fore
SplineSet
43 356 m 2,0,-1
 24 542 l 2,1,2
 22 556 22 556 37 556 c 2,3,-1
 77 556 l 2,4,5
 124 556 124 556 141 537.5 c 128,-1,6
 158 519 158 519 152 462 c 2,7,-1
 141 356 l 2,8,9
 140 343 140 343 128 343 c 2,10,-1
 56 343 l 2,11,12
 44 343 44 343 43 356 c 2,0,-1
EndSplineSet
Validated: 33
EndChar

StartChar: parenleft
Encoding: 40 40 10
Width: 341
GlyphClass: 1
Flags: W
LayerCount: 2
Fore
SplineSet
39 276 m 256,0,1
 39 382 39 382 64 459.5 c 128,-1,2
 89 537 89 537 128 588.5 c 128,-1,3
 167 640 167 640 210.5 667 c 128,-1,4
 254 694 254 694 291 697 c 0,5,6
 296 698 296 698 298.5 698 c 128,-1,7
 301 698 301 698 301 690 c 0,8,9
 301 686 301 686 301.5 679 c 128,-1,10
 302 672 302 672 302 667 c 0,11,12
 302 631 302 631 295 613 c 128,-1,13
 288 595 288 595 278.5 586.5 c 128,-1,14
 269 578 269 578 260 568 c 0,15,16
 202 509 202 509 178.5 441.5 c 128,-1,17
 155 374 155 374 155 276 c 0,18,19
 155 179 155 179 178.5 111 c 128,-1,20
 202 43 202 43 260 -16 c 0,21,22
 269 -25 269 -25 278.5 -34 c 128,-1,23
 288 -43 288 -43 295 -60.5 c 128,-1,24
 302 -78 302 -78 302 -114 c 0,25,26
 302 -119 302 -119 301.5 -126 c 128,-1,27
 301 -133 301 -133 301 -138 c 0,28,29
 301 -145 301 -145 298.5 -145.5 c 128,-1,30
 296 -146 296 -146 291 -145 c 0,31,32
 254 -142 254 -142 210.5 -115 c 128,-1,33
 167 -88 167 -88 128 -36.5 c 128,-1,34
 89 15 89 15 64 92.5 c 128,-1,35
 39 170 39 170 39 276 c 256,0,1
EndSplineSet
Validated: 1
PairPos2: "'kern' Horizontal Kerning lookup 2 per glyph data 1" uni0632 dx=16 dy=0 dh=16 dv=0 dx=0 dy=0 dh=0 dv=0
PairPos2: "'kern' Horizontal Kerning lookup 2 per glyph data 1" uni0631 dx=16 dy=0 dh=16 dv=0 dx=0 dy=0 dh=0 dv=0
EndChar

StartChar: parenright
Encoding: 41 41 11
Width: 358
GlyphClass: 1
Flags: W
LayerCount: 2
Fore
SplineSet
319 276 m 256,0,1
 319 170 319 170 294 92.5 c 128,-1,2
 269 15 269 15 230 -36.5 c 128,-1,3
 191 -88 191 -88 147.5 -115 c 128,-1,4
 104 -142 104 -142 68 -145 c 0,5,6
 64 -146 64 -146 61 -145.5 c 128,-1,7
 58 -145 58 -145 57 -138 c 0,8,9
 57 -133 57 -133 56.5 -126 c 128,-1,10
 56 -119 56 -119 56 -114 c 0,11,12
 56 -78 56 -78 63 -60.5 c 128,-1,13
 70 -43 70 -43 80 -34 c 128,-1,14
 90 -25 90 -25 99 -16 c 0,15,16
 156 43 156 43 179.5 111 c 128,-1,17
 203 179 203 179 203 276 c 0,18,19
 203 374 203 374 179.5 441.5 c 128,-1,20
 156 509 156 509 99 568 c 0,21,22
 90 578 90 578 80 586.5 c 128,-1,23
 70 595 70 595 63 613 c 128,-1,24
 56 631 56 631 56 667 c 0,25,26
 56 672 56 672 56.5 679 c 128,-1,27
 57 686 57 686 57 690 c 0,28,29
 58 698 58 698 61 698 c 128,-1,30
 64 698 64 698 68 697 c 0,31,32
 104 694 104 694 147.5 667 c 128,-1,33
 191 640 191 640 230 588.5 c 128,-1,34
 269 537 269 537 294 459.5 c 128,-1,35
 319 382 319 382 319 276 c 256,0,1
EndSplineSet
Validated: 1
PairPos2: "'kern' Horizontal Kerning lookup 2 per glyph data 1" uni0698 dx=-33 dy=0 dh=-33 dv=0 dx=0 dy=0 dh=0 dv=0
PairPos2: "'kern' Horizontal Kerning lookup 2 per glyph data 1" uni0695 dx=-33 dy=0 dh=-33 dv=0 dx=0 dy=0 dh=0 dv=0
PairPos2: "'kern' Horizontal Kerning lookup 2 per glyph data 1" uni0694 dx=-33 dy=0 dh=-33 dv=0 dx=0 dy=0 dh=0 dv=0
PairPos2: "'kern' Horizontal Kerning lookup 2 per glyph data 1" uni0691 dx=-6 dy=0 dh=-6 dv=0 dx=0 dy=0 dh=0 dv=0
PairPos2: "'kern' Horizontal Kerning lookup 2 per glyph data 1" uni0632 dx=-33 dy=0 dh=-33 dv=0 dx=0 dy=0 dh=0 dv=0
PairPos2: "'kern' Horizontal Kerning lookup 2 per glyph data 1" uni0631 dx=-33 dy=0 dh=-33 dv=0 dx=0 dy=0 dh=0 dv=0
EndChar

StartChar: asterisk
Encoding: 42 42 12
Width: 393
GlyphClass: 1
Flags: W
LayerCount: 2
Fore
SplineSet
120 351 m 1,0,-1
 37 372 l 2,1,2
 25 375 25 375 29 388 c 2,3,-1
 54 467 l 2,4,5
 58 480 58 480 70 476 c 2,6,-1
 149 444 l 1,7,-1
 143 529 l 2,8,9
 142 542 142 542 157 542 c 2,10,-1
 240 542 l 2,11,12
 254 542 254 542 253 529 c 2,13,-1
 247 444 l 1,14,-1
 326 476 l 2,15,16
 338 480 338 480 342 467 c 2,17,-1
 368 388 l 2,18,19
 372 375 372 375 360 372 c 2,20,-1
 276 351 l 1,21,-1
 329 284 l 2,22,23
 336 275 336 275 326 268 c 2,24,-1
 259 218 l 2,25,26
 249 211 249 211 242 221 c 2,27,-1
 198 289 l 1,28,-1
 155 221 l 2,29,30
 148 211 148 211 138 218 c 2,31,-1
 70 268 l 2,32,33
 60 275 60 275 68 284 c 2,34,-1
 120 351 l 1,0,-1
EndSplineSet
Validated: 1
EndChar

StartChar: plus
Encoding: 43 43 13
Width: 432
GlyphClass: 1
Flags: W
LayerCount: 2
Fore
SplineSet
156 217 m 1,0,-1
 38 217 l 2,1,2
 25 217 25 217 25 230 c 2,3,-1
 25 316 l 2,4,5
 25 329 25 329 38 329 c 2,6,-1
 156 329 l 1,7,-1
 156 457 l 2,8,9
 156 468 156 468 169 468 c 2,10,-1
 187 468 l 2,11,12
 236 468 236 468 256 450 c 128,-1,13
 276 432 276 432 276 386 c 2,14,-1
 276 329 l 1,15,-1
 393 329 l 2,16,17
 407 329 407 329 407 316 c 2,18,-1
 407 230 l 2,19,20
 407 217 407 217 393 217 c 2,21,-1
 276 217 l 1,22,-1
 276 90 l 2,23,24
 276 77 276 77 263 77 c 2,25,-1
 169 77 l 2,26,27
 156 77 156 77 156 90 c 2,28,-1
 156 217 l 1,0,-1
EndSplineSet
Validated: 1
EndChar

StartChar: comma
Encoding: 44 44 14
Width: 190
GlyphClass: 1
Flags: W
LayerCount: 2
Fore
SplineSet
74 -6 m 1,0,1
 49 1 49 1 33.5 20.5 c 128,-1,2
 18 40 18 40 18 68 c 0,3,4
 18 102 18 102 41 124 c 128,-1,5
 64 146 64 146 95 146 c 0,6,7
 129 146 129 146 150.5 125 c 128,-1,8
 172 104 172 104 172 68 c 0,9,10
 172 13 172 13 143.5 -29.5 c 128,-1,11
 115 -72 115 -72 66 -109 c 0,12,13
 58 -115 58 -115 52 -109 c 0,14,15
 36 -94 36 -94 32 -78 c 128,-1,16
 28 -62 28 -62 38 -52 c 0,17,18
 47 -44 47 -44 58 -31 c 128,-1,19
 69 -18 69 -18 74 -6 c 1,0,1
EndSplineSet
Validated: 1
EndChar

StartChar: hyphen
Encoding: 45 45 15
Width: 304
GlyphClass: 1
Flags: W
LayerCount: 2
Fore
SplineSet
41 145 m 2,0,1
 28 145 28 145 28 158 c 2,2,-1
 28 257 l 2,3,4
 28 269 28 269 41 269 c 2,5,-1
 265 269 l 2,6,7
 277 269 277 269 277 257 c 2,8,-1
 277 158 l 2,9,10
 277 145 277 145 265 145 c 2,11,-1
 41 145 l 2,0,1
EndSplineSet
Validated: 1
EndChar

StartChar: period
Encoding: 46 46 16
Width: 208
GlyphClass: 1
Flags: W
LayerCount: 2
Fore
SplineSet
104 146 m 0,0,1
 136 146 136 146 158 123 c 128,-1,2
 180 100 180 100 180 68 c 0,3,4
 180 35 180 35 158 12.5 c 128,-1,5
 136 -10 136 -10 104 -10 c 0,6,7
 73 -10 73 -10 50.5 12.5 c 128,-1,8
 28 35 28 35 28 68 c 0,9,10
 28 100 28 100 50.5 123 c 128,-1,11
 73 146 73 146 104 146 c 0,0,1
EndSplineSet
Validated: 1
PairPos2: "'kern' Horizontal Kerning lookup 1 subtable" quotedblright dx=0 dy=0 dh=-5 dv=0 dx=0 dy=0 dh=0 dv=0
PairPos2: "'kern' Horizontal Kerning lookup 1 subtable" quoteright dx=0 dy=0 dh=-5 dv=0 dx=0 dy=0 dh=0 dv=0
EndChar

StartChar: slash
Encoding: 47 47 17
Width: 334
GlyphClass: 1
Flags: W
LayerCount: 2
Fore
SplineSet
13 0 m 2,0,1
 6 0 6 0 4.5 4.5 c 128,-1,2
 3 9 3 9 5 13 c 2,3,-1
 229 542 l 2,4,5
 235 556 235 556 250 556 c 2,6,-1
 283 556 l 2,7,8
 318 556 318 556 329 531.5 c 128,-1,9
 340 507 340 507 326 473 c 2,10,-1
 132 13 l 2,11,12
 126 0 126 0 112 0 c 2,13,-1
 13 0 l 2,0,1
EndSplineSet
Validated: 33
EndChar

StartChar: zero
Encoding: 48 48 18
Width: 542
GlyphClass: 1
Flags: W
LayerCount: 2
Fore
SplineSet
271 -10 m 256,0,1
 200 -10 200 -10 146 23.5 c 128,-1,2
 92 57 92 57 62 121.5 c 128,-1,3
 32 186 32 186 32 279 c 0,4,5
 32 373 32 373 62.5 436.5 c 128,-1,6
 93 500 93 500 147 533 c 128,-1,7
 201 566 201 566 271 566 c 256,8,9
 341 566 341 566 395 533 c 128,-1,10
 449 500 449 500 479.5 436.5 c 128,-1,11
 510 373 510 373 510 279 c 0,12,13
 510 186 510 186 480 121.5 c 128,-1,14
 450 57 450 57 396 23.5 c 128,-1,15
 342 -10 342 -10 271 -10 c 256,0,1
271 115 m 256,16,17
 314 115 314 115 343.5 152 c 128,-1,18
 373 189 373 189 373 279 c 0,19,20
 373 368 373 368 342.5 405 c 128,-1,21
 312 442 312 442 271 442 c 0,22,23
 229 442 229 442 199 405 c 128,-1,24
 169 368 169 368 169 279 c 0,25,26
 169 189 169 189 198.5 152 c 128,-1,27
 228 115 228 115 271 115 c 256,16,17
EndSplineSet
Validated: 1
Substitution2: "'lnum' Lining Figures lookup 7 subtable" zero.tab
Substitution2: "'aalt' Access All Alternates lookup 0 subtable" zero.tab
EndChar

StartChar: one
Encoding: 49 49 19
Width: 378
GlyphClass: 1
Flags: W
LayerCount: 2
Fore
SplineSet
121 123 m 1,0,-1
 121 424 l 1,1,-1
 38 393 l 2,2,3
 23 389 23 389 23 403 c 2,4,-1
 23 506 l 2,5,6
 23 520 23 520 38 526 c 2,7,-1
 93 546 l 2,8,9
 103 550 103 550 118 553 c 128,-1,10
 133 556 133 556 146 556 c 2,11,-1
 185 556 l 2,12,13
 220 556 220 556 237.5 538 c 128,-1,14
 255 520 255 520 255 488 c 2,15,-1
 255 123 l 1,16,-1
 298 123 l 2,17,18
 368 123 368 123 368 57 c 2,19,-1
 368 17 l 2,20,21
 368 0 368 0 351 0 c 2,22,-1
 35 0 l 2,23,24
 22 0 22 0 22 13 c 2,25,-1
 22 110 l 2,26,27
 22 123 22 123 35 123 c 2,28,-1
 121 123 l 1,0,-1
EndSplineSet
Validated: 1
Substitution2: "'lnum' Lining Figures lookup 7 subtable" one.tab
Substitution2: "'sups' Superscript lookup 3 subtable" onesuperior
AlternateSubs2: "'aalt' Access All Alternates lookup 1 subtable" onesuperior one.tab
EndChar

StartChar: two
Encoding: 50 50 20
Width: 462
GlyphClass: 1
Flags: W
LayerCount: 2
Fore
SplineSet
189 123 m 1,0,-1
 362 123 l 2,1,2
 432 123 432 123 432 59 c 2,3,-1
 432 17 l 2,4,5
 432 0 432 0 416 0 c 2,6,-1
 36 0 l 2,7,8
 23 0 23 0 23 13 c 0,9,10
 23 83 23 83 42 130.5 c 128,-1,11
 61 178 61 178 91 210 c 128,-1,12
 121 242 121 242 155 264 c 128,-1,13
 189 286 189 286 219 304.5 c 128,-1,14
 249 323 249 323 268 344 c 128,-1,15
 287 365 287 365 287 396 c 0,16,17
 287 424 287 424 268 436 c 128,-1,18
 249 448 249 448 215 448 c 0,19,20
 179 448 179 448 150.5 439 c 128,-1,21
 122 430 122 430 85 413 c 0,22,23
 81 412 81 412 78 410 c 128,-1,24
 75 408 75 408 70 408 c 0,25,26
 61 408 61 408 58 419 c 2,27,-1
 45 457 l 2,28,29
 35 488 35 488 45 508.5 c 128,-1,30
 55 529 55 529 89 542 c 0,31,32
 118 553 118 553 152 559.5 c 128,-1,33
 186 566 186 566 224 566 c 0,34,35
 281 566 281 566 326.5 548 c 128,-1,36
 372 530 372 530 398.5 493.5 c 128,-1,37
 425 457 425 457 425 401 c 0,38,39
 425 351 425 351 404.5 315 c 128,-1,40
 384 279 384 279 352.5 252 c 128,-1,41
 321 225 321 225 287.5 204 c 128,-1,42
 254 183 254 183 227 164 c 128,-1,43
 200 145 200 145 189 123 c 1,0,-1
EndSplineSet
Validated: 33
Substitution2: "'lnum' Lining Figures lookup 7 subtable" two.tab
Substitution2: "'sups' Superscript lookup 3 subtable" twosuperior
AlternateSubs2: "'aalt' Access All Alternates lookup 1 subtable" twosuperior two.tab
EndChar

StartChar: three
Encoding: 51 51 21
Width: 452
GlyphClass: 1
Flags: W
LayerCount: 2
Fore
SplineSet
332 293 m 1,0,1
 384 280 384 280 405 246.5 c 128,-1,2
 426 213 426 213 426 167 c 0,3,4
 426 117 426 117 400.5 76.5 c 128,-1,5
 375 36 375 36 328.5 13 c 128,-1,6
 282 -10 282 -10 217 -10 c 0,7,8
 147 -10 147 -10 101.5 15.5 c 128,-1,9
 56 41 56 41 34.5 78 c 128,-1,10
 13 115 13 115 13 148 c 0,11,12
 13 160 13 160 18.5 168.5 c 128,-1,13
 24 177 24 177 34 177 c 0,14,15
 42 177 42 177 51 168 c 0,16,17
 77 146 77 146 112.5 127 c 128,-1,18
 148 108 148 108 203 108 c 0,19,20
 244 108 244 108 267 126 c 128,-1,21
 290 144 290 144 290 176 c 0,22,23
 290 203 290 203 270 213.5 c 128,-1,24
 250 224 250 224 220 224 c 2,25,-1
 157 224 l 2,26,27
 123 224 123 224 107.5 236.5 c 128,-1,28
 92 249 92 249 92 281 c 2,29,-1
 92 327 l 2,30,31
 92 335 92 335 96 340.5 c 128,-1,32
 100 346 100 346 107 346 c 2,33,-1
 203 346 l 2,34,35
 241 346 241 346 256.5 362.5 c 128,-1,36
 272 379 272 379 272 401 c 0,37,38
 272 449 272 449 200 449 c 0,39,40
 159 449 159 449 129.5 438.5 c 128,-1,41
 100 428 100 428 71 413 c 0,42,43
 67 412 67 412 63.5 410 c 128,-1,44
 60 408 60 408 56 408 c 0,45,46
 51 408 51 408 46 418 c 2,47,-1
 32 458 l 2,48,49
 22 489 22 489 32 509.5 c 128,-1,50
 42 530 42 530 76 543 c 0,51,52
 134 566 134 566 214 566 c 0,53,54
 268 566 268 566 311.5 550.5 c 128,-1,55
 355 535 355 535 381 501.5 c 128,-1,56
 407 468 407 468 407 414 c 0,57,58
 407 371 407 371 386.5 340.5 c 128,-1,59
 366 310 366 310 332 293 c 1,0,1
EndSplineSet
Validated: 33
Substitution2: "'lnum' Lining Figures lookup 7 subtable" three.tab
Substitution2: "'sups' Superscript lookup 3 subtable" threesuperior
AlternateSubs2: "'aalt' Access All Alternates lookup 1 subtable" threesuperior three.tab
EndChar

StartChar: four
Encoding: 52 52 22
Width: 498
GlyphClass: 1
Flags: W
LayerCount: 2
Fore
SplineSet
264 106 m 1,0,-1
 19 106 l 2,1,2
 6 106 6 106 6 119 c 2,3,-1
 6 193 l 2,4,5
 6 203 6 203 8 208.5 c 128,-1,6
 10 214 10 214 16 224 c 2,7,-1
 208 531 l 2,8,9
 215 541 215 541 224.5 548.5 c 128,-1,10
 234 556 234 556 253 556 c 2,11,-1
 324 556 l 2,12,13
 359 556 359 556 376.5 538 c 128,-1,14
 394 520 394 520 394 488 c 2,15,-1
 394 230 l 1,16,-1
 418 230 l 2,17,18
 487 230 487 230 487 163 c 2,19,-1
 487 123 l 2,20,21
 487 106 487 106 470 106 c 2,22,-1
 394 106 l 1,23,-1
 394 13 l 2,24,25
 394 0 394 0 383 0 c 2,26,-1
 275 0 l 2,27,28
 264 0 264 0 264 13 c 2,29,-1
 264 106 l 1,0,-1
155 230 m 1,30,-1
 264 230 l 1,31,-1
 264 404 l 1,32,-1
 155 230 l 1,30,-1
EndSplineSet
Validated: 1
Substitution2: "'lnum' Lining Figures lookup 7 subtable" four.tab
Substitution2: "'aalt' Access All Alternates lookup 0 subtable" four.tab
EndChar

StartChar: five
Encoding: 53 53 23
Width: 461
GlyphClass: 1
Flags: W
LayerCount: 2
Fore
SplineSet
161 433 m 1,0,-1
 161 369 l 1,1,2
 175 372 175 372 195 374.5 c 128,-1,3
 215 377 215 377 236 377 c 0,4,5
 329 377 329 377 381.5 328.5 c 128,-1,6
 434 280 434 280 434 193 c 0,7,8
 434 129 434 129 405 83.5 c 128,-1,9
 376 38 376 38 327.5 14 c 128,-1,10
 279 -10 279 -10 218 -10 c 0,11,12
 154 -10 154 -10 109 13 c 128,-1,13
 64 36 64 36 40.5 71 c 128,-1,14
 17 106 17 106 17 143 c 0,15,16
 17 173 17 173 38 173 c 0,17,18
 40 173 40 173 45 171 c 128,-1,19
 50 169 50 169 56 164 c 0,20,21
 79 144 79 144 114 126 c 128,-1,22
 149 108 149 108 203 108 c 0,23,24
 299 108 299 108 299 192 c 0,25,26
 299 227 299 227 270.5 243 c 128,-1,27
 242 259 242 259 201 259 c 0,28,29
 155 259 155 259 118.5 252 c 128,-1,30
 82 245 82 245 56 237 c 0,31,32
 40 232 40 232 40 248 c 2,33,-1
 40 542 l 2,34,35
 40 556 40 556 53 556 c 2,36,-1
 334 556 l 2,37,38
 369 556 369 556 386.5 538 c 128,-1,39
 404 520 404 520 404 488 c 2,40,-1
 404 449 l 2,41,42
 404 433 404 433 388 433 c 2,43,-1
 161 433 l 1,0,-1
EndSplineSet
Validated: 1
Substitution2: "'lnum' Lining Figures lookup 7 subtable" five.tab
Substitution2: "'aalt' Access All Alternates lookup 0 subtable" five.tab
EndChar

StartChar: six
Encoding: 54 54 24
Width: 486
GlyphClass: 1
Flags: W
LayerCount: 2
Fore
SplineSet
259 394 m 1,0,-1
 268 394 l 2,1,2
 330 394 330 394 373.5 366 c 128,-1,3
 417 338 417 338 440 294.5 c 128,-1,4
 463 251 463 251 463 203 c 0,5,6
 463 143 463 143 437 95 c 128,-1,7
 411 47 411 47 363.5 19 c 128,-1,8
 316 -9 316 -9 250 -9 c 0,9,10
 185 -9 185 -9 134.5 16.5 c 128,-1,11
 84 42 84 42 55.5 87.5 c 128,-1,12
 27 133 27 133 27 191 c 0,13,14
 27 222 27 222 34 248.5 c 128,-1,15
 41 275 41 275 57.5 306.5 c 128,-1,16
 74 338 74 338 100 381 c 2,17,-1
 208 554 l 2,18,19
 212 560 212 560 216.5 563 c 128,-1,20
 221 566 221 566 230 566 c 0,21,22
 259 566 259 566 279 549 c 128,-1,23
 299 532 299 532 303 504 c 128,-1,24
 307 476 307 476 288 443 c 2,25,-1
 259 394 l 1,0,-1
161 194 m 0,26,27
 161 157 161 157 186.5 133.5 c 128,-1,28
 212 110 212 110 249 110 c 0,29,30
 284 110 284 110 306.5 133.5 c 128,-1,31
 329 157 329 157 329 194 c 0,32,33
 329 230 329 230 305.5 254.5 c 128,-1,34
 282 279 282 279 246 279 c 0,35,36
 209 279 209 279 185 254.5 c 128,-1,37
 161 230 161 230 161 194 c 0,26,27
EndSplineSet
Validated: 33
Substitution2: "'lnum' Lining Figures lookup 7 subtable" six.tab
Substitution2: "'aalt' Access All Alternates lookup 0 subtable" six.tab
EndChar

StartChar: seven
Encoding: 55 55 25
Width: 421
GlyphClass: 1
Flags: W
LayerCount: 2
Fore
SplineSet
247 433 m 1,0,-1
 28 433 l 2,1,2
 15 433 15 433 15 446 c 2,3,-1
 15 542 l 2,4,5
 15 556 15 556 28 556 c 2,6,-1
 326 556 l 2,7,8
 361 556 361 556 378.5 538 c 128,-1,9
 396 520 396 520 396 488 c 2,10,-1
 396 476 l 2,11,12
 396 460 396 460 393.5 448 c 128,-1,13
 391 436 391 436 383 419 c 2,14,-1
 202 13 l 2,15,16
 196 0 196 0 183 0 c 2,17,-1
 67 0 l 2,18,19
 61 0 61 0 59 4.5 c 128,-1,20
 57 9 57 9 59 13 c 2,21,-1
 247 433 l 1,0,-1
EndSplineSet
Validated: 1
Substitution2: "'lnum' Lining Figures lookup 7 subtable" seven.tab
Substitution2: "'aalt' Access All Alternates lookup 0 subtable" seven.tab
EndChar

StartChar: eight
Encoding: 56 56 26
Width: 487
GlyphClass: 1
Flags: W
LayerCount: 2
Fore
SplineSet
100 291 m 1,0,1
 70 308 70 308 52 338.5 c 128,-1,2
 34 369 34 369 34 413 c 0,3,4
 34 484 34 484 92 525 c 128,-1,5
 150 566 150 566 244 566 c 0,6,7
 337 566 337 566 395 525 c 128,-1,8
 453 484 453 484 453 413 c 0,9,10
 453 370 453 370 434 339 c 128,-1,11
 415 308 415 308 384 289 c 1,12,13
 430 269 430 269 447 237 c 128,-1,14
 464 205 464 205 464 164 c 0,15,16
 464 91 464 91 407.5 41 c 128,-1,17
 351 -9 351 -9 244 -9 c 0,18,19
 136 -9 136 -9 79 41 c 128,-1,20
 22 91 22 91 22 164 c 0,21,22
 22 202 22 202 41 235.5 c 128,-1,23
 60 269 60 269 100 291 c 1,0,1
165 398 m 0,24,25
 165 373 165 373 185.5 356 c 128,-1,26
 206 339 206 339 244 339 c 256,27,28
 282 339 282 339 301 356 c 128,-1,29
 320 373 320 373 320 398 c 0,30,31
 320 424 320 424 301 441 c 128,-1,32
 282 458 282 458 244 458 c 256,33,34
 206 458 206 458 185.5 441 c 128,-1,35
 165 424 165 424 165 398 c 0,24,25
156 165 m 0,36,37
 156 139 156 139 179 119.5 c 128,-1,38
 202 100 202 100 244 100 c 0,39,40
 285 100 285 100 307 119.5 c 128,-1,41
 329 139 329 139 329 165 c 0,42,43
 329 233 329 233 244 233 c 0,44,45
 202 233 202 233 179 215.5 c 128,-1,46
 156 198 156 198 156 165 c 0,36,37
EndSplineSet
Validated: 1
Substitution2: "'lnum' Lining Figures lookup 7 subtable" eight.tab
Substitution2: "'aalt' Access All Alternates lookup 0 subtable" eight.tab
EndChar

StartChar: nine
Encoding: 57 57 27
Width: 484
GlyphClass: 1
Flags: W
LayerCount: 2
Fore
SplineSet
225 163 m 1,0,-1
 213 163 l 2,1,2
 152 163 152 163 109.5 191 c 128,-1,3
 67 219 67 219 44.5 262 c 128,-1,4
 22 305 22 305 22 351 c 0,5,6
 22 414 22 414 49 462.5 c 128,-1,7
 76 511 76 511 125 538.5 c 128,-1,8
 174 566 174 566 239 566 c 0,9,10
 305 566 305 566 354 541 c 128,-1,11
 403 516 403 516 430.5 471.5 c 128,-1,12
 458 427 458 427 458 367 c 0,13,14
 458 328 458 328 443 287 c 128,-1,15
 428 246 428 246 388 181 c 2,16,-1
 276 3 l 2,17,18
 271 -10 271 -10 253 -10 c 0,19,20
 224 -10 224 -10 204.5 8.5 c 128,-1,21
 185 27 185 27 181 55.5 c 128,-1,22
 177 84 177 84 195 114 c 2,23,-1
 225 163 l 1,0,-1
239 277 m 0,24,25
 276 277 276 277 299.5 302.5 c 128,-1,26
 323 328 323 328 323 363 c 0,27,28
 323 401 323 401 298 424.5 c 128,-1,29
 273 448 273 448 236 448 c 0,30,31
 201 448 201 448 178 424 c 128,-1,32
 155 400 155 400 155 363 c 0,33,34
 155 325 155 325 177.5 301 c 128,-1,35
 200 277 200 277 239 277 c 0,24,25
EndSplineSet
Validated: 33
Substitution2: "'lnum' Lining Figures lookup 7 subtable" nine.tab
Substitution2: "'aalt' Access All Alternates lookup 0 subtable" nine.tab
EndChar

StartChar: colon
Encoding: 58 58 28
Width: 219
GlyphClass: 1
Flags: W
LayerCount: 2
Fore
SplineSet
109 374 m 0,0,1
 141 374 141 374 163 351.5 c 128,-1,2
 185 329 185 329 185 297 c 0,3,4
 185 264 185 264 163 241.5 c 128,-1,5
 141 219 141 219 109 219 c 0,6,7
 78 219 78 219 55.5 241.5 c 128,-1,8
 33 264 33 264 33 297 c 0,9,10
 33 329 33 329 55.5 351.5 c 128,-1,11
 78 374 78 374 109 374 c 0,0,1
109 146 m 0,12,13
 141 146 141 146 163 123 c 128,-1,14
 185 100 185 100 185 68 c 0,15,16
 185 35 185 35 163 12.5 c 128,-1,17
 141 -10 141 -10 109 -10 c 0,18,19
 78 -10 78 -10 55.5 12.5 c 128,-1,20
 33 35 33 35 33 68 c 0,21,22
 33 100 33 100 55.5 123 c 128,-1,23
 78 146 78 146 109 146 c 0,12,13
EndSplineSet
Validated: 1
EndChar

StartChar: semicolon
Encoding: 59 59 29
Width: 212
GlyphClass: 1
Flags: W
LayerCount: 2
Fore
SplineSet
28 296 m 256,0,1
 28 330 28 330 51.5 351.5 c 128,-1,2
 75 373 75 373 106 373 c 0,3,4
 140 373 140 373 161.5 351.5 c 128,-1,5
 183 330 183 330 183 296 c 256,6,7
 183 262 183 262 161.5 240.5 c 128,-1,8
 140 219 140 219 106 219 c 0,9,10
 75 219 75 219 51.5 240.5 c 128,-1,11
 28 262 28 262 28 296 c 256,0,1
85 -6 m 1,12,13
 60 1 60 1 44.5 20.5 c 128,-1,14
 29 40 29 40 29 68 c 0,15,16
 29 102 29 102 52 124 c 128,-1,17
 75 146 75 146 106 146 c 0,18,19
 140 146 140 146 161.5 125 c 128,-1,20
 183 104 183 104 183 68 c 0,21,22
 183 13 183 13 154 -29.5 c 128,-1,23
 125 -72 125 -72 77 -109 c 0,24,25
 69 -115 69 -115 63 -109 c 0,26,27
 47 -94 47 -94 42.5 -78 c 128,-1,28
 38 -62 38 -62 49 -52 c 0,29,30
 57 -44 57 -44 68.5 -31 c 128,-1,31
 80 -18 80 -18 85 -6 c 1,12,13
EndSplineSet
Validated: 1
EndChar

StartChar: less
Encoding: 60 60 30
Width: 462
GlyphClass: 1
Flags: W
LayerCount: 2
Fore
SplineSet
199 272 m 1,0,-1
 348 209 l 2,1,2
 397 189 397 189 412.5 159.5 c 128,-1,3
 428 130 428 130 428 82 c 2,4,-1
 428 65 l 2,5,6
 428 53 428 53 417 58 c 2,7,-1
 43 221 l 2,8,9
 30 225 30 225 30 242 c 2,10,-1
 30 303 l 2,11,12
 30 316 30 316 43 322 c 2,13,-1
 413 484 l 2,14,15
 419 487 419 487 423.5 484.5 c 128,-1,16
 428 482 428 482 428 477 c 2,17,-1
 428 386 l 2,18,19
 428 370 428 370 413 363 c 2,20,-1
 199 272 l 1,0,-1
EndSplineSet
Validated: 1
EndChar

StartChar: equal
Encoding: 61 61 31
Width: 432
GlyphClass: 1
Flags: W
LayerCount: 2
Fore
SplineSet
25 327 m 2,0,-1
 25 413 l 2,1,2
 25 427 25 427 38 427 c 2,3,-1
 337 427 l 2,4,5
 372 427 372 427 389.5 409 c 128,-1,6
 407 391 407 391 407 359 c 2,7,-1
 407 327 l 2,8,9
 407 314 407 314 393 314 c 2,10,-1
 38 314 l 2,11,12
 25 314 25 314 25 327 c 2,0,-1
25 131 m 2,13,-1
 25 218 l 2,14,15
 25 231 25 231 38 231 c 2,16,-1
 337 231 l 2,17,18
 407 231 407 231 407 164 c 2,19,-1
 407 131 l 2,20,21
 407 118 407 118 393 118 c 2,22,-1
 38 118 l 2,23,24
 25 118 25 118 25 131 c 2,13,-1
EndSplineSet
Validated: 1
EndChar

StartChar: greater
Encoding: 62 62 32
Width: 462
GlyphClass: 1
Flags: W
LayerCount: 2
Fore
SplineSet
264 272 m 1,0,-1
 50 363 l 2,1,2
 35 370 35 370 35 386 c 2,3,-1
 35 477 l 2,4,5
 35 482 35 482 39.5 484.5 c 128,-1,6
 44 487 44 487 50 484 c 2,7,-1
 421 322 l 2,8,9
 433 316 433 316 433 303 c 2,10,-1
 433 242 l 2,11,12
 433 226 433 226 421 221 c 2,13,-1
 47 58 l 2,14,15
 35 53 35 53 35 65 c 2,16,-1
 35 82 l 2,17,18
 35 130 35 130 51 159.5 c 128,-1,19
 67 189 67 189 115 209 c 2,20,-1
 264 272 l 1,0,-1
EndSplineSet
Validated: 1
EndChar

StartChar: question
Encoding: 63 63 33
Width: 416
GlyphClass: 1
Flags: W
LayerCount: 2
Fore
SplineSet
127 180 m 2,0,-1
 127 210 l 2,1,2
 127 240 127 240 140 261.5 c 128,-1,3
 153 283 153 283 172 299.5 c 128,-1,4
 191 316 191 316 210 331 c 128,-1,5
 229 346 229 346 242 362 c 128,-1,6
 255 378 255 378 255 398 c 0,7,8
 255 446 255 446 195 446 c 0,9,10
 156 446 156 446 124 435 c 128,-1,11
 92 424 92 424 63 409 c 0,12,13
 54 406 54 406 50 406 c 0,14,15
 43 406 43 406 40 414 c 2,16,-1
 27 453 l 2,17,18
 17 483 17 483 25 503 c 128,-1,19
 33 523 33 523 68 539 c 0,20,21
 124 566 124 566 201 566 c 0,22,23
 255 566 255 566 299 550 c 128,-1,24
 343 534 343 534 368.5 501 c 128,-1,25
 394 468 394 468 394 417 c 0,26,27
 394 373 394 373 377.5 340 c 128,-1,28
 361 307 361 307 330.5 279 c 128,-1,29
 300 251 300 251 257 220 c 0,30,31
 246 212 246 212 243.5 206 c 128,-1,32
 241 200 241 200 241 190 c 2,33,-1
 241 180 l 2,34,35
 241 167 241 167 227 167 c 2,36,-1
 140 167 l 2,37,38
 127 167 127 167 127 180 c 2,0,-1
107 68 m 256,39,40
 107 102 107 102 130 124 c 128,-1,41
 153 146 153 146 186 146 c 0,42,43
 220 146 220 146 241 124 c 128,-1,44
 262 102 262 102 262 68 c 256,45,46
 262 34 262 34 241 12.5 c 128,-1,47
 220 -9 220 -9 186 -9 c 0,48,49
 153 -9 153 -9 130 12.5 c 128,-1,50
 107 34 107 34 107 68 c 256,39,40
EndSplineSet
Validated: 33
EndChar

StartChar: at
Encoding: 64 64 34
Width: 805
GlyphClass: 1
Flags: W
LayerCount: 2
Fore
SplineSet
476 85 m 1,0,1
 462 66 462 66 435.5 49.5 c 128,-1,2
 409 33 409 33 366 33 c 0,3,4
 301 33 301 33 256.5 81 c 128,-1,5
 212 129 212 129 212 218 c 0,6,7
 212 272 212 272 236 315.5 c 128,-1,8
 260 359 260 359 300.5 384 c 128,-1,9
 341 409 341 409 391 409 c 0,10,11
 423 409 423 409 448 397.5 c 128,-1,12
 473 386 473 386 489 366 c 1,13,14
 502 385 502 385 522 392 c 128,-1,15
 542 399 542 399 567 399 c 2,16,-1
 586 399 l 2,17,18
 598 399 598 399 596 386 c 2,19,-1
 576 175 l 2,20,21
 575 170 575 170 574 163 c 128,-1,22
 573 156 573 156 573 151 c 0,23,24
 573 145 573 145 577.5 139 c 128,-1,25
 582 133 582 133 592 133 c 0,26,27
 615 133 615 133 635.5 166.5 c 128,-1,28
 656 200 656 200 656 264 c 0,29,30
 656 337 656 337 623.5 381.5 c 128,-1,31
 591 426 591 426 535 446.5 c 128,-1,32
 479 467 479 467 408 467 c 0,33,34
 336 467 336 467 278.5 436 c 128,-1,35
 221 405 221 405 187 349 c 128,-1,36
 153 293 153 293 153 218 c 0,37,38
 153 97 153 97 223.5 27.5 c 128,-1,39
 294 -42 294 -42 427 -42 c 0,40,41
 480 -42 480 -42 516.5 -35 c 128,-1,42
 553 -28 553 -28 582 -15 c 128,-1,43
 611 -2 611 -2 643 15 c 0,44,45
 649 18 649 18 652 20.5 c 128,-1,46
 655 23 655 23 660 23 c 0,47,48
 669 23 669 23 669 11 c 0,49,50
 669 -7 669 -7 654.5 -32.5 c 128,-1,51
 640 -58 640 -58 609 -83 c 128,-1,52
 578 -108 578 -108 527.5 -125 c 128,-1,53
 477 -142 477 -142 404 -142 c 0,54,55
 298 -142 298 -142 214.5 -99.5 c 128,-1,56
 131 -57 131 -57 83 23 c 128,-1,57
 35 103 35 103 35 215 c 0,58,59
 35 295 35 295 64.5 360.5 c 128,-1,60
 94 426 94 426 145.5 473 c 128,-1,61
 197 520 197 520 265 545.5 c 128,-1,62
 333 571 333 571 411 571 c 0,63,64
 481 571 481 571 545.5 553 c 128,-1,65
 610 535 610 535 660.5 498 c 128,-1,66
 711 461 711 461 740.5 404 c 128,-1,67
 770 347 770 347 770 269 c 0,68,69
 770 206 770 206 745 152.5 c 128,-1,70
 720 99 720 99 676.5 66 c 128,-1,71
 633 33 633 33 577 33 c 0,72,73
 537 33 537 33 512.5 48 c 128,-1,74
 488 63 488 63 476 85 c 1,0,1
396 143 m 0,75,76
 428 143 428 143 444.5 171 c 128,-1,77
 461 199 461 199 461 239 c 0,78,79
 461 265 461 265 447.5 281.5 c 128,-1,80
 434 298 434 298 407 298 c 0,81,82
 375 298 375 298 357 273 c 128,-1,83
 339 248 339 248 339 213 c 0,84,85
 339 186 339 186 353.5 164.5 c 128,-1,86
 368 143 368 143 396 143 c 0,75,76
EndSplineSet
Validated: 1
EndChar

StartChar: A
Encoding: 65 65 35
Width: 538
GlyphClass: 1
Flags: W
LayerCount: 2
Fore
SplineSet
180 125 m 1,0,-1
 142 13 l 2,1,2
 138 0 138 0 127 0 c 2,3,-1
 14 0 l 2,4,5
 8 0 8 0 6 4.5 c 128,-1,6
 4 9 4 9 5 13 c 2,7,-1
 191 544 l 2,8,9
 196 556 196 556 206 556 c 2,10,-1
 265 556 l 2,11,12
 307 556 307 556 330 537.5 c 128,-1,13
 353 519 353 519 372 466 c 2,14,-1
 535 13 l 2,15,16
 536 9 536 9 534 4.5 c 128,-1,17
 532 0 532 0 525 0 c 2,18,-1
 410 0 l 2,19,20
 397 0 397 0 390 13 c 2,21,-1
 352 125 l 1,22,-1
 180 125 l 1,0,-1
219 241 m 1,23,-1
 315 241 l 1,24,-1
 266 384 l 1,25,-1
 219 241 l 1,23,-1
EndSplineSet
Validated: 1
Substitution2: "Single Substitution lookup 2 subtable" ordfeminine
EndChar

StartChar: B
Encoding: 66 66 36
Width: 484
GlyphClass: 1
Flags: W
LayerCount: 2
Fore
SplineSet
380 289 m 1,0,1
 419 273 419 273 442 240 c 128,-1,2
 465 207 465 207 465 162 c 0,3,4
 465 85 465 85 418 42.5 c 128,-1,5
 371 0 371 0 274 0 c 2,6,-1
 59 0 l 2,7,8
 46 0 46 0 46 13 c 2,9,-1
 46 542 l 2,10,11
 46 556 46 556 59 556 c 2,12,-1
 257 556 l 2,13,14
 349 556 349 556 398.5 518 c 128,-1,15
 448 480 448 480 448 406 c 0,16,17
 448 363 448 363 428 334.5 c 128,-1,18
 408 306 408 306 380 289 c 1,0,1
180 342 m 1,19,-1
 264 342 l 2,20,21
 292 342 292 342 302 358.5 c 128,-1,22
 312 375 312 375 312 392 c 0,23,24
 312 410 312 410 300.5 424 c 128,-1,25
 289 438 289 438 260 438 c 2,26,-1
 180 438 l 1,27,-1
 180 342 l 1,19,-1
180 118 m 1,28,-1
 262 118 l 2,29,30
 273 118 273 118 288.5 120.5 c 128,-1,31
 304 123 304 123 316 135.5 c 128,-1,32
 328 148 328 148 328 176 c 0,33,34
 328 199 328 199 312 217 c 128,-1,35
 296 235 296 235 262 235 c 2,36,-1
 180 235 l 1,37,-1
 180 118 l 1,28,-1
EndSplineSet
Validated: 1
EndChar

StartChar: C
Encoding: 67 67 37
Width: 507
GlyphClass: 1
Flags: W
LayerCount: 2
Fore
SplineSet
461 177 m 0,0,1
 464 179 464 179 468.5 182.5 c 128,-1,2
 473 186 473 186 478 186 c 0,3,4
 484 186 484 186 490.5 181 c 128,-1,5
 497 176 497 176 497 159 c 0,6,7
 497 137 497 137 487 108.5 c 128,-1,8
 477 80 477 80 453.5 53 c 128,-1,9
 430 26 430 26 390.5 8.5 c 128,-1,10
 351 -9 351 -9 291 -9 c 0,11,12
 215 -9 215 -9 157 25.5 c 128,-1,13
 99 60 99 60 66.5 124 c 128,-1,14
 34 188 34 188 34 276 c 0,15,16
 34 367 34 367 69 432 c 128,-1,17
 104 497 104 497 165.5 531.5 c 128,-1,18
 227 566 227 566 305 566 c 0,19,20
 340 566 340 566 375 561.5 c 128,-1,21
 410 557 410 557 440 543 c 0,22,23
 499 519 499 519 482 457 c 2,24,-1
 471 413 l 2,25,26
 469 406 469 406 465.5 403.5 c 128,-1,27
 462 401 462 401 458 401 c 256,28,29
 454 401 454 401 447.5 404 c 128,-1,30
 441 407 441 407 436 408 c 0,31,32
 407 423 407 423 378.5 431 c 128,-1,33
 350 439 350 439 309 439 c 0,34,35
 250 439 250 439 211.5 400 c 128,-1,36
 173 361 173 361 173 276 c 0,37,38
 173 196 173 196 214.5 157 c 128,-1,39
 256 118 256 118 318 118 c 0,40,41
 371 118 371 118 404.5 136.5 c 128,-1,42
 438 155 438 155 461 177 c 0,0,1
EndSplineSet
Validated: 33
EndChar

StartChar: D
Encoding: 68 68 38
Width: 557
GlyphClass: 1
Flags: W
LayerCount: 2
Fore
SplineSet
46 13 m 2,0,-1
 46 542 l 2,1,2
 46 556 46 556 59 556 c 2,3,-1
 230 556 l 2,4,5
 286 556 286 556 338 544 c 128,-1,6
 390 532 390 532 432 502 c 128,-1,7
 474 472 474 472 498.5 420 c 128,-1,8
 523 368 523 368 523 288 c 0,9,10
 523 140 523 140 442 70 c 128,-1,11
 361 0 361 0 224 0 c 2,12,-1
 59 0 l 2,13,14
 46 0 46 0 46 13 c 2,0,-1
180 125 m 1,15,-1
 235 125 l 2,16,17
 305 125 305 125 344 165 c 128,-1,18
 383 205 383 205 383 284 c 0,19,20
 383 367 383 367 343 399 c 128,-1,21
 303 431 303 431 230 431 c 2,22,-1
 180 431 l 1,23,-1
 180 125 l 1,15,-1
EndSplineSet
Validated: 1
EndChar

StartChar: E
Encoding: 69 69 39
Width: 424
GlyphClass: 1
Flags: W
LayerCount: 2
Fore
SplineSet
182 125 m 1,0,-1
 337 125 l 2,1,2
 407 125 407 125 407 59 c 2,3,-1
 407 17 l 2,4,5
 407 0 407 0 391 0 c 2,6,-1
 59 0 l 2,7,8
 46 0 46 0 46 13 c 2,9,-1
 46 542 l 2,10,11
 46 556 46 556 59 556 c 2,12,-1
 329 556 l 2,13,14
 399 556 399 556 399 489 c 2,15,-1
 399 447 l 2,16,17
 399 430 399 430 383 430 c 2,18,-1
 182 430 l 1,19,-1
 182 344 l 1,20,-1
 310 344 l 2,21,22
 380 344 380 344 380 277 c 2,23,-1
 380 237 l 2,24,25
 380 221 380 221 364 221 c 2,26,-1
 182 221 l 1,27,-1
 182 125 l 1,0,-1
EndSplineSet
Validated: 1
EndChar

StartChar: F
Encoding: 70 70 40
Width: 412
GlyphClass: 1
Flags: W
LayerCount: 2
Fore
SplineSet
180 215 m 1,0,-1
 180 13 l 2,1,2
 180 0 180 0 168 0 c 2,3,-1
 59 0 l 2,4,5
 46 0 46 0 46 13 c 2,6,-1
 46 542 l 2,7,8
 46 556 46 556 59 556 c 2,9,-1
 329 556 l 2,10,11
 364 556 364 556 381 538 c 128,-1,12
 398 520 398 520 398 488 c 2,13,-1
 398 448 l 2,14,15
 398 431 398 431 383 431 c 2,16,-1
 180 431 l 1,17,-1
 180 338 l 1,18,-1
 305 338 l 2,19,20
 375 338 375 338 375 272 c 2,21,-1
 375 232 l 2,22,23
 375 215 375 215 359 215 c 2,24,-1
 180 215 l 1,0,-1
EndSplineSet
Validated: 1
EndChar

StartChar: G
Encoding: 71 71 41
Width: 557
GlyphClass: 1
Flags: W
LayerCount: 2
Fore
SplineSet
395 138 m 1,0,-1
 395 199 l 1,1,-1
 344 199 l 2,2,3
 275 199 275 199 275 266 c 2,4,-1
 275 307 l 2,5,6
 275 324 275 324 290 324 c 2,7,-1
 508 324 l 2,8,9
 525 324 525 324 525 307 c 2,10,-1
 525 95 l 2,11,12
 525 80 525 80 520.5 70.5 c 128,-1,13
 516 61 516 61 502 52 c 0,14,15
 454 16 454 16 411 3.5 c 128,-1,16
 368 -9 368 -9 313 -9 c 0,17,18
 257 -9 257 -9 207 6.5 c 128,-1,19
 157 22 157 22 118 55.5 c 128,-1,20
 79 89 79 89 56.5 145 c 128,-1,21
 34 201 34 201 34 282 c 0,22,23
 34 371 34 371 68.5 434.5 c 128,-1,24
 103 498 103 498 166.5 532 c 128,-1,25
 230 566 230 566 318 566 c 0,26,27
 354 566 354 566 390.5 561.5 c 128,-1,28
 427 557 427 557 457 543 c 0,29,30
 516 519 516 519 498 457 c 2,31,-1
 487 413 l 2,32,33
 485 401 485 401 475 401 c 0,34,35
 470 401 470 401 463.5 404 c 128,-1,36
 457 407 457 407 452 408 c 0,37,38
 423 423 423 423 396 431 c 128,-1,39
 369 439 369 439 328 439 c 0,40,41
 258 439 258 439 217 401.5 c 128,-1,42
 176 364 176 364 176 274 c 0,43,44
 176 199 176 199 211.5 158 c 128,-1,45
 247 117 247 117 311 117 c 0,46,47
 356 117 356 117 395 138 c 1,0,-1
EndSplineSet
Validated: 33
EndChar

StartChar: H
Encoding: 72 72 42
Width: 532
GlyphClass: 1
Flags: W
LayerCount: 2
Fore
SplineSet
180 215 m 1,0,-1
 180 13 l 2,1,2
 180 0 180 0 168 0 c 2,3,-1
 59 0 l 2,4,5
 46 0 46 0 46 13 c 2,6,-1
 46 542 l 2,7,8
 46 556 46 556 59 556 c 2,9,-1
 87 556 l 2,10,11
 134 556 134 556 157 533 c 128,-1,12
 180 510 180 510 180 456 c 2,13,-1
 180 339 l 1,14,-1
 350 339 l 1,15,-1
 350 542 l 2,16,17
 350 556 350 556 363 556 c 2,18,-1
 392 556 l 2,19,20
 439 556 439 556 462 533 c 128,-1,21
 485 510 485 510 485 456 c 2,22,-1
 485 13 l 2,23,24
 485 0 485 0 472 0 c 2,25,-1
 363 0 l 2,26,27
 350 0 350 0 350 13 c 2,28,-1
 350 215 l 1,29,-1
 180 215 l 1,0,-1
EndSplineSet
Validated: 1
EndChar

StartChar: I
Encoding: 73 73 43
Width: 227
GlyphClass: 1
Flags: W
LayerCount: 2
Fore
SplineSet
46 13 m 2,0,-1
 46 542 l 2,1,2
 46 556 46 556 59 556 c 2,3,-1
 87 556 l 2,4,5
 134 556 134 556 158 533 c 128,-1,6
 182 510 182 510 182 455 c 2,7,-1
 182 13 l 2,8,9
 182 0 182 0 168 0 c 2,10,-1
 59 0 l 2,11,12
 46 0 46 0 46 13 c 2,0,-1
EndSplineSet
Validated: 1
EndChar

StartChar: J
Encoding: 74 74 44
Width: 322
GlyphClass: 1
Flags: W
LayerCount: 2
Fore
SplineSet
0 104 m 0,0,1
 0 114 0 114 5 121.5 c 128,-1,2
 10 129 10 129 19 129 c 0,3,4
 27 129 27 129 31 126 c 128,-1,5
 35 123 35 123 40 118 c 0,6,7
 60 99 60 99 92 99 c 0,8,9
 143 99 143 99 143 157 c 2,10,-1
 143 542 l 2,11,12
 143 556 143 556 156 556 c 2,13,-1
 184 556 l 2,14,15
 232 556 232 556 255 533 c 128,-1,16
 278 510 278 510 278 456 c 2,17,-1
 278 153 l 2,18,19
 278 74 278 74 241.5 32 c 128,-1,20
 205 -10 205 -10 135 -10 c 0,21,22
 90 -10 90 -10 60 7.5 c 128,-1,23
 30 25 30 25 15 51.5 c 128,-1,24
 0 78 0 78 0 104 c 0,0,1
EndSplineSet
Validated: 1
EndChar

StartChar: K
Encoding: 75 75 45
Width: 517
GlyphClass: 1
Flags: W
LayerCount: 2
Fore
SplineSet
180 181 m 1,0,-1
 180 13 l 2,1,2
 180 0 180 0 168 0 c 2,3,-1
 59 0 l 2,4,5
 46 0 46 0 46 13 c 2,6,-1
 46 542 l 2,7,8
 46 556 46 556 59 556 c 2,9,-1
 87 556 l 2,10,11
 134 556 134 556 157 533 c 128,-1,12
 180 510 180 510 180 456 c 2,13,-1
 180 359 l 1,14,-1
 330 539 l 2,15,16
 343 556 343 556 362 556 c 2,17,-1
 477 556 l 2,18,19
 485 556 485 556 486.5 551.5 c 128,-1,20
 488 547 488 547 484 542 c 2,21,-1
 318 343 l 1,22,-1
 512 14 l 2,23,24
 514 10 514 10 512 5 c 128,-1,25
 510 0 510 0 503 0 c 2,26,-1
 385 0 l 2,27,28
 366 0 366 0 354 16 c 2,29,-1
 225 233 l 1,30,-1
 180 181 l 1,0,-1
EndSplineSet
Validated: 1
EndChar

StartChar: L
Encoding: 76 76 46
Width: 386
GlyphClass: 1
Flags: W
LayerCount: 2
Fore
SplineSet
180 125 m 1,0,-1
 307 125 l 2,1,2
 377 125 377 125 377 59 c 2,3,-1
 377 17 l 2,4,5
 377 0 377 0 360 0 c 2,6,-1
 59 0 l 2,7,8
 46 0 46 0 46 13 c 2,9,-1
 46 542 l 2,10,11
 46 556 46 556 59 556 c 2,12,-1
 87 556 l 2,13,14
 134 556 134 556 157 533 c 128,-1,15
 180 510 180 510 180 456 c 2,16,-1
 180 125 l 1,0,-1
EndSplineSet
Validated: 1
EndChar

StartChar: M
Encoding: 77 77 47
Width: 655
GlyphClass: 1
Flags: W
LayerCount: 2
Fore
SplineSet
180 318 m 1,0,-1
 164 13 l 2,1,2
 164 0 164 0 153 0 c 2,3,-1
 40 0 l 2,4,5
 29 0 29 0 29 13 c 2,6,-1
 60 542 l 2,7,8
 60 547 60 547 63.5 551.5 c 128,-1,9
 67 556 67 556 72 556 c 2,10,-1
 168 556 l 2,11,12
 202 556 202 556 225.5 545.5 c 128,-1,13
 249 535 249 535 257 503 c 2,14,-1
 329 227 l 1,15,-1
 412 542 l 2,16,17
 416 556 416 556 428 556 c 2,18,-1
 522 556 l 2,19,20
 556 556 556 556 578 536.5 c 128,-1,21
 600 517 600 517 601 487 c 2,22,-1
 627 13 l 2,23,24
 627 0 627 0 617 0 c 2,25,-1
 505 0 l 2,26,27
 492 0 492 0 492 13 c 2,28,-1
 477 319 l 1,29,-1
 393 13 l 2,30,31
 390 0 390 0 378 0 c 2,32,-1
 276 0 l 2,33,34
 265 0 265 0 261 13 c 2,35,-1
 180 318 l 1,0,-1
EndSplineSet
Validated: 1
EndChar

StartChar: N
Encoding: 78 78 48
Width: 537
GlyphClass: 1
Flags: W
LayerCount: 2
Fore
SplineSet
182 297 m 1,0,-1
 182 13 l 2,1,2
 182 0 182 0 168 0 c 2,3,-1
 59 0 l 2,4,5
 46 0 46 0 46 13 c 2,6,-1
 46 542 l 2,7,8
 46 556 46 556 59 556 c 2,9,-1
 111 556 l 2,10,11
 147 556 147 556 168.5 544 c 128,-1,12
 190 532 190 532 209 500 c 2,13,-1
 357 261 l 1,14,-1
 357 542 l 2,15,16
 357 556 357 556 370 556 c 2,17,-1
 398 556 l 2,18,19
 446 556 446 556 469 533 c 128,-1,20
 492 510 492 510 492 455 c 2,21,-1
 492 13 l 2,22,23
 492 0 492 0 479 0 c 2,24,-1
 385 0 l 2,25,26
 364 0 364 0 354 18 c 2,27,-1
 182 297 l 1,0,-1
EndSplineSet
Validated: 1
EndChar

StartChar: O
Encoding: 79 79 49
Width: 606
GlyphClass: 1
Flags: W
LayerCount: 2
Fore
SplineSet
303 -9 m 256,0,1
 174 -9 174 -9 104 68 c 128,-1,2
 34 145 34 145 34 277 c 0,3,4
 34 366 34 366 66 430.5 c 128,-1,5
 98 495 98 495 158 530.5 c 128,-1,6
 218 566 218 566 303 566 c 256,7,8
 388 566 388 566 448 530.5 c 128,-1,9
 508 495 508 495 540 430.5 c 128,-1,10
 572 366 572 366 572 277 c 0,11,12
 572 145 572 145 502 68 c 128,-1,13
 432 -9 432 -9 303 -9 c 256,0,1
303 118 m 256,14,15
 359 118 359 118 396.5 153.5 c 128,-1,16
 434 189 434 189 434 277 c 0,17,18
 434 367 434 367 396.5 403 c 128,-1,19
 359 439 359 439 303 439 c 256,20,21
 247 439 247 439 209.5 403 c 128,-1,22
 172 367 172 367 172 277 c 0,23,24
 172 189 172 189 209.5 153.5 c 128,-1,25
 247 118 247 118 303 118 c 256,14,15
EndSplineSet
Validated: 1
Substitution2: "Single Substitution lookup 2 subtable" ordmasculine
EndChar

StartChar: P
Encoding: 80 80 50
Width: 494
GlyphClass: 1
Flags: W
LayerCount: 2
Fore
SplineSet
180 178 m 1,0,-1
 180 13 l 2,1,2
 180 0 180 0 168 0 c 2,3,-1
 59 0 l 2,4,5
 46 0 46 0 46 13 c 2,6,-1
 46 542 l 2,7,8
 46 556 46 556 59 556 c 2,9,-1
 258 556 l 2,10,11
 372 556 372 556 422 505.5 c 128,-1,12
 472 455 472 455 472 372 c 0,13,14
 472 317 472 317 447.5 273 c 128,-1,15
 423 229 423 229 378.5 203.5 c 128,-1,16
 334 178 334 178 273 178 c 2,17,-1
 180 178 l 1,0,-1
180 303 m 1,18,-1
 267 303 l 2,19,20
 283 303 283 303 299.5 307.5 c 128,-1,21
 316 312 316 312 327 326 c 128,-1,22
 338 340 338 340 338 368 c 0,23,24
 338 400 338 400 318 415.5 c 128,-1,25
 298 431 298 431 267 431 c 2,26,-1
 180 431 l 1,27,-1
 180 303 l 1,18,-1
EndSplineSet
Validated: 1
EndChar

StartChar: Q
Encoding: 81 81 51
Width: 606
GlyphClass: 1
Flags: W
LayerCount: 2
Fore
SplineSet
260 -6 m 1,0,1
 151 8 151 8 92.5 82 c 128,-1,2
 34 156 34 156 34 277 c 0,3,4
 34 366 34 366 66 430.5 c 128,-1,5
 98 495 98 495 158 530.5 c 128,-1,6
 218 566 218 566 303 566 c 256,7,8
 388 566 388 566 448 530.5 c 128,-1,9
 508 495 508 495 540 430.5 c 128,-1,10
 572 366 572 366 572 277 c 0,11,12
 572 181 572 181 535.5 113.5 c 128,-1,13
 499 46 499 46 428 15 c 1,14,15
 437 8 437 8 447 4 c 128,-1,16
 457 0 457 0 468 0 c 0,17,18
 497 0 497 0 522 18 c 0,19,20
 527 22 527 22 537 22 c 0,21,22
 550 22 550 22 555.5 12.5 c 128,-1,23
 561 3 561 3 561 -8 c 0,24,25
 561 -32 561 -32 545.5 -56 c 128,-1,26
 530 -80 530 -80 501.5 -96.5 c 128,-1,27
 473 -113 473 -113 433 -113 c 0,28,29
 369 -113 369 -113 329.5 -86 c 128,-1,30
 290 -59 290 -59 260 -6 c 1,0,1
303 118 m 0,31,32
 359 118 359 118 397 153.5 c 128,-1,33
 435 189 435 189 435 277 c 0,34,35
 435 367 435 367 397 403 c 128,-1,36
 359 439 359 439 303 439 c 0,37,38
 248 439 248 439 210 403 c 128,-1,39
 172 367 172 367 172 277 c 0,40,41
 172 189 172 189 210 153.5 c 128,-1,42
 248 118 248 118 303 118 c 0,31,32
EndSplineSet
Validated: 1
EndChar

StartChar: R
Encoding: 82 82 52
Width: 504
GlyphClass: 1
Flags: W
LayerCount: 2
Fore
SplineSet
180 179 m 1,0,-1
 180 13 l 2,1,2
 180 0 180 0 168 0 c 2,3,-1
 59 0 l 2,4,5
 46 0 46 0 46 13 c 2,6,-1
 46 542 l 2,7,8
 46 556 46 556 59 556 c 2,9,-1
 257 556 l 2,10,11
 371 556 371 556 421.5 504.5 c 128,-1,12
 472 453 472 453 472 369 c 0,13,14
 472 312 472 312 445 268 c 128,-1,15
 418 224 418 224 370 200 c 1,16,-1
 482 15 l 2,17,18
 486 9 486 9 483.5 4.5 c 128,-1,19
 481 0 481 0 473 0 c 2,20,-1
 355 0 l 2,21,22
 344 0 344 0 338 2.5 c 128,-1,23
 332 5 332 5 327 15 c 2,24,-1
 237 179 l 1,25,-1
 180 179 l 1,0,-1
180 299 m 1,26,-1
 267 299 l 2,27,28
 283 299 283 299 299.5 304.5 c 128,-1,29
 316 310 316 310 327 324.5 c 128,-1,30
 338 339 338 339 338 367 c 0,31,32
 338 399 338 399 318 415 c 128,-1,33
 298 431 298 431 267 431 c 2,34,-1
 180 431 l 1,35,-1
 180 299 l 1,26,-1
EndSplineSet
Validated: 1
EndChar

StartChar: S
Encoding: 83 83 53
Width: 457
GlyphClass: 1
Flags: W
LayerCount: 2
Fore
SplineSet
10 162 m 0,0,1
 10 173 10 173 15.5 180 c 128,-1,2
 21 187 21 187 28 187 c 0,3,4
 36 187 36 187 40 184 c 128,-1,5
 44 181 44 181 48 177 c 0,6,7
 75 149 75 149 117.5 132 c 128,-1,8
 160 115 160 115 218 115 c 0,9,10
 262 115 262 115 281.5 128.5 c 128,-1,11
 301 142 301 142 301 162 c 0,12,13
 301 181 301 181 281 192.5 c 128,-1,14
 261 204 261 204 230 213.5 c 128,-1,15
 199 223 199 223 164 235.5 c 128,-1,16
 129 248 129 248 98 268 c 128,-1,17
 67 288 67 288 47 320 c 128,-1,18
 27 352 27 352 27 401 c 0,19,20
 27 457 27 457 55 493.5 c 128,-1,21
 83 530 83 530 130 548 c 128,-1,22
 177 566 177 566 233 566 c 0,23,24
 275 566 275 566 308.5 561 c 128,-1,25
 342 556 342 556 373 546 c 0,26,27
 408 533 408 533 416.5 512.5 c 128,-1,28
 425 492 425 492 416 460 c 2,29,-1
 406 424 l 2,30,31
 403 411 403 411 394 411 c 0,32,33
 387 411 387 411 377 416 c 0,34,35
 344 430 344 430 310.5 439 c 128,-1,36
 277 448 277 448 237 448 c 0,37,38
 166 448 166 448 166 408 c 0,39,40
 166 388 166 388 186 376 c 128,-1,41
 206 364 206 364 237 355 c 128,-1,42
 268 346 268 346 303.5 334 c 128,-1,43
 339 322 339 322 370 303 c 128,-1,44
 401 284 401 284 421 252 c 128,-1,45
 441 220 441 220 441 170 c 0,46,47
 441 90 441 90 384.5 40 c 128,-1,48
 328 -10 328 -10 227 -10 c 0,49,50
 155 -10 155 -10 106.5 17 c 128,-1,51
 58 44 58 44 34 84 c 128,-1,52
 10 124 10 124 10 162 c 0,0,1
EndSplineSet
Validated: 33
EndChar

StartChar: T
Encoding: 84 84 54
Width: 462
GlyphClass: 1
Flags: W
LayerCount: 2
Fore
SplineSet
161 431 m 1,0,-1
 18 431 l 2,1,2
 5 431 5 431 5 443 c 2,3,-1
 5 542 l 2,4,5
 5 556 5 556 18 556 c 2,6,-1
 388 556 l 2,7,8
 423 556 423 556 440 538 c 128,-1,9
 457 520 457 520 457 488 c 2,10,-1
 457 448 l 2,11,12
 457 431 457 431 442 431 c 2,13,-1
 296 431 l 1,14,-1
 296 13 l 2,15,16
 296 0 296 0 283 0 c 2,17,-1
 174 0 l 2,18,19
 161 0 161 0 161 13 c 2,20,-1
 161 431 l 1,0,-1
EndSplineSet
Validated: 1
EndChar

StartChar: U
Encoding: 85 85 55
Width: 528
GlyphClass: 1
Flags: W
LayerCount: 2
Fore
SplineSet
43 211 m 2,0,-1
 43 542 l 2,1,2
 43 556 43 556 56 556 c 2,3,-1
 84 556 l 2,4,5
 131 556 131 556 154.5 533 c 128,-1,6
 178 510 178 510 178 455 c 2,7,-1
 178 233 l 2,8,9
 178 181 178 181 197 149 c 128,-1,10
 216 117 216 117 262 117 c 0,11,12
 311 117 311 117 331 148.5 c 128,-1,13
 351 180 351 180 351 232 c 2,14,-1
 351 542 l 2,15,16
 351 556 351 556 364 556 c 2,17,-1
 392 556 l 2,18,19
 439 556 439 556 462.5 533 c 128,-1,20
 486 510 486 510 486 455 c 2,21,-1
 486 211 l 2,22,23
 486 184 486 184 478.5 147 c 128,-1,24
 471 110 471 110 448.5 74 c 128,-1,25
 426 38 426 38 381 14.5 c 128,-1,26
 336 -9 336 -9 262 -9 c 0,27,28
 189 -9 189 -9 145.5 14.5 c 128,-1,29
 102 38 102 38 80 74 c 128,-1,30
 58 110 58 110 50.5 147 c 128,-1,31
 43 184 43 184 43 211 c 2,0,-1
EndSplineSet
Validated: 1
EndChar

StartChar: V
Encoding: 86 86 56
Width: 522
GlyphClass: 1
Flags: W
LayerCount: 2
Fore
SplineSet
268 182 m 1,0,-1
 380 542 l 2,1,2
 385 556 385 556 400 556 c 2,3,-1
 507 556 l 2,4,5
 513 556 513 556 516 551.5 c 128,-1,6
 519 547 519 547 517 542 c 2,7,-1
 340 13 l 2,8,9
 337 0 337 0 325 0 c 2,10,-1
 202 0 l 2,11,12
 189 0 189 0 184 13 c 2,13,-1
 8 542 l 2,14,15
 7 547 7 547 8.5 551.5 c 128,-1,16
 10 556 10 556 16 556 c 2,17,-1
 74 556 l 2,18,19
 116 556 116 556 140 538.5 c 128,-1,20
 164 521 164 521 181 466 c 2,21,-1
 268 182 l 1,0,-1
EndSplineSet
Validated: 1
EndChar

StartChar: W
Encoding: 87 87 57
Width: 754
GlyphClass: 1
Flags: W
LayerCount: 2
Fore
SplineSet
222 197 m 1,0,-1
 298 542 l 2,1,2
 302 556 302 556 313 556 c 2,3,-1
 366 556 l 2,4,5
 410 556 410 556 436 539 c 128,-1,6
 462 522 462 522 473 466 c 2,7,-1
 530 196 l 1,8,-1
 601 542 l 2,9,10
 606 556 606 556 618 556 c 2,11,-1
 733 556 l 2,12,13
 738 556 738 556 740.5 552 c 128,-1,14
 743 548 743 548 741 542 c 2,15,-1
 611 13 l 2,16,17
 608 0 608 0 596 0 c 2,18,-1
 475 0 l 2,19,20
 462 0 462 0 460 13 c 2,21,-1
 375 358 l 1,22,-1
 290 13 l 2,23,24
 287 0 287 0 275 0 c 2,25,-1
 153 0 l 2,26,27
 141 0 141 0 136 13 c 2,28,-1
 13 542 l 2,29,30
 12 547 12 547 14 551.5 c 128,-1,31
 16 556 16 556 23 556 c 2,32,-1
 64 556 l 2,33,34
 107 556 107 556 134 539 c 128,-1,35
 161 522 161 522 171 466 c 2,36,-1
 222 197 l 1,0,-1
EndSplineSet
Validated: 1
EndChar

StartChar: X
Encoding: 88 88 58
Width: 522
GlyphClass: 1
Flags: W
LayerCount: 2
Fore
SplineSet
260 199 m 1,0,-1
 154 13 l 2,1,2
 147 0 147 0 135 0 c 2,3,-1
 13 0 l 2,4,5
 6 0 6 0 4.5 4.5 c 128,-1,6
 3 9 3 9 5 13 c 2,7,-1
 166 291 l 1,8,-1
 18 542 l 2,9,10
 16 546 16 546 17.5 551 c 128,-1,11
 19 556 19 556 25 556 c 2,12,-1
 92 556 l 2,13,14
 121 556 121 556 138.5 551.5 c 128,-1,15
 156 547 156 547 170.5 532 c 128,-1,16
 185 517 185 517 204 483 c 2,17,-1
 258 393 l 1,18,-1
 345 542 l 2,19,20
 349 548 349 548 353.5 552 c 128,-1,21
 358 556 358 556 365 556 c 2,22,-1
 485 556 l 2,23,24
 491 556 491 556 493 551.5 c 128,-1,25
 495 547 495 547 493 542 c 2,26,-1
 351 299 l 1,27,-1
 520 13 l 2,28,29
 523 9 523 9 521 4.5 c 128,-1,30
 519 0 519 0 513 0 c 2,31,-1
 391 0 l 2,32,33
 376 0 376 0 369 13 c 2,34,-1
 260 199 l 1,0,-1
EndSplineSet
Validated: 1
EndChar

StartChar: Y
Encoding: 89 89 59
Width: 501
GlyphClass: 1
Flags: W
LayerCount: 2
Fore
SplineSet
183 203 m 1,0,-1
 3 542 l 2,1,2
 1 547 1 547 2.5 551.5 c 128,-1,3
 4 556 4 556 11 556 c 2,4,-1
 81 556 l 2,5,6
 116 556 116 556 139.5 542 c 128,-1,7
 163 528 163 528 180 495 c 2,8,-1
 256 346 l 1,9,-1
 354 542 l 2,10,11
 361 556 361 556 374 556 c 2,12,-1
 492 556 l 2,13,14
 499 556 499 556 500.5 551.5 c 128,-1,15
 502 547 502 547 500 542 c 2,16,-1
 318 199 l 1,17,-1
 318 13 l 2,18,19
 318 0 318 0 305 0 c 2,20,-1
 196 0 l 2,21,22
 183 0 183 0 183 13 c 2,23,-1
 183 203 l 1,0,-1
EndSplineSet
Validated: 1
EndChar

StartChar: Z
Encoding: 90 90 60
Width: 459
GlyphClass: 1
Flags: W
LayerCount: 2
Fore
SplineSet
199 125 m 1,0,-1
 366 125 l 2,1,2
 436 125 436 125 436 59 c 2,3,-1
 436 17 l 2,4,5
 436 0 436 0 420 0 c 2,6,-1
 40 0 l 2,7,8
 27 0 27 0 27 13 c 2,9,-1
 27 94 l 2,10,11
 27 116 27 116 42 136 c 2,12,-1
 258 430 l 1,13,-1
 46 430 l 2,14,15
 33 430 33 430 33 443 c 2,16,-1
 33 542 l 2,17,18
 33 556 33 556 46 556 c 2,19,-1
 366 556 l 2,20,21
 436 556 436 556 436 489 c 2,22,-1
 436 467 l 2,23,24
 436 449 436 449 421 429 c 2,25,-1
 199 125 l 1,0,-1
EndSplineSet
Validated: 1
EndChar

StartChar: bracketleft
Encoding: 91 91 61
Width: 313
GlyphClass: 1
Flags: W
LayerCount: 2
Fore
SplineSet
242 -144 m 2,0,-1
 123 -144 l 2,1,2
 86 -144 86 -144 65 -124.5 c 128,-1,3
 44 -105 44 -105 44 -68 c 2,4,-1
 44 620 l 2,5,6
 44 656 44 656 65 676 c 128,-1,7
 86 696 86 696 123 696 c 2,8,-1
 242 696 l 2,9,10
 253 696 253 696 260.5 688.5 c 128,-1,11
 268 681 268 681 268 670 c 2,12,-1
 268 661 l 2,13,14
 268 624 268 624 247 604.5 c 128,-1,15
 226 585 226 585 188 585 c 2,16,-1
 167 585 l 2,17,18
 162 585 162 585 162 581 c 2,19,-1
 162 -29 l 2,20,21
 162 -33 162 -33 167 -33 c 2,22,-1
 188 -33 l 2,23,24
 226 -33 226 -33 247 -53 c 128,-1,25
 268 -73 268 -73 268 -109 c 2,26,-1
 268 -118 l 2,27,28
 268 -129 268 -129 260.5 -136.5 c 128,-1,29
 253 -144 253 -144 242 -144 c 2,0,-1
EndSplineSet
Validated: 1
PairPos2: "'kern' Horizontal Kerning lookup 2 per glyph data 1" uni0632 dx=16 dy=0 dh=16 dv=0 dx=0 dy=0 dh=0 dv=0
EndChar

StartChar: backslash
Encoding: 92 92 62
Width: 358
GlyphClass: 1
Flags: W
LayerCount: 2
Fore
SplineSet
229 13 m 2,0,-1
 5 542 l 2,1,2
 4 547 4 547 5.5 551.5 c 128,-1,3
 7 556 7 556 14 556 c 2,4,-1
 55 556 l 2,5,6
 104 556 104 556 123 537 c 128,-1,7
 142 518 142 518 156 484 c 2,8,-1
 356 13 l 2,9,10
 358 9 358 9 356.5 4.5 c 128,-1,11
 355 0 355 0 348 0 c 2,12,-1
 249 0 l 2,13,14
 235 0 235 0 229 13 c 2,0,-1
EndSplineSet
Validated: 1
EndChar

StartChar: bracketright
Encoding: 93 93 63
Width: 313
GlyphClass: 1
Flags: W
LayerCount: 2
Fore
SplineSet
189 -144 m 2,0,-1
 70 -144 l 2,1,2
 59 -144 59 -144 51.5 -136.5 c 128,-1,3
 44 -129 44 -129 44 -118 c 2,4,-1
 44 -109 l 2,5,6
 44 -73 44 -73 65 -53 c 128,-1,7
 86 -33 86 -33 123 -33 c 2,8,-1
 145 -33 l 2,9,10
 150 -33 150 -33 150 -29 c 2,11,-1
 150 581 l 2,12,13
 150 585 150 585 145 585 c 2,14,-1
 123 585 l 2,15,16
 86 585 86 585 65 604.5 c 128,-1,17
 44 624 44 624 44 661 c 2,18,-1
 44 670 l 2,19,20
 44 681 44 681 51.5 688.5 c 128,-1,21
 59 696 59 696 70 696 c 2,22,-1
 189 696 l 2,23,24
 227 696 227 696 247.5 676 c 128,-1,25
 268 656 268 656 268 620 c 2,26,-1
 268 -68 l 2,27,28
 268 -105 268 -105 247.5 -124.5 c 128,-1,29
 227 -144 227 -144 189 -144 c 2,0,-1
EndSplineSet
Validated: 1
PairPos2: "'kern' Horizontal Kerning lookup 2 per glyph data 1" uni0698 dx=-39 dy=0 dh=-39 dv=0 dx=0 dy=0 dh=0 dv=0
PairPos2: "'kern' Horizontal Kerning lookup 2 per glyph data 1" uni0695 dx=-39 dy=0 dh=-39 dv=0 dx=0 dy=0 dh=0 dv=0
PairPos2: "'kern' Horizontal Kerning lookup 2 per glyph data 1" uni0694 dx=-39 dy=0 dh=-39 dv=0 dx=0 dy=0 dh=0 dv=0
PairPos2: "'kern' Horizontal Kerning lookup 2 per glyph data 1" uni0691 dx=-22 dy=0 dh=-22 dv=0 dx=0 dy=0 dh=0 dv=0
PairPos2: "'kern' Horizontal Kerning lookup 2 per glyph data 1" uni0632 dx=-39 dy=0 dh=-39 dv=0 dx=0 dy=0 dh=0 dv=0
PairPos2: "'kern' Horizontal Kerning lookup 2 per glyph data 1" uni0631 dx=-39 dy=0 dh=-39 dv=0 dx=0 dy=0 dh=0 dv=0
EndChar

StartChar: asciicircum
Encoding: 94 94 64
Width: 449
GlyphClass: 1
Flags: W
LayerCount: 2
Fore
SplineSet
227 417 m 1,0,-1
 152 274 l 2,1,2
 145 259 145 259 132 259 c 2,3,-1
 33 259 l 2,4,5
 27 259 27 259 24.5 264 c 128,-1,6
 22 269 22 269 24 273 c 2,7,-1
 172 542 l 2,8,9
 180 556 180 556 195 556 c 2,10,-1
 210 556 l 2,11,12
 243 556 243 556 262.5 544.5 c 128,-1,13
 282 533 282 533 297 504 c 2,14,-1
 429 273 l 2,15,16
 431 269 431 269 428.5 264 c 128,-1,17
 426 259 426 259 420 259 c 2,18,-1
 320 259 l 2,19,20
 307 259 307 259 299 274 c 2,21,-1
 227 417 l 1,0,-1
EndSplineSet
Validated: 1
EndChar

StartChar: underscore
Encoding: 95 95 65
Width: 474
GlyphClass: 1
Flags: W
LayerCount: 2
Fore
SplineSet
7 -199 m 2,0,1
 -6 -199 -6 -199 -6 -186 c 2,2,-1
 -6 -94 l 2,3,4
 -6 -82 -6 -82 7 -82 c 2,5,-1
 467 -82 l 2,6,7
 481 -82 481 -82 481 -94 c 2,8,-1
 481 -186 l 2,9,10
 481 -199 481 -199 467 -199 c 2,11,-1
 7 -199 l 2,0,1
EndSplineSet
Validated: 1
EndChar

StartChar: grave
Encoding: 96 96 66
Width: 259
GlyphClass: 1
Flags: W
LayerCount: 2
Fore
SplineSet
7 528 m 2,0,1
 2 532 2 532 3.5 537.5 c 128,-1,2
 5 543 5 543 12 543 c 2,3,-1
 127 543 l 2,4,5
 145 543 145 543 157 532 c 2,6,-1
 257 441 l 2,7,8
 262 437 262 437 260 431.5 c 128,-1,9
 258 426 258 426 251 426 c 2,10,-1
 149 426 l 2,11,12
 126 426 126 426 113 438 c 2,13,-1
 7 528 l 2,0,1
EndSplineSet
Validated: 1
EndChar

StartChar: a
Encoding: 97 97 67
Width: 464
GlyphClass: 1
Flags: W
LayerCount: 2
Fore
SplineSet
297 28 m 1,0,1
 279 12 279 12 255.5 2 c 128,-1,2
 232 -8 232 -8 201 -8 c 0,3,4
 143 -8 143 -8 103.5 19.5 c 128,-1,5
 64 47 64 47 44 93.5 c 128,-1,6
 24 140 24 140 24 196 c 0,7,8
 24 253 24 253 45.5 298.5 c 128,-1,9
 67 344 67 344 107.5 370.5 c 128,-1,10
 148 397 148 397 203 397 c 0,11,12
 277 397 277 397 318 353 c 1,13,14
 329 371 329 371 350 378.5 c 128,-1,15
 371 386 371 386 400 386 c 2,16,-1
 417 386 l 2,17,18
 430 386 430 386 430 373 c 2,19,-1
 430 13 l 2,20,21
 430 0 430 0 417 0 c 2,22,-1
 310 0 l 2,23,24
 297 0 297 0 297 13 c 2,25,-1
 297 28 l 1,0,1
231 114 m 256,26,27
 242 114 242 114 257.5 119.5 c 128,-1,28
 273 125 273 125 285 142.5 c 128,-1,29
 297 160 297 160 297 195 c 256,30,31
 297 230 297 230 285 246 c 128,-1,32
 273 262 273 262 257.5 267 c 128,-1,33
 242 272 242 272 231 272 c 0,34,35
 221 272 221 272 204 267 c 128,-1,36
 187 262 187 262 174 246 c 128,-1,37
 161 230 161 230 161 195 c 256,38,39
 161 160 161 160 174 142.5 c 128,-1,40
 187 125 187 125 203.5 119.5 c 128,-1,41
 220 114 220 114 231 114 c 256,26,27
EndSplineSet
Validated: 1
Substitution2: "Single Substitution lookup 2 subtable" ordfeminine
EndChar

StartChar: b
Encoding: 98 98 68
Width: 464
GlyphClass: 1
Flags: W
LayerCount: 2
Fore
SplineSet
168 33 m 1,0,-1
 168 13 l 2,1,2
 168 0 168 0 155 0 c 2,3,-1
 49 0 l 2,4,5
 36 0 36 0 36 13 c 2,6,-1
 36 542 l 2,7,8
 36 556 36 556 49 556 c 2,9,-1
 72 556 l 2,10,11
 119 556 119 556 143.5 533.5 c 128,-1,12
 168 511 168 511 168 458 c 2,13,-1
 168 357 l 1,14,15
 185 375 185 375 210.5 386.5 c 128,-1,16
 236 398 236 398 268 398 c 0,17,18
 347 398 347 398 394.5 343 c 128,-1,19
 442 288 442 288 442 196 c 0,20,21
 442 140 442 140 422 93.5 c 128,-1,22
 402 47 402 47 363.5 19.5 c 128,-1,23
 325 -8 325 -8 269 -8 c 0,24,25
 235 -8 235 -8 210 3 c 128,-1,26
 185 14 185 14 168 33 c 1,0,-1
235 114 m 0,27,28
 247 114 247 114 263 119.5 c 128,-1,29
 279 125 279 125 291.5 142.5 c 128,-1,30
 304 160 304 160 304 195 c 256,31,32
 304 230 304 230 291.5 246.5 c 128,-1,33
 279 263 279 263 262.5 268 c 128,-1,34
 246 273 246 273 235 273 c 256,35,36
 224 273 224 273 208 268 c 128,-1,37
 192 263 192 263 180 246.5 c 128,-1,38
 168 230 168 230 168 195 c 256,39,40
 168 160 168 160 180 142.5 c 128,-1,41
 192 125 192 125 208 119.5 c 128,-1,42
 224 114 224 114 235 114 c 0,27,28
EndSplineSet
Validated: 1
EndChar

StartChar: c
Encoding: 99 99 69
Width: 364
GlyphClass: 1
Flags: W
LayerCount: 2
Fore
SplineSet
212 -9 m 0,0,1
 127 -9 127 -9 75.5 44.5 c 128,-1,2
 24 98 24 98 24 194 c 0,3,4
 24 289 24 289 79.5 343 c 128,-1,5
 135 397 135 397 224 397 c 0,6,7
 248 397 248 397 268.5 393.5 c 128,-1,8
 289 390 289 390 306 384 c 0,9,10
 336 374 336 374 344.5 354 c 128,-1,11
 353 334 353 334 345 299 c 2,12,-1
 335 261 l 2,13,14
 331 251 331 251 326 251 c 0,15,16
 323 251 323 251 315 254 c 0,17,18
 293 265 293 265 275.5 269.5 c 128,-1,19
 258 274 258 274 233 274 c 0,20,21
 205 274 205 274 183 254.5 c 128,-1,22
 161 235 161 235 161 191 c 0,23,24
 161 152 161 152 181.5 128 c 128,-1,25
 202 104 202 104 244 104 c 0,26,27
 273 104 273 104 293.5 112.5 c 128,-1,28
 314 121 314 121 325 129 c 0,29,30
 335 136 335 136 342 136 c 0,31,32
 350 136 350 136 353.5 130 c 128,-1,33
 357 124 357 124 357 117 c 0,34,35
 357 62 357 62 316.5 26.5 c 128,-1,36
 276 -9 276 -9 212 -9 c 0,0,1
EndSplineSet
Validated: 33
EndChar

StartChar: d
Encoding: 100 100 70
Width: 464
GlyphClass: 1
Flags: W
LayerCount: 2
Fore
SplineSet
297 363 m 1,0,-1
 297 542 l 2,1,2
 297 556 297 556 310 556 c 2,3,-1
 333 556 l 2,4,5
 381 556 381 556 405.5 533.5 c 128,-1,6
 430 511 430 511 430 458 c 2,7,-1
 430 13 l 2,8,9
 430 0 430 0 417 0 c 2,10,-1
 310 0 l 2,11,12
 297 0 297 0 297 13 c 2,13,-1
 297 31 l 1,14,15
 258 -8 258 -8 194 -8 c 0,16,17
 141 -8 141 -8 102.5 20.5 c 128,-1,18
 64 49 64 49 44 95.5 c 128,-1,19
 24 142 24 142 24 196 c 0,20,21
 24 251 24 251 45.5 297 c 128,-1,22
 67 343 67 343 107 370.5 c 128,-1,23
 147 398 147 398 203 398 c 0,24,25
 236 398 236 398 259.5 388 c 128,-1,26
 283 378 283 378 297 363 c 1,0,-1
231 114 m 256,27,28
 242 114 242 114 257.5 119.5 c 128,-1,29
 273 125 273 125 285 142.5 c 128,-1,30
 297 160 297 160 297 195 c 256,31,32
 297 230 297 230 285 246.5 c 128,-1,33
 273 263 273 263 257.5 268 c 128,-1,34
 242 273 242 273 231 273 c 0,35,36
 221 273 221 273 204 268 c 128,-1,37
 187 263 187 263 174 246.5 c 128,-1,38
 161 230 161 230 161 195 c 256,39,40
 161 160 161 160 173.5 142.5 c 128,-1,41
 186 125 186 125 203 119.5 c 128,-1,42
 220 114 220 114 231 114 c 256,27,28
EndSplineSet
Validated: 1
EndChar

StartChar: e
Encoding: 101 101 71
Width: 422
GlyphClass: 1
Flags: W
LayerCount: 2
Fore
SplineSet
159 152 m 1,0,1
 164 127 164 127 186.5 110.5 c 128,-1,2
 209 94 209 94 246 94 c 0,3,4
 284 94 284 94 308.5 102 c 128,-1,5
 333 110 333 110 363 123 c 0,6,7
 373 128 373 128 380 128 c 0,8,9
 392 128 392 128 392 113 c 0,10,11
 392 90 392 90 376.5 61 c 128,-1,12
 361 32 361 32 324.5 11 c 128,-1,13
 288 -10 288 -10 224 -10 c 0,14,15
 133 -10 133 -10 78.5 44.5 c 128,-1,16
 24 99 24 99 24 193 c 0,17,18
 24 251 24 251 47.5 297 c 128,-1,19
 71 343 71 343 115 370 c 128,-1,20
 159 397 159 397 220 397 c 0,21,22
 283 397 283 397 322.5 371.5 c 128,-1,23
 362 346 362 346 381 306 c 128,-1,24
 400 266 400 266 400 222 c 0,25,26
 400 203 400 203 399 189.5 c 128,-1,27
 398 176 398 176 398 167 c 0,28,29
 397 152 397 152 379 152 c 2,30,-1
 159 152 l 1,0,1
158 237 m 1,31,-1
 270 237 l 1,32,33
 272 255 272 255 260.5 273 c 128,-1,34
 249 291 249 291 216 291 c 0,35,36
 187 291 187 291 173 273.5 c 128,-1,37
 159 256 159 256 158 237 c 1,31,-1
EndSplineSet
Validated: 33
EndChar

StartChar: f
Encoding: 102 102 72
Width: 326
GlyphClass: 1
Flags: W
LayerCount: 2
Fore
SplineSet
69 269 m 1,0,-1
 18 269 l 2,1,2
 5 269 5 269 5 282 c 2,3,-1
 5 373 l 2,4,5
 5 386 5 386 18 386 c 2,6,-1
 69 386 l 1,7,-1
 69 402 l 2,8,9
 69 484 69 484 103.5 522.5 c 128,-1,10
 138 561 138 561 196 561 c 0,11,12
 234 561 234 561 261 544 c 128,-1,13
 288 527 288 527 302 502 c 128,-1,14
 316 477 316 477 316 452 c 0,15,16
 316 444 316 444 312.5 437.5 c 128,-1,17
 309 431 309 431 301 431 c 0,18,19
 297 431 297 431 294.5 432 c 128,-1,20
 292 433 292 433 290 434 c 0,21,22
 274 441 274 441 263 445 c 128,-1,23
 252 449 252 449 238 449 c 0,24,25
 216 449 216 449 209 436.5 c 128,-1,26
 202 424 202 424 202 392 c 2,27,-1
 202 386 l 1,28,-1
 292 386 l 2,29,30
 305 386 305 386 305 373 c 2,31,-1
 305 282 l 2,32,33
 305 269 305 269 292 269 c 2,34,-1
 202 269 l 1,35,-1
 202 13 l 2,36,37
 202 0 202 0 189 0 c 2,38,-1
 82 0 l 2,39,40
 69 0 69 0 69 13 c 2,41,-1
 69 269 l 1,0,-1
EndSplineSet
Validated: 1
EndChar

StartChar: g
Encoding: 103 103 73
Width: 464
GlyphClass: 1
Flags: W
LayerCount: 2
Fore
SplineSet
71 -10 m 0,0,1
 88 -23 88 -23 118.5 -38 c 128,-1,2
 149 -53 149 -53 193 -53 c 0,3,4
 251 -53 251 -53 274 -32.5 c 128,-1,5
 297 -12 297 -12 297 20 c 2,6,-1
 297 36 l 1,7,8
 279 20 279 20 255 10 c 128,-1,9
 231 0 231 0 201 0 c 0,10,11
 143 0 143 0 103.5 25.5 c 128,-1,12
 64 51 64 51 44 95.5 c 128,-1,13
 24 140 24 140 24 196 c 256,14,15
 24 252 24 252 45.5 298 c 128,-1,16
 67 344 67 344 107.5 371 c 128,-1,17
 148 398 148 398 203 398 c 0,18,19
 243 398 243 398 271 385.5 c 128,-1,20
 299 373 299 373 318 356 c 1,21,22
 341 386 341 386 397 386 c 2,23,-1
 417 386 l 2,24,25
 430 386 430 386 430 373 c 2,26,-1
 430 21 l 2,27,28
 430 -66 430 -66 380 -118.5 c 128,-1,29
 330 -171 330 -171 229 -171 c 0,30,31
 173 -171 173 -171 131 -149 c 128,-1,32
 89 -127 89 -127 66 -93.5 c 128,-1,33
 43 -60 43 -60 43 -26 c 0,34,35
 43 -16 43 -16 46.5 -9.5 c 128,-1,36
 50 -3 50 -3 57 -3 c 0,37,38
 61 -3 61 -3 64 -5.5 c 128,-1,39
 67 -8 67 -8 71 -10 c 0,0,1
231 114 m 256,40,41
 242 114 242 114 257.5 119.5 c 128,-1,42
 273 125 273 125 285 142.5 c 128,-1,43
 297 160 297 160 297 195 c 256,44,45
 297 230 297 230 285 246.5 c 128,-1,46
 273 263 273 263 257.5 268 c 128,-1,47
 242 273 242 273 231 273 c 0,48,49
 221 273 221 273 204 268 c 128,-1,50
 187 263 187 263 174 246.5 c 128,-1,51
 161 230 161 230 161 195 c 256,52,53
 161 160 161 160 173.5 142.5 c 128,-1,54
 186 125 186 125 203 119.5 c 128,-1,55
 220 114 220 114 231 114 c 256,40,41
EndSplineSet
Validated: 1
EndChar

StartChar: h
Encoding: 104 104 74
Width: 446
GlyphClass: 1
Flags: W
LayerCount: 2
Fore
SplineSet
168 363 m 1,0,1
 201 396 201 396 258 396 c 0,2,3
 325 396 325 396 368.5 353.5 c 128,-1,4
 412 311 412 311 412 222 c 2,5,-1
 412 13 l 2,6,7
 412 0 412 0 398 0 c 2,8,-1
 292 0 l 2,9,10
 279 0 279 0 279 13 c 2,11,-1
 279 201 l 2,12,13
 279 243 279 243 263 259.5 c 128,-1,14
 247 276 247 276 224 276 c 0,15,16
 199 276 199 276 183.5 258.5 c 128,-1,17
 168 241 168 241 168 207 c 2,18,-1
 168 13 l 2,19,20
 168 0 168 0 155 0 c 2,21,-1
 49 0 l 2,22,23
 36 0 36 0 36 13 c 2,24,-1
 36 542 l 2,25,26
 36 556 36 556 49 556 c 2,27,-1
 72 556 l 2,28,29
 119 556 119 556 143.5 533.5 c 128,-1,30
 168 511 168 511 168 458 c 2,31,-1
 168 363 l 1,0,1
EndSplineSet
Validated: 1
EndChar

StartChar: i
Encoding: 105 105 75
Width: 204
GlyphClass: 1
Flags: W
LayerCount: 2
Fore
SplineSet
27 484 m 0,0,1
 27 513 27 513 48 534.5 c 128,-1,2
 69 556 69 556 99 556 c 256,3,4
 129 556 129 556 149.5 534.5 c 128,-1,5
 170 513 170 513 170 484 c 0,6,7
 170 454 170 454 149.5 433 c 128,-1,8
 129 412 129 412 99 412 c 256,9,10
 69 412 69 412 48 433 c 128,-1,11
 27 454 27 454 27 484 c 0,0,1
35 13 m 2,12,-1
 35 373 l 2,13,14
 35 386 35 386 48 386 c 2,15,-1
 71 386 l 2,16,17
 119 386 119 386 143.5 363.5 c 128,-1,18
 168 341 168 341 168 288 c 2,19,-1
 168 13 l 2,20,21
 168 0 168 0 154 0 c 2,22,-1
 48 0 l 2,23,24
 35 0 35 0 35 13 c 2,12,-1
EndSplineSet
Validated: 1
EndChar

StartChar: j
Encoding: 106 106 76
Width: 204
GlyphClass: 1
Flags: W
LayerCount: 2
Fore
SplineSet
27 483 m 0,0,1
 27 513 27 513 48 534.5 c 128,-1,2
 69 556 69 556 98 556 c 0,3,4
 128 556 128 556 149 534.5 c 128,-1,5
 170 513 170 513 170 483 c 0,6,7
 170 454 170 454 149 433.5 c 128,-1,8
 128 413 128 413 98 413 c 0,9,10
 69 413 69 413 48 433.5 c 128,-1,11
 27 454 27 454 27 483 c 0,0,1
-81 -61 m 0,12,13
 -81 -53 -81 -53 -78 -44.5 c 128,-1,14
 -75 -36 -75 -36 -68 -36 c 0,15,16
 -64 -36 -64 -36 -61.5 -37 c 128,-1,17
 -59 -38 -59 -38 -56 -40 c 0,18,19
 -45 -47 -45 -47 -31.5 -51.5 c 128,-1,20
 -18 -56 -18 -56 -5 -56 c 0,21,22
 18 -56 18 -56 26.5 -42.5 c 128,-1,23
 35 -29 35 -29 35 3 c 2,24,-1
 35 373 l 2,25,26
 35 386 35 386 48 386 c 2,27,-1
 71 386 l 2,28,29
 118 386 118 386 142.5 363.5 c 128,-1,30
 167 341 167 341 167 288 c 2,31,-1
 167 -17 l 2,32,33
 167 -96 167 -96 131 -133.5 c 128,-1,34
 95 -171 95 -171 39 -171 c 0,35,36
 -1 -171 -1 -171 -27.5 -153.5 c 128,-1,37
 -54 -136 -54 -136 -67.5 -110.5 c 128,-1,38
 -81 -85 -81 -85 -81 -61 c 0,12,13
EndSplineSet
Validated: 1
EndChar

StartChar: k
Encoding: 107 107 77
Width: 416
GlyphClass: 1
Flags: W
LayerCount: 2
Fore
SplineSet
168 116 m 1,0,-1
 168 13 l 2,1,2
 168 0 168 0 155 0 c 2,3,-1
 49 0 l 2,4,5
 36 0 36 0 36 13 c 2,6,-1
 36 542 l 2,7,8
 36 556 36 556 49 556 c 2,9,-1
 72 556 l 2,10,11
 119 556 119 556 143.5 533.5 c 128,-1,12
 168 511 168 511 168 458 c 2,13,-1
 168 283 l 1,14,-1
 247 373 l 2,15,16
 257 386 257 386 270 386 c 2,17,-1
 394 386 l 2,18,19
 400 386 400 386 401.5 381.5 c 128,-1,20
 403 377 403 377 399 373 c 2,21,-1
 282 243 l 1,22,-1
 410 13 l 2,23,24
 412 9 412 9 410 4.5 c 128,-1,25
 408 0 408 0 403 0 c 2,26,-1
 283 0 l 2,27,28
 266 0 266 0 259 13 c 2,29,-1
 192 142 l 1,30,-1
 168 116 l 1,0,-1
EndSplineSet
Validated: 1
EndChar

StartChar: l
Encoding: 108 108 78
Width: 261
GlyphClass: 1
Flags: W
LayerCount: 2
Fore
SplineSet
153 -8 m 0,0,1
 101 -8 101 -8 68.5 25.5 c 128,-1,2
 36 59 36 59 36 129 c 2,3,-1
 36 542 l 2,4,5
 36 556 36 556 49 556 c 2,6,-1
 72 556 l 2,7,8
 119 556 119 556 143.5 533.5 c 128,-1,9
 168 511 168 511 168 458 c 2,10,-1
 168 144 l 2,11,12
 168 119 168 119 176.5 111 c 128,-1,13
 185 103 185 103 200 103 c 0,14,15
 211 103 211 103 221 108 c 128,-1,16
 231 113 231 113 240 120 c 0,17,18
 242 122 242 122 245.5 123.5 c 128,-1,19
 249 125 249 125 253 125 c 0,20,21
 260 125 260 125 262.5 118 c 128,-1,22
 265 111 265 111 265 106 c 0,23,24
 265 80 265 80 254 53.5 c 128,-1,25
 243 27 243 27 218.5 9.5 c 128,-1,26
 194 -8 194 -8 153 -8 c 0,0,1
EndSplineSet
Validated: 1
EndChar

StartChar: m
Encoding: 109 109 79
Width: 674
GlyphClass: 1
Flags: W
LayerCount: 2
Fore
SplineSet
150 349 m 1,0,1
 169 369 169 369 194.5 382.5 c 128,-1,2
 220 396 220 396 253 396 c 0,3,4
 338 396 338 396 372 331 c 1,5,6
 392 358 392 358 422 377 c 128,-1,7
 452 396 452 396 494 396 c 0,8,9
 565 396 565 396 603 353.5 c 128,-1,10
 641 311 641 311 641 222 c 2,11,-1
 641 13 l 2,12,13
 641 0 641 0 628 0 c 2,14,-1
 523 0 l 2,15,16
 509 0 509 0 509 13 c 2,17,-1
 509 205 l 2,18,19
 509 245 509 245 494.5 260.5 c 128,-1,20
 480 276 480 276 457 276 c 0,21,22
 433 276 433 276 418.5 258.5 c 128,-1,23
 404 241 404 241 404 203 c 2,24,-1
 404 13 l 2,25,26
 404 0 404 0 392 0 c 2,27,-1
 284 0 l 2,28,29
 273 0 273 0 273 13 c 2,30,-1
 273 205 l 2,31,32
 273 245 273 245 259 260.5 c 128,-1,33
 245 276 245 276 220 276 c 0,34,35
 196 276 196 276 182 258.5 c 128,-1,36
 168 241 168 241 168 203 c 2,37,-1
 168 13 l 2,38,39
 168 0 168 0 155 0 c 2,40,-1
 49 0 l 2,41,42
 36 0 36 0 36 13 c 2,43,-1
 36 373 l 2,44,45
 36 386 36 386 49 386 c 2,46,-1
 67 386 l 2,47,48
 97 386 97 386 118 377.5 c 128,-1,49
 139 369 139 369 150 349 c 1,0,1
EndSplineSet
Validated: 1
EndChar

StartChar: n
Encoding: 110 110 80
Width: 446
GlyphClass: 1
Flags: W
LayerCount: 2
Fore
SplineSet
152 349 m 1,0,1
 170 368 170 368 196.5 382 c 128,-1,2
 223 396 223 396 253 396 c 0,3,4
 325 396 325 396 368.5 353.5 c 128,-1,5
 412 311 412 311 412 222 c 2,6,-1
 412 13 l 2,7,8
 412 0 412 0 398 0 c 2,9,-1
 292 0 l 2,10,11
 279 0 279 0 279 13 c 2,12,-1
 279 202 l 2,13,14
 279 244 279 244 262.5 259.5 c 128,-1,15
 246 275 246 275 224 275 c 0,16,17
 199 275 199 275 183.5 257.5 c 128,-1,18
 168 240 168 240 168 207 c 2,19,-1
 168 13 l 2,20,21
 168 0 168 0 155 0 c 2,22,-1
 49 0 l 2,23,24
 36 0 36 0 36 13 c 2,25,-1
 36 373 l 2,26,27
 36 386 36 386 49 386 c 2,28,-1
 69 386 l 2,29,30
 98 386 98 386 119.5 377.5 c 128,-1,31
 141 369 141 369 152 349 c 1,0,1
EndSplineSet
Validated: 1
EndChar

StartChar: o
Encoding: 111 111 81
Width: 452
GlyphClass: 1
Flags: W
LayerCount: 2
Fore
SplineSet
227 -9 m 0,0,1
 133 -9 133 -9 78.5 47.5 c 128,-1,2
 24 104 24 104 24 195 c 0,3,4
 24 287 24 287 78 342 c 128,-1,5
 132 397 132 397 225 397 c 256,6,7
 318 397 318 397 372.5 341.5 c 128,-1,8
 427 286 427 286 427 194 c 0,9,10
 427 103 427 103 373.5 47 c 128,-1,11
 320 -9 320 -9 227 -9 c 0,0,1
225 109 m 0,12,13
 254 109 254 109 273 128 c 128,-1,14
 292 147 292 147 292 193 c 0,15,16
 292 240 292 240 272.5 259 c 128,-1,17
 253 278 253 278 226 278 c 0,18,19
 198 278 198 278 178.5 259 c 128,-1,20
 159 240 159 240 159 193 c 0,21,22
 159 147 159 147 178 128 c 128,-1,23
 197 109 197 109 225 109 c 0,12,13
EndSplineSet
Validated: 1
Substitution2: "Single Substitution lookup 2 subtable" ordmasculine
EndChar

StartChar: p
Encoding: 112 112 82
Width: 464
GlyphClass: 1
Flags: W
LayerCount: 2
Fore
SplineSet
168 27 m 1,0,-1
 168 -147 l 2,1,2
 168 -160 168 -160 155 -160 c 2,3,-1
 49 -160 l 2,4,5
 36 -160 36 -160 36 -147 c 2,6,-1
 36 373 l 2,7,8
 36 386 36 386 49 386 c 2,9,-1
 67 386 l 2,10,11
 95 386 95 386 116 378 c 128,-1,12
 137 370 137 370 149 352 c 1,13,14
 166 368 166 368 192.5 382.5 c 128,-1,15
 219 397 219 397 260 397 c 0,16,17
 322 397 322 397 362 370 c 128,-1,18
 402 343 402 343 422 297.5 c 128,-1,19
 442 252 442 252 442 196 c 256,20,21
 442 140 442 140 422 93.5 c 128,-1,22
 402 47 402 47 362.5 19.5 c 128,-1,23
 323 -8 323 -8 264 -8 c 0,24,25
 236 -8 236 -8 210 1.5 c 128,-1,26
 184 11 184 11 168 27 c 1,0,-1
235 114 m 0,27,28
 247 114 247 114 263 119.5 c 128,-1,29
 279 125 279 125 291.5 142.5 c 128,-1,30
 304 160 304 160 304 195 c 256,31,32
 304 230 304 230 291.5 246.5 c 128,-1,33
 279 263 279 263 262.5 268 c 128,-1,34
 246 273 246 273 235 273 c 256,35,36
 224 273 224 273 208 268 c 128,-1,37
 192 263 192 263 180 246.5 c 128,-1,38
 168 230 168 230 168 195 c 256,39,40
 168 160 168 160 180 142.5 c 128,-1,41
 192 125 192 125 208 119.5 c 128,-1,42
 224 114 224 114 235 114 c 0,27,28
EndSplineSet
Validated: 1
EndChar

StartChar: q
Encoding: 113 113 83
Width: 464
GlyphClass: 1
Flags: W
LayerCount: 2
Fore
SplineSet
297 25 m 1,0,1
 258 -8 258 -8 201 -8 c 0,2,3
 143 -8 143 -8 103.5 19.5 c 128,-1,4
 64 47 64 47 44 93.5 c 128,-1,5
 24 140 24 140 24 196 c 256,6,7
 24 252 24 252 45.5 298 c 128,-1,8
 67 344 67 344 107.5 371 c 128,-1,9
 148 398 148 398 203 398 c 0,10,11
 244 398 244 398 272 384.5 c 128,-1,12
 300 371 300 371 319 354 c 1,13,14
 330 371 330 371 350 378.5 c 128,-1,15
 370 386 370 386 398 386 c 2,16,-1
 417 386 l 2,17,18
 430 386 430 386 430 373 c 2,19,-1
 430 -147 l 2,20,21
 430 -160 430 -160 417 -160 c 2,22,-1
 310 -160 l 2,23,24
 297 -160 297 -160 297 -147 c 2,25,-1
 297 25 l 1,0,1
231 114 m 256,26,27
 242 114 242 114 257.5 119.5 c 128,-1,28
 273 125 273 125 285 142.5 c 128,-1,29
 297 160 297 160 297 195 c 256,30,31
 297 230 297 230 285 246.5 c 128,-1,32
 273 263 273 263 257.5 268 c 128,-1,33
 242 273 242 273 231 273 c 0,34,35
 221 273 221 273 204 268 c 128,-1,36
 187 263 187 263 174 246.5 c 128,-1,37
 161 230 161 230 161 195 c 256,38,39
 161 160 161 160 173.5 142.5 c 128,-1,40
 186 125 186 125 203 119.5 c 128,-1,41
 220 114 220 114 231 114 c 256,26,27
EndSplineSet
Validated: 1
EndChar

StartChar: r
Encoding: 114 114 84
Width: 301
GlyphClass: 1
Flags: W
LayerCount: 2
Fore
SplineSet
152 346 m 1,0,1
 168 369 168 369 189 377.5 c 128,-1,2
 210 386 210 386 247 386 c 2,3,-1
 274 386 l 2,4,5
 285 386 285 386 285 373 c 2,6,-1
 285 277 l 2,7,8
 285 264 285 264 274 264 c 2,9,-1
 250 264 l 2,10,11
 213 264 213 264 195.5 254 c 128,-1,12
 178 244 178 244 173 223.5 c 128,-1,13
 168 203 168 203 168 170 c 2,14,-1
 168 13 l 2,15,16
 168 0 168 0 155 0 c 2,17,-1
 49 0 l 2,18,19
 36 0 36 0 36 13 c 2,20,-1
 36 373 l 2,21,22
 36 386 36 386 49 386 c 2,23,-1
 67 386 l 2,24,25
 130 386 130 386 152 346 c 1,0,1
EndSplineSet
Validated: 1
EndChar

StartChar: s
Encoding: 115 115 85
Width: 333
GlyphClass: 1
Flags: W
LayerCount: 2
Fore
SplineSet
11 116 m 0,0,1
 11 128 11 128 16 133 c 128,-1,2
 21 138 21 138 26 138 c 0,3,4
 30 138 30 138 34.5 135.5 c 128,-1,5
 39 133 39 133 46 128 c 0,6,7
 60 119 60 119 85 107.5 c 128,-1,8
 110 96 110 96 150 96 c 0,9,10
 170 96 170 96 179 102.5 c 128,-1,11
 188 109 188 109 188 117 c 0,12,13
 188 128 188 128 171.5 135.5 c 128,-1,14
 155 143 155 143 130.5 150.5 c 128,-1,15
 106 158 106 158 81 171.5 c 128,-1,16
 56 185 56 185 39.5 208.5 c 128,-1,17
 23 232 23 232 23 270 c 0,18,19
 23 315 23 315 45 343 c 128,-1,20
 67 371 67 371 101.5 384 c 128,-1,21
 136 397 136 397 172 397 c 0,22,23
 201 397 201 397 226 392 c 128,-1,24
 251 387 251 387 267 381 c 0,25,26
 296 368 296 368 306 349.5 c 128,-1,27
 316 331 316 331 305 296 c 2,28,-1
 298 273 l 2,29,30
 295 265 295 265 289 265 c 0,31,32
 285 265 285 265 282 266.5 c 128,-1,33
 279 268 279 268 275 269 c 0,34,35
 226 290 226 290 183 290 c 0,36,37
 168 290 168 290 162.5 285 c 128,-1,38
 157 280 157 280 157 274 c 0,39,40
 157 262 157 262 173.5 254.5 c 128,-1,41
 190 247 190 247 214.5 239 c 128,-1,42
 239 231 239 231 264 218 c 128,-1,43
 289 205 289 205 305.5 183 c 128,-1,44
 322 161 322 161 322 125 c 0,45,46
 322 66 322 66 281 28 c 128,-1,47
 240 -10 240 -10 172 -10 c 0,48,49
 127 -10 127 -10 90.5 7.5 c 128,-1,50
 54 25 54 25 32.5 54 c 128,-1,51
 11 83 11 83 11 116 c 0,0,1
EndSplineSet
Validated: 33
EndChar

StartChar: t
Encoding: 116 116 86
Width: 319
GlyphClass: 1
Flags: W
LayerCount: 2
Fore
SplineSet
83 269 m 1,0,-1
 20 269 l 2,1,2
 7 269 7 269 7 282 c 2,3,-1
 7 373 l 2,4,5
 7 386 7 386 20 386 c 2,6,-1
 83 386 l 1,7,-1
 83 506 l 2,8,9
 83 518 83 518 95 518 c 2,10,-1
 118 518 l 2,11,12
 165 518 165 518 190 496.5 c 128,-1,13
 215 475 215 475 215 422 c 2,14,-1
 215 386 l 1,15,-1
 293 386 l 2,16,17
 305 386 305 386 305 373 c 2,18,-1
 305 282 l 2,19,20
 305 269 305 269 293 269 c 2,21,-1
 215 269 l 1,22,-1
 215 13 l 2,23,24
 215 0 215 0 201 0 c 2,25,-1
 95 0 l 2,26,27
 83 0 83 0 83 13 c 2,28,-1
 83 269 l 1,0,-1
EndSplineSet
Validated: 1
EndChar

StartChar: u
Encoding: 117 117 87
Width: 446
GlyphClass: 1
Flags: W
LayerCount: 2
Fore
SplineSet
222 -9 m 0,0,1
 122 -9 122 -9 78.5 47 c 128,-1,2
 35 103 35 103 35 194 c 2,3,-1
 35 373 l 2,4,5
 35 386 35 386 48 386 c 2,6,-1
 71 386 l 2,7,8
 118 386 118 386 142.5 363.5 c 128,-1,9
 167 341 167 341 167 288 c 2,10,-1
 167 175 l 2,11,12
 167 137 167 137 183.5 122.5 c 128,-1,13
 200 108 200 108 222 108 c 256,14,15
 244 108 244 108 261 122.5 c 128,-1,16
 278 137 278 137 278 174 c 2,17,-1
 278 373 l 2,18,19
 278 386 278 386 291 386 c 2,20,-1
 314 386 l 2,21,22
 362 386 362 386 386.5 363.5 c 128,-1,23
 411 341 411 341 411 288 c 2,24,-1
 411 188 l 2,25,26
 411 98 411 98 367 44.5 c 128,-1,27
 323 -9 323 -9 222 -9 c 0,0,1
EndSplineSet
Validated: 1
EndChar

StartChar: v
Encoding: 118 118 88
Width: 409
GlyphClass: 1
Flags: W
LayerCount: 2
Fore
SplineSet
208 148 m 1,0,-1
 275 373 l 2,1,2
 278 386 278 386 290 386 c 2,3,-1
 400 386 l 2,4,5
 413 386 413 386 409 373 c 2,6,-1
 285 13 l 2,7,8
 281 0 281 0 269 0 c 2,9,-1
 145 0 l 2,10,11
 131 0 131 0 127 13 c 2,12,-1
 5 373 l 2,13,14
 0 386 0 386 12 386 c 2,15,-1
 50 386 l 2,16,17
 85 386 85 386 106.5 378 c 128,-1,18
 128 370 128 370 142 348.5 c 128,-1,19
 156 327 156 327 167 288 c 2,20,-1
 208 148 l 1,0,-1
EndSplineSet
Validated: 1
EndChar

StartChar: w
Encoding: 119 119 89
Width: 607
GlyphClass: 1
Flags: W
LayerCount: 2
Fore
SplineSet
193 179 m 1,0,-1
 243 373 l 2,1,2
 246 386 246 386 261 386 c 2,3,-1
 279 386 l 2,4,5
 332 386 332 386 361 367 c 128,-1,6
 390 348 390 348 403 288 c 2,7,-1
 429 174 l 1,8,-1
 481 373 l 2,9,10
 484 386 484 386 498 386 c 2,11,-1
 595 386 l 2,12,13
 608 386 608 386 603 373 c 2,14,-1
 498 13 l 2,15,16
 494 0 494 0 481 0 c 2,17,-1
 377 0 l 2,18,19
 363 0 363 0 360 13 c 2,20,-1
 308 204 l 1,21,-1
 259 13 l 2,22,23
 256 0 256 0 243 0 c 2,24,-1
 136 0 l 2,25,26
 123 0 123 0 118 13 c 2,27,-1
 6 373 l 2,28,29
 2 386 2 386 15 386 c 2,30,-1
 51 386 l 2,31,32
 86 386 86 386 107.5 378 c 128,-1,33
 129 370 129 370 142.5 349 c 128,-1,34
 156 328 156 328 166 288 c 2,35,-1
 193 179 l 1,0,-1
EndSplineSet
Validated: 1
EndChar

StartChar: x
Encoding: 120 120 90
Width: 418
GlyphClass: 1
Flags: W
LayerCount: 2
Fore
SplineSet
208 118 m 1,0,-1
 146 13 l 2,1,2
 136 0 136 0 124 0 c 2,3,-1
 14 0 l 2,4,5
 9 0 9 0 7.5 4.5 c 128,-1,6
 6 9 6 9 9 13 c 2,7,-1
 126 202 l 1,8,-1
 19 373 l 2,9,10
 17 378 17 378 18.5 382 c 128,-1,11
 20 386 20 386 26 386 c 2,12,-1
 86 386 l 2,13,14
 114 386 114 386 131 381 c 128,-1,15
 148 376 148 376 162.5 360.5 c 128,-1,16
 177 345 177 345 196 314 c 2,17,-1
 208 294 l 1,18,-1
 258 373 l 2,19,20
 267 386 267 386 281 386 c 2,21,-1
 384 386 l 2,22,23
 390 386 390 386 392 382 c 128,-1,24
 394 378 394 378 391 373 c 2,25,-1
 291 209 l 1,26,-1
 412 13 l 2,27,28
 415 9 415 9 412.5 4.5 c 128,-1,29
 410 0 410 0 405 0 c 2,30,-1
 294 0 l 2,31,32
 279 0 279 0 271 13 c 2,33,-1
 208 118 l 1,0,-1
EndSplineSet
Validated: 1
EndChar

StartChar: y
Encoding: 121 121 91
Width: 416
GlyphClass: 1
Flags: W
LayerCount: 2
Fore
SplineSet
142 -5 m 1,0,-1
 3 373 l 2,1,2
 1 378 1 378 3.5 382 c 128,-1,3
 6 386 6 386 10 386 c 2,4,-1
 51 386 l 2,5,6
 86 386 86 386 106.5 377.5 c 128,-1,7
 127 369 127 369 141 347.5 c 128,-1,8
 155 326 155 326 168 288 c 2,9,-1
 212 162 l 1,10,-1
 283 373 l 2,11,12
 289 386 289 386 299 386 c 2,13,-1
 405 386 l 2,14,15
 411 386 411 386 412.5 382 c 128,-1,16
 414 378 414 378 413 373 c 2,17,-1
 277 -9 l 2,18,19
 259 -58 259 -58 239.5 -94.5 c 128,-1,20
 220 -131 220 -131 191 -151 c 128,-1,21
 162 -171 162 -171 114 -171 c 0,22,23
 76 -171 76 -171 49.5 -154 c 128,-1,24
 23 -137 23 -137 9.5 -111.5 c 128,-1,25
 -4 -86 -4 -86 -4 -59 c 0,26,27
 -4 -51 -4 -51 -0.5 -44 c 128,-1,28
 3 -37 3 -37 12 -37 c 0,29,30
 17 -37 17 -37 21 -40 c 0,31,32
 50 -59 50 -59 74 -59 c 0,33,34
 100 -59 100 -59 115.5 -45 c 128,-1,35
 131 -31 131 -31 142 -5 c 1,0,-1
EndSplineSet
Validated: 1
EndChar

StartChar: z
Encoding: 122 122 92
Width: 361
GlyphClass: 1
Flags: W
LayerCount: 2
Fore
SplineSet
195 116 m 1,0,-1
 329 116 l 2,1,2
 342 116 342 116 342 103 c 2,3,-1
 342 13 l 2,4,5
 342 0 342 0 329 0 c 2,6,-1
 32 0 l 2,7,8
 19 0 19 0 19 13 c 2,9,-1
 19 71 l 2,10,11
 19 83 19 83 21.5 89.5 c 128,-1,12
 24 96 24 96 32 106 c 2,13,-1
 168 269 l 1,14,-1
 39 269 l 2,15,16
 26 269 26 269 26 282 c 2,17,-1
 26 373 l 2,18,19
 26 386 26 386 39 386 c 2,20,-1
 266 386 l 2,21,22
 304 386 304 386 320 370 c 128,-1,23
 336 354 336 354 336 313 c 0,24,25
 336 286 336 286 320 267 c 2,26,-1
 195 116 l 1,0,-1
EndSplineSet
Validated: 1
EndChar

StartChar: braceleft
Encoding: 123 123 93
Width: 366
GlyphClass: 1
Flags: W
LayerCount: 2
Fore
SplineSet
296 -144 m 2,0,-1
 177 -144 l 2,1,2
 140 -144 140 -144 119 -124.5 c 128,-1,3
 98 -105 98 -105 98 -68 c 2,4,-1
 98 151 l 2,5,6
 98 216 98 216 57 223 c 0,7,8
 39 228 39 228 39 245 c 2,9,-1
 39 308 l 2,10,11
 39 316 39 316 44 321.5 c 128,-1,12
 49 327 49 327 57 328 c 0,13,14
 79 333 79 333 88.5 350.5 c 128,-1,15
 98 368 98 368 98 402 c 2,16,-1
 98 620 l 2,17,18
 98 656 98 656 119 676 c 128,-1,19
 140 696 140 696 177 696 c 2,20,-1
 296 696 l 2,21,22
 307 696 307 696 314.5 688.5 c 128,-1,23
 322 681 322 681 322 670 c 2,24,-1
 322 661 l 2,25,26
 322 624 322 624 301 604.5 c 128,-1,27
 280 585 280 585 242 585 c 2,28,-1
 221 585 l 2,29,30
 216 585 216 585 216 581 c 2,31,-1
 216 394 l 2,32,33
 216 351 216 351 207 323 c 128,-1,34
 198 295 198 295 176 276 c 1,35,36
 198 259 198 259 207 230.5 c 128,-1,37
 216 202 216 202 216 157 c 2,38,-1
 216 -29 l 2,39,40
 216 -33 216 -33 221 -33 c 2,41,-1
 242 -33 l 2,42,43
 280 -33 280 -33 301 -53 c 128,-1,44
 322 -73 322 -73 322 -109 c 2,45,-1
 322 -118 l 2,46,47
 322 -129 322 -129 314.5 -136.5 c 128,-1,48
 307 -144 307 -144 296 -144 c 2,0,-1
EndSplineSet
Validated: 1
EndChar

StartChar: bar
Encoding: 124 124 94
Width: 208
GlyphClass: 1
Flags: W
LayerCount: 2
Fore
SplineSet
45 -136 m 2,0,-1
 45 553 l 2,1,2
 45 566 45 566 58 566 c 2,3,-1
 76 566 l 2,4,5
 117 566 117 566 140 544 c 128,-1,6
 163 522 163 522 163 468 c 2,7,-1
 163 -136 l 2,8,9
 163 -149 163 -149 150 -149 c 2,10,-1
 58 -149 l 2,11,12
 45 -149 45 -149 45 -136 c 2,0,-1
EndSplineSet
Validated: 1
EndChar

StartChar: braceright
Encoding: 125 125 95
Width: 366
GlyphClass: 1
Flags: W
LayerCount: 2
Fore
SplineSet
189 -144 m 2,0,-1
 70 -144 l 2,1,2
 59 -144 59 -144 51.5 -136.5 c 128,-1,3
 44 -129 44 -129 44 -118 c 2,4,-1
 44 -109 l 2,5,6
 44 -73 44 -73 65 -53 c 128,-1,7
 86 -33 86 -33 123 -33 c 2,8,-1
 145 -33 l 2,9,10
 150 -33 150 -33 150 -29 c 2,11,-1
 150 157 l 2,12,13
 150 202 150 202 159 230.5 c 128,-1,14
 168 259 168 259 190 276 c 1,15,16
 168 295 168 295 159 323 c 128,-1,17
 150 351 150 351 150 394 c 2,18,-1
 150 581 l 2,19,20
 150 585 150 585 145 585 c 2,21,-1
 123 585 l 2,22,23
 86 585 86 585 65 604.5 c 128,-1,24
 44 624 44 624 44 661 c 2,25,-1
 44 670 l 2,26,27
 44 681 44 681 51.5 688.5 c 128,-1,28
 59 696 59 696 70 696 c 2,29,-1
 189 696 l 2,30,31
 227 696 227 696 247.5 676 c 128,-1,32
 268 656 268 656 268 620 c 2,33,-1
 268 402 l 2,34,35
 268 368 268 368 277.5 350.5 c 128,-1,36
 287 333 287 333 309 328 c 0,37,38
 317 327 317 327 322 321.5 c 128,-1,39
 327 316 327 316 327 308 c 2,40,-1
 327 245 l 2,41,42
 327 228 327 228 309 223 c 0,43,44
 268 216 268 216 268 151 c 2,45,-1
 268 -68 l 2,46,47
 268 -105 268 -105 247.5 -124.5 c 128,-1,48
 227 -144 227 -144 189 -144 c 2,0,-1
EndSplineSet
Validated: 1
PairPos2: "'kern' Horizontal Kerning lookup 2 per glyph data 1" uni0698 dx=-39 dy=0 dh=-39 dv=0 dx=0 dy=0 dh=0 dv=0
PairPos2: "'kern' Horizontal Kerning lookup 2 per glyph data 1" uni0695 dx=-39 dy=0 dh=-39 dv=0 dx=0 dy=0 dh=0 dv=0
PairPos2: "'kern' Horizontal Kerning lookup 2 per glyph data 1" uni0694 dx=-39 dy=0 dh=-39 dv=0 dx=0 dy=0 dh=0 dv=0
PairPos2: "'kern' Horizontal Kerning lookup 2 per glyph data 1" uni0691 dx=-22 dy=0 dh=-22 dv=0 dx=0 dy=0 dh=0 dv=0
PairPos2: "'kern' Horizontal Kerning lookup 2 per glyph data 1" uni0632 dx=-39 dy=0 dh=-39 dv=0 dx=0 dy=0 dh=0 dv=0
PairPos2: "'kern' Horizontal Kerning lookup 2 per glyph data 1" uni0631 dx=-39 dy=0 dh=-39 dv=0 dx=0 dy=0 dh=0 dv=0
EndChar

StartChar: asciitilde
Encoding: 126 126 96
Width: 457
GlyphClass: 1
Flags: W
LayerCount: 2
Fore
SplineSet
46 218 m 0,0,1
 44 215 44 215 39.5 215 c 128,-1,2
 35 215 35 215 35 222 c 2,3,-1
 35 307 l 2,4,5
 35 326 35 326 45 336 c 0,6,7
 65 355 65 355 88 362 c 128,-1,8
 111 369 111 369 136 369 c 0,9,10
 173 369 173 369 205 357.5 c 128,-1,11
 237 346 237 346 266.5 334.5 c 128,-1,12
 296 323 296 323 326 323 c 0,13,14
 350 323 350 323 371.5 330.5 c 128,-1,15
 393 338 393 338 412 359 c 0,16,17
 415 362 415 362 419 362 c 128,-1,18
 423 362 423 362 423 356 c 2,19,-1
 423 271 l 2,20,21
 423 260 423 260 421.5 253.5 c 128,-1,22
 420 247 420 247 413 242 c 0,23,24
 394 224 394 224 372 216 c 128,-1,25
 350 208 350 208 326 208 c 0,26,27
 288 208 288 208 256.5 219.5 c 128,-1,28
 225 231 225 231 196 242.5 c 128,-1,29
 167 254 167 254 136 254 c 0,30,31
 112 254 112 254 89 247 c 128,-1,32
 66 240 66 240 46 218 c 0,0,1
EndSplineSet
Validated: 1
EndChar

StartChar: exclamdown
Encoding: 161 161 97
Width: 217
GlyphClass: 1
Flags: W
LayerCount: 2
Fore
SplineSet
103 242 m 0,0,1
 71 242 71 242 49.5 263.5 c 128,-1,2
 28 285 28 285 28 319 c 256,3,4
 28 353 28 353 49.5 375 c 128,-1,5
 71 397 71 397 103 397 c 0,6,7
 136 397 136 397 159 375 c 128,-1,8
 182 353 182 353 182 319 c 256,9,10
 182 285 182 285 159 263.5 c 128,-1,11
 136 242 136 242 103 242 c 0,0,1
38 -159 m 2,12,-1
 50 208 l 2,13,14
 50 221 50 221 63 221 c 2,15,-1
 81 221 l 2,16,17
 122 221 122 221 143 197.5 c 128,-1,18
 164 174 164 174 166 120 c 2,19,-1
 176 -159 l 2,20,21
 176 -172 176 -172 163 -172 c 2,22,-1
 51 -172 l 2,23,24
 38 -172 38 -172 38 -159 c 2,12,-1
EndSplineSet
Validated: 1
EndChar

StartChar: cent
Encoding: 162 162 98
Width: 368
GlyphClass: 1
Flags: W
LayerCount: 2
Fore
SplineSet
276 0 m 1,0,-1
 276 -52 l 2,1,2
 276 -65 276 -65 264 -65 c 2,3,-1
 215 -65 l 2,4,5
 202 -65 202 -65 202 -52 c 2,6,-1
 202 -8 l 1,7,8
 124 -3 124 -3 74 50 c 128,-1,9
 24 103 24 103 24 194 c 0,10,11
 24 283 24 283 73 336 c 128,-1,12
 122 389 122 389 202 396 c 1,13,-1
 202 452 l 2,14,15
 202 463 202 463 215 463 c 2,16,-1
 264 463 l 2,17,18
 276 463 276 463 276 452 c 2,19,-1
 276 393 l 1,20,21
 284 392 284 392 291.5 389 c 128,-1,22
 299 386 299 386 306 384 c 0,23,24
 336 374 336 374 345 354 c 128,-1,25
 354 334 354 334 345 299 c 2,26,-1
 336 268 l 2,27,28
 332 258 332 258 327 258 c 0,29,30
 325 258 325 258 322.5 258.5 c 128,-1,31
 320 259 320 259 316 261 c 0,32,33
 293 272 293 272 276 276 c 1,34,-1
 276 103 l 1,35,36
 293 107 293 107 305.5 113 c 128,-1,37
 318 119 318 119 325 124 c 0,38,39
 335 131 335 131 342 131 c 0,40,41
 350 131 350 131 353.5 125 c 128,-1,42
 357 119 357 119 357 112 c 0,43,44
 357 72 357 72 335.5 42.5 c 128,-1,45
 314 13 314 13 276 0 c 1,0,-1
202 106 m 1,46,-1
 202 276 l 1,47,48
 180 267 180 267 166.5 246 c 128,-1,49
 153 225 153 225 153 191 c 0,50,51
 153 162 153 162 165 139.5 c 128,-1,52
 177 117 177 117 202 106 c 1,46,-1
EndSplineSet
Validated: 33
EndChar

StartChar: sterling
Encoding: 163 163 99
Width: 467
GlyphClass: 1
Flags: W
LayerCount: 2
Fore
SplineSet
141 223 m 1,0,-1
 45 223 l 2,1,2
 32 223 32 223 32 236 c 2,3,-1
 32 333 l 2,4,5
 32 346 32 346 45 346 c 2,6,-1
 91 346 l 1,7,8
 81 372 81 372 81 404 c 0,9,10
 81 489 81 489 135.5 527.5 c 128,-1,11
 190 566 190 566 275 566 c 0,12,13
 294 566 294 566 321 562.5 c 128,-1,14
 348 559 348 559 375 550.5 c 128,-1,15
 402 542 402 542 420 526 c 128,-1,16
 438 510 438 510 438 484 c 0,17,18
 438 476 438 476 435.5 468 c 128,-1,19
 433 460 433 460 431 452 c 2,20,-1
 423 423 l 2,21,22
 419 414 419 414 413 414 c 0,23,24
 410 414 410 414 406.5 416 c 128,-1,25
 403 418 403 418 398 419 c 0,26,27
 368 433 368 433 339.5 442 c 128,-1,28
 311 451 311 451 276 451 c 0,29,30
 248 451 248 451 233 437 c 128,-1,31
 218 423 218 423 218 398 c 0,32,33
 218 387 218 387 221.5 374 c 128,-1,34
 225 361 225 361 230 346 c 1,35,-1
 323 346 l 2,36,37
 393 346 393 346 393 279 c 2,38,-1
 393 240 l 2,39,40
 393 223 393 223 376 223 c 2,41,-1
 274 223 l 1,42,43
 275 216 275 216 274.5 209 c 128,-1,44
 274 202 274 202 274 196 c 0,45,46
 274 177 274 177 270.5 158.5 c 128,-1,47
 267 140 267 140 261 123 c 1,48,-1
 369 123 l 2,49,50
 439 123 439 123 439 57 c 2,51,-1
 439 17 l 2,52,53
 439 0 439 0 423 0 c 2,54,-1
 45 0 l 2,55,56
 32 0 32 0 32 13 c 2,57,-1
 32 110 l 2,58,59
 32 123 32 123 45 123 c 2,60,-1
 129 123 l 1,61,62
 134 141 134 141 139 160 c 128,-1,63
 144 179 144 179 144 196 c 0,64,65
 144 210 144 210 141 223 c 1,0,-1
EndSplineSet
Validated: 1
EndChar

StartChar: yen
Encoding: 165 165 100
Width: 501
GlyphClass: 1
Flags: W
LayerCount: 2
Fore
SplineSet
183 114 m 1,0,-1
 55 114 l 2,1,2
 43 114 43 114 43 127 c 2,3,-1
 43 200 l 2,4,5
 43 213 43 213 55 213 c 2,6,-1
 178 213 l 1,7,-1
 157 252 l 1,8,-1
 55 252 l 2,9,10
 43 252 43 252 43 264 c 2,11,-1
 43 337 l 2,12,13
 43 349 43 349 55 349 c 2,14,-1
 105 349 l 1,15,-1
 4 542 l 2,16,17
 2 547 2 547 3.5 551.5 c 128,-1,18
 5 556 5 556 12 556 c 2,19,-1
 82 556 l 2,20,21
 117 556 117 556 140.5 542 c 128,-1,22
 164 528 164 528 180 494 c 2,23,-1
 254 349 l 1,24,-1
 258 349 l 1,25,-1
 355 542 l 2,26,27
 361 556 361 556 375 556 c 2,28,-1
 492 556 l 2,29,30
 499 556 499 556 500.5 551.5 c 128,-1,31
 502 547 502 547 500 542 c 2,32,-1
 398 349 l 1,33,-1
 447 349 l 2,34,35
 460 349 460 349 460 337 c 2,36,-1
 460 264 l 2,37,38
 460 252 460 252 447 252 c 2,39,-1
 346 252 l 1,40,-1
 325 213 l 1,41,-1
 447 213 l 2,42,43
 460 213 460 213 460 200 c 2,44,-1
 460 127 l 2,45,46
 460 114 460 114 447 114 c 2,47,-1
 318 114 l 1,48,-1
 318 13 l 2,49,50
 318 0 318 0 305 0 c 2,51,-1
 197 0 l 2,52,53
 183 0 183 0 183 13 c 2,54,-1
 183 114 l 1,0,-1
EndSplineSet
Validated: 1
EndChar

StartChar: brokenbar
Encoding: 166 166 101
Width: 208
GlyphClass: 1
Flags: W
LayerCount: 2
Fore
SplineSet
45 258 m 2,0,-1
 45 553 l 2,1,2
 45 566 45 566 58 566 c 2,3,-1
 76 566 l 2,4,5
 117 566 117 566 140 544 c 128,-1,6
 163 522 163 522 163 468 c 2,7,-1
 163 258 l 2,8,9
 163 245 163 245 150 245 c 2,10,-1
 58 245 l 2,11,12
 45 245 45 245 45 258 c 2,0,-1
45 -136 m 2,13,-1
 45 160 l 2,14,15
 45 173 45 173 58 173 c 2,16,-1
 150 173 l 2,17,18
 163 173 163 173 163 160 c 2,19,-1
 163 -136 l 2,20,21
 163 -149 163 -149 150 -149 c 2,22,-1
 58 -149 l 2,23,24
 45 -149 45 -149 45 -136 c 2,13,-1
EndSplineSet
Validated: 1
EndChar

StartChar: section
Encoding: 167 167 102
Width: 451
GlyphClass: 1
Flags: W
LayerCount: 2
Fore
SplineSet
80 65 m 0,0,1
 91 53 91 53 111 38 c 128,-1,2
 131 23 131 23 157 12 c 128,-1,3
 183 1 183 1 211 1 c 0,4,5
 240 1 240 1 251 11.5 c 128,-1,6
 262 22 262 22 262 36 c 0,7,8
 262 55 262 55 240.5 69 c 128,-1,9
 219 83 219 83 187 97.5 c 128,-1,10
 155 112 155 112 123 131 c 128,-1,11
 91 150 91 150 69.5 177.5 c 128,-1,12
 48 205 48 205 48 246 c 0,13,14
 48 282 48 282 67.5 308.5 c 128,-1,15
 87 335 87 335 111 353 c 1,16,17
 97 370 97 370 87.5 390.5 c 128,-1,18
 78 411 78 411 78 439 c 0,19,20
 78 478 78 478 100 506.5 c 128,-1,21
 122 535 122 535 159 550.5 c 128,-1,22
 196 566 196 566 241 566 c 0,23,24
 276 566 276 566 301.5 560.5 c 128,-1,25
 327 555 327 555 342 547 c 0,26,27
 374 533 374 533 379 512 c 128,-1,28
 384 491 384 491 374 462 c 2,29,-1
 366 443 l 2,30,31
 363 434 363 434 357 434 c 0,32,33
 353 434 353 434 351 437 c 128,-1,34
 349 440 349 440 345 442 c 0,35,36
 323 457 323 457 300 463 c 128,-1,37
 277 469 277 469 256 469 c 0,38,39
 213 469 213 469 213 442 c 0,40,41
 213 424 213 424 234 410.5 c 128,-1,42
 255 397 255 397 286 383.5 c 128,-1,43
 317 370 317 370 348 352 c 128,-1,44
 379 334 379 334 400 307.5 c 128,-1,45
 421 281 421 281 421 241 c 0,46,47
 421 202 421 202 405 174 c 128,-1,48
 389 146 389 146 366 128 c 1,49,50
 399 94 399 94 399 44 c 0,51,52
 399 6 399 6 379 -27 c 128,-1,53
 359 -60 359 -60 320 -79.5 c 128,-1,54
 281 -99 281 -99 223 -99 c 0,55,56
 183 -99 183 -99 146 -88 c 128,-1,57
 109 -77 109 -77 84 -58 c 0,58,59
 58 -38 58 -38 50 -16 c 128,-1,60
 42 6 42 6 54 34 c 2,61,-1
 66 63 l 2,62,63
 68 67 68 67 72.5 68 c 128,-1,64
 77 69 77 69 80 65 c 0,0,1
272 187 m 1,65,66
 279 195 279 195 284 204 c 128,-1,67
 289 213 289 213 289 223 c 0,68,69
 289 241 289 241 274 253 c 128,-1,70
 259 265 259 265 236.5 275.5 c 128,-1,71
 214 286 214 286 191 297 c 1,72,73
 184 289 184 289 180 280.5 c 128,-1,74
 176 272 176 272 176 259 c 0,75,76
 176 243 176 243 190 231 c 128,-1,77
 204 219 204 219 226 208.5 c 128,-1,78
 248 198 248 198 272 187 c 1,65,66
EndSplineSet
Validated: 33
EndChar

StartChar: dieresis
Encoding: 168 168 103
Width: 314
GlyphClass: 1
Flags: W
LayerCount: 2
Fore
SplineSet
0 484 m 0,0,1
 0 513 0 513 21 534.5 c 128,-1,2
 42 556 42 556 72 556 c 0,3,4
 101 556 101 556 122 534.5 c 128,-1,5
 143 513 143 513 143 484 c 0,6,7
 143 454 143 454 122 433 c 128,-1,8
 101 412 101 412 72 412 c 0,9,10
 42 412 42 412 21 433 c 128,-1,11
 0 454 0 454 0 484 c 0,0,1
171 484 m 0,12,13
 171 513 171 513 192 534.5 c 128,-1,14
 213 556 213 556 242 556 c 0,15,16
 272 556 272 556 293 534.5 c 128,-1,17
 314 513 314 513 314 484 c 0,18,19
 314 454 314 454 293 433 c 128,-1,20
 272 412 272 412 242 412 c 0,21,22
 213 412 213 412 192 433 c 128,-1,23
 171 454 171 454 171 484 c 0,12,13
EndSplineSet
Validated: 1
EndChar

StartChar: copyright
Encoding: 169 169 104
Width: 502
GlyphClass: 1
Flags: W
LayerCount: 2
Fore
SplineSet
24 339 m 0,0,1
 24 408 24 408 52.5 459 c 128,-1,2
 81 510 81 510 132 538.5 c 128,-1,3
 183 567 183 567 252 567 c 0,4,5
 320 567 320 567 371 538.5 c 128,-1,6
 422 510 422 510 450 459 c 128,-1,7
 478 408 478 408 478 339 c 0,8,9
 478 271 478 271 450 220 c 128,-1,10
 422 169 422 169 371 141 c 128,-1,11
 320 113 320 113 252 113 c 0,12,13
 183 113 183 113 132 141 c 128,-1,14
 81 169 81 169 52.5 220 c 128,-1,15
 24 271 24 271 24 339 c 0,0,1
252 182 m 0,16,17
 323 182 323 182 365.5 225 c 128,-1,18
 408 268 408 268 408 339 c 256,19,20
 408 410 408 410 365.5 454 c 128,-1,21
 323 498 323 498 252 498 c 0,22,23
 182 498 182 498 138.5 454 c 128,-1,24
 95 410 95 410 95 339 c 256,25,26
 95 268 95 268 138.5 225 c 128,-1,27
 182 182 182 182 252 182 c 0,16,17
329 306 m 0,28,29
 332 308 332 308 334.5 309.5 c 128,-1,30
 337 311 337 311 338 311 c 0,31,32
 346 311 346 311 346 299 c 0,33,34
 346 288 346 288 338.5 268 c 128,-1,35
 331 248 331 248 311.5 232 c 128,-1,36
 292 216 292 216 254 216 c 0,37,38
 201 216 201 216 168 249.5 c 128,-1,39
 135 283 135 283 135 338 c 0,40,41
 135 377 135 377 153 405 c 128,-1,42
 171 433 171 433 200.5 448 c 128,-1,43
 230 463 230 463 264 463 c 0,44,45
 283 463 283 463 297.5 460 c 128,-1,46
 312 457 312 457 325 452 c 0,47,48
 339 446 339 446 342 438 c 128,-1,49
 345 430 345 430 342 417 c 2,50,-1
 335 387 l 2,51,52
 332 378 332 378 322 383 c 0,53,54
 309 390 309 390 296 394 c 128,-1,55
 283 398 283 398 266 398 c 0,56,57
 214 398 214 398 214 338 c 0,58,59
 214 282 214 282 268 282 c 0,60,61
 288 282 288 282 305 290.5 c 128,-1,62
 322 299 322 299 329 306 c 0,28,29
EndSplineSet
Validated: 1
EndChar

StartChar: ordfeminine
Encoding: 170 170 105
Width: 379
GlyphClass: 1
Flags: W
LayerCount: 2
Fore
SplineSet
246 266 m 1,0,1
 214 241 214 241 167 241 c 0,2,3
 119 241 119 241 85 263 c 128,-1,4
 51 285 51 285 33 321.5 c 128,-1,5
 15 358 15 358 15 403 c 256,6,7
 15 448 15 448 34.5 484.5 c 128,-1,8
 54 521 54 521 88.5 542.5 c 128,-1,9
 123 564 123 564 169 564 c 0,10,11
 205 564 205 564 228 553.5 c 128,-1,12
 251 543 251 543 266 529 c 1,13,14
 278 543 278 543 292.5 549.5 c 128,-1,15
 307 556 307 556 334 556 c 2,16,-1
 349 556 l 2,17,18
 359 556 359 556 359 546 c 2,19,-1
 359 258 l 2,20,21
 359 248 359 248 351 248 c 2,22,-1
 254 248 l 2,23,24
 246 248 246 248 246 258 c 2,25,-1
 246 266 l 1,0,1
190 343 m 256,26,27
 215 343 215 343 230.5 359.5 c 128,-1,28
 246 376 246 376 246 404 c 0,29,30
 246 433 246 433 231 448 c 128,-1,31
 216 463 216 463 190 463 c 256,32,33
 164 463 164 463 148.5 447.5 c 128,-1,34
 133 432 133 432 133 404 c 256,35,36
 133 376 133 376 149 359.5 c 128,-1,37
 165 343 165 343 190 343 c 256,26,27
EndSplineSet
Validated: 1
EndChar

StartChar: guillemotleft
Encoding: 171 171 106
Width: 472
GlyphClass: 1
Flags: W
LayerCount: 2
Fore
SplineSet
148 200 m 1,0,-1
 263 51 l 2,1,2
 266 47 266 47 264 42.5 c 128,-1,3
 262 38 262 38 257 38 c 2,4,-1
 160 38 l 2,5,6
 142 38 142 38 133 51 c 2,7,-1
 28 186 l 2,8,9
 21 195 21 195 21 200 c 256,10,11
 21 205 21 205 28 214 c 2,12,-1
 132 349 l 2,13,14
 141 362 141 362 160 362 c 2,15,-1
 255 362 l 2,16,17
 261 362 261 362 262.5 358 c 128,-1,18
 264 354 264 354 262 349 c 2,19,-1
 148 200 l 1,0,-1
335 200 m 1,20,-1
 450 51 l 2,21,22
 453 47 453 47 451.5 42.5 c 128,-1,23
 450 38 450 38 444 38 c 2,24,-1
 349 38 l 2,25,26
 330 38 330 38 320 51 c 2,27,-1
 215 186 l 2,28,29
 213 190 213 190 211 193 c 128,-1,30
 209 196 209 196 209 200 c 256,31,32
 209 204 209 204 211 207 c 128,-1,33
 213 210 213 210 215 214 c 2,34,-1
 319 349 l 2,35,36
 329 362 329 362 348 362 c 2,37,-1
 443 362 l 2,38,39
 448 362 448 362 450 358 c 128,-1,40
 452 354 452 354 449 349 c 2,41,-1
 335 200 l 1,20,-1
EndSplineSet
Validated: 1
EndChar

StartChar: uni00AD
Encoding: 173 173 107
Width: 309
GlyphClass: 1
Flags: W
LayerCount: 2
Fore
SplineSet
43 145 m 2,0,1
 30 145 30 145 30 158 c 2,2,-1
 30 257 l 2,3,4
 30 269 30 269 43 269 c 2,5,-1
 267 269 l 2,6,7
 279 269 279 269 279 257 c 2,8,-1
 279 158 l 2,9,10
 279 145 279 145 267 145 c 2,11,-1
 43 145 l 2,0,1
EndSplineSet
Validated: 1
EndChar

StartChar: registered
Encoding: 174 174 108
Width: 502
GlyphClass: 1
Flags: W
LayerCount: 2
Fore
SplineSet
24 339 m 0,0,1
 24 408 24 408 52.5 459 c 128,-1,2
 81 510 81 510 132 538.5 c 128,-1,3
 183 567 183 567 252 567 c 0,4,5
 320 567 320 567 371 538.5 c 128,-1,6
 422 510 422 510 450 459 c 128,-1,7
 478 408 478 408 478 339 c 0,8,9
 478 271 478 271 450 220 c 128,-1,10
 422 169 422 169 371 141 c 128,-1,11
 320 113 320 113 252 113 c 0,12,13
 183 113 183 113 132 141 c 128,-1,14
 81 169 81 169 52.5 220 c 128,-1,15
 24 271 24 271 24 339 c 0,0,1
252 182 m 0,16,17
 323 182 323 182 365.5 225 c 128,-1,18
 408 268 408 268 408 339 c 256,19,20
 408 410 408 410 365.5 454 c 128,-1,21
 323 498 323 498 252 498 c 0,22,23
 182 498 182 498 138.5 454 c 128,-1,24
 95 410 95 410 95 339 c 256,25,26
 95 268 95 268 138.5 225 c 128,-1,27
 182 182 182 182 252 182 c 0,16,17
225 297 m 1,28,-1
 225 230 l 2,29,30
 225 222 225 222 218 222 c 2,31,-1
 163 222 l 2,32,33
 156 222 156 222 156 230 c 2,34,-1
 156 454 l 2,35,36
 156 462 156 462 163 462 c 2,37,-1
 259 462 l 2,38,39
 310 462 310 462 332.5 438.5 c 128,-1,40
 355 415 355 415 355 381 c 0,41,42
 355 357 355 357 344.5 338 c 128,-1,43
 334 319 334 319 312 309 c 1,44,-1
 362 231 l 2,45,46
 364 228 364 228 362.5 225 c 128,-1,47
 361 222 361 222 358 222 c 2,48,-1
 299 222 l 2,49,50
 288 222 288 222 285 230 c 2,51,-1
 246 297 l 1,52,-1
 225 297 l 1,28,-1
225 348 m 1,53,-1
 250 348 l 2,54,55
 264 348 264 348 276 354 c 128,-1,56
 288 360 288 360 288 381 c 0,57,58
 288 397 288 397 277.5 404.5 c 128,-1,59
 267 412 267 412 250 412 c 2,60,-1
 225 412 l 1,61,-1
 225 348 l 1,53,-1
EndSplineSet
Validated: 1
EndChar

StartChar: macron
Encoding: 175 175 109
Width: 289
GlyphClass: 1
Flags: W
LayerCount: 2
Fore
SplineSet
13 427 m 2,0,1
 0 427 0 427 0 439 c 2,2,-1
 0 512 l 2,3,4
 0 526 0 526 13 526 c 2,5,-1
 277 526 l 2,6,7
 289 526 289 526 289 512 c 2,8,-1
 289 439 l 2,9,10
 289 427 289 427 277 427 c 2,11,-1
 13 427 l 2,0,1
EndSplineSet
Validated: 1
EndChar

StartChar: degree
Encoding: 176 176 110
Width: 262
GlyphClass: 1
Flags: W
LayerCount: 2
Fore
SplineSet
17 471 m 0,0,1
 17 521 17 521 48 552.5 c 128,-1,2
 79 584 79 584 130 584 c 0,3,4
 182 584 182 584 213.5 552.5 c 128,-1,5
 245 521 245 521 245 471 c 0,6,7
 245 423 245 423 213.5 390.5 c 128,-1,8
 182 358 182 358 130 358 c 0,9,10
 79 358 79 358 48 390.5 c 128,-1,11
 17 423 17 423 17 471 c 0,0,1
130 426 m 0,12,13
 149 426 149 426 159.5 440 c 128,-1,14
 170 454 170 454 170 472 c 0,15,16
 170 491 170 491 159.5 504 c 128,-1,17
 149 517 149 517 130 517 c 0,18,19
 112 517 112 517 101.5 504 c 128,-1,20
 91 491 91 491 91 472 c 0,21,22
 91 454 91 454 101.5 440 c 128,-1,23
 112 426 112 426 130 426 c 0,12,13
EndSplineSet
Validated: 1
EndChar

StartChar: plusminus
Encoding: 177 177 111
Width: 432
GlyphClass: 1
Flags: W
LayerCount: 2
Fore
SplineSet
156 291 m 1,0,-1
 38 291 l 2,1,2
 25 291 25 291 25 304 c 2,3,-1
 25 391 l 2,4,5
 25 403 25 403 38 403 c 2,6,-1
 156 403 l 1,7,-1
 156 531 l 2,8,9
 156 543 156 543 169 543 c 2,10,-1
 187 543 l 2,11,12
 236 543 236 543 256 524.5 c 128,-1,13
 276 506 276 506 276 459 c 2,14,-1
 276 403 l 1,15,-1
 393 403 l 2,16,17
 407 403 407 403 407 391 c 2,18,-1
 407 304 l 2,19,20
 407 291 407 291 393 291 c 2,21,-1
 276 291 l 1,22,-1
 276 164 l 2,23,24
 276 151 276 151 263 151 c 2,25,-1
 169 151 l 2,26,27
 156 151 156 151 156 164 c 2,28,-1
 156 291 l 1,0,-1
25 13 m 2,29,-1
 25 99 l 2,30,31
 25 112 25 112 38 112 c 2,32,-1
 337 112 l 2,33,34
 407 112 407 112 407 46 c 2,35,-1
 407 13 l 2,36,37
 407 0 407 0 393 0 c 2,38,-1
 38 0 l 2,39,40
 25 0 25 0 25 13 c 2,29,-1
EndSplineSet
Validated: 1
EndChar

StartChar: twosuperior
Encoding: 178 178 112
Width: 331
GlyphClass: 1
Flags: W
LayerCount: 2
Fore
SplineSet
172 308 m 1,0,-1
 266 308 l 2,1,2
 309 308 309 308 309 269 c 2,3,-1
 309 228 l 2,4,5
 309 217 309 217 298 217 c 2,6,-1
 39 217 l 2,7,8
 28 217 28 217 28 228 c 0,9,10
 28 276 28 276 44.5 307.5 c 128,-1,11
 61 339 61 339 84.5 359.5 c 128,-1,12
 108 380 108 380 132 394 c 128,-1,13
 156 408 156 408 172.5 420 c 128,-1,14
 189 432 189 432 189 448 c 0,15,16
 189 462 189 462 179.5 467.5 c 128,-1,17
 170 473 170 473 154 473 c 0,18,19
 132 473 132 473 111.5 464.5 c 128,-1,20
 91 456 91 456 74 447 c 0,21,22
 61 439 61 439 56 451 c 2,23,-1
 36 494 l 2,24,25
 28 513 28 513 35 525 c 128,-1,26
 42 537 42 537 64 547 c 0,27,28
 81 555 81 555 106.5 560.5 c 128,-1,29
 132 566 132 566 165 566 c 0,30,31
 227 566 227 566 263.5 541.5 c 128,-1,32
 300 517 300 517 300 466 c 0,33,34
 300 427 300 427 282 401.5 c 128,-1,35
 264 376 264 376 240 359.5 c 128,-1,36
 216 343 216 343 196 331.5 c 128,-1,37
 176 320 176 320 172 308 c 1,0,-1
EndSplineSet
Validated: 1
EndChar

StartChar: threesuperior
Encoding: 179 179 113
Width: 324
GlyphClass: 1
Flags: W
LayerCount: 2
Fore
SplineSet
254 398 m 1,0,1
 279 386 279 386 290 365.5 c 128,-1,2
 301 345 301 345 301 318 c 0,3,4
 301 272 301 272 265.5 240.5 c 128,-1,5
 230 209 230 209 167 209 c 0,6,7
 121 209 121 209 90 226 c 128,-1,8
 59 243 59 243 43.5 269 c 128,-1,9
 28 295 28 295 28 322 c 0,10,11
 28 338 28 338 41 338 c 0,12,13
 48 338 48 338 55 331 c 0,14,15
 65 321 65 321 90 309 c 128,-1,16
 115 297 115 297 148 297 c 0,17,18
 199 297 199 297 199 327 c 0,19,20
 199 339 199 339 188 343.5 c 128,-1,21
 177 348 177 348 160 348 c 2,22,-1
 128 348 l 2,23,24
 106 348 106 348 97 355.5 c 128,-1,25
 88 363 88 363 88 382 c 2,26,-1
 88 421 l 2,27,28
 88 433 88 433 97 433 c 2,29,-1
 138 433 l 2,30,31
 164 433 164 433 175.5 438.5 c 128,-1,32
 187 444 187 444 187 457 c 0,33,34
 187 479 187 479 147 479 c 0,35,36
 122 479 122 479 104.5 472.5 c 128,-1,37
 87 466 87 466 70 458 c 0,38,39
 56 450 56 450 51 461 c 2,40,-1
 36 497 l 2,41,42
 21 533 21 533 64 549 c 0,43,44
 81 556 81 556 106 561 c 128,-1,45
 131 566 131 566 159 566 c 0,46,47
 215 566 215 566 252 543.5 c 128,-1,48
 289 521 289 521 289 474 c 0,49,50
 289 448 289 448 280 429.5 c 128,-1,51
 271 411 271 411 254 398 c 1,0,1
EndSplineSet
Validated: 33
EndChar

StartChar: acute
Encoding: 180 180 114
Width: 259
GlyphClass: 1
Flags: W
LayerCount: 2
Fore
SplineSet
13 426 m 2,0,1
 6 426 6 426 4.5 431.5 c 128,-1,2
 3 437 3 437 7 441 c 2,3,-1
 107 532 l 2,4,5
 119 543 119 543 137 543 c 2,6,-1
 252 543 l 2,7,8
 259 543 259 543 260.5 537.5 c 128,-1,9
 262 532 262 532 257 528 c 2,10,-1
 151 438 l 2,11,12
 138 426 138 426 115 426 c 2,13,-1
 13 426 l 2,0,1
EndSplineSet
Validated: 1
EndChar

StartChar: paragraph
Encoding: 182 182 115
Width: 449
GlyphClass: 1
Flags: W
LayerCount: 2
Fore
SplineSet
270 484 m 1,0,-1
 270 12 l 2,1,2
 270 0 270 0 258 0 c 2,3,-1
 195 0 l 2,4,5
 183 0 183 0 183 12 c 2,6,-1
 183 222 l 1,7,8
 110 227 110 227 67 274 c 128,-1,9
 24 321 24 321 24 391 c 0,10,11
 24 463 24 463 69 509.5 c 128,-1,12
 114 556 114 556 215 556 c 2,13,-1
 307 556 l 2,14,15
 355 556 355 556 379 533.5 c 128,-1,16
 403 511 403 511 403 458 c 2,17,-1
 403 12 l 2,18,19
 403 0 403 0 392 0 c 2,20,-1
 329 0 l 2,21,22
 317 0 317 0 317 12 c 2,23,-1
 317 484 l 1,24,-1
 270 484 l 1,0,-1
EndSplineSet
Validated: 1
EndChar

StartChar: periodcentered
Encoding: 183 183 116
Width: 194
GlyphClass: 1
Flags: W
LayerCount: 2
Fore
SplineSet
20 281 m 0,0,1
 20 316 20 316 42.5 337.5 c 128,-1,2
 65 359 65 359 97 359 c 0,3,4
 131 359 131 359 152.5 337.5 c 128,-1,5
 174 316 174 316 174 281 c 0,6,7
 174 248 174 248 152.5 226.5 c 128,-1,8
 131 205 131 205 97 205 c 0,9,10
 65 205 65 205 42.5 226.5 c 128,-1,11
 20 248 20 248 20 281 c 0,0,1
EndSplineSet
Validated: 1
EndChar

StartChar: cedilla
Encoding: 184 184 117
Width: 180
GlyphClass: 1
Flags: W
LayerCount: 2
Fore
SplineSet
11 -127 m 2,0,1
 4 -127 4 -127 3 -122 c 128,-1,2
 2 -117 2 -117 5 -112 c 2,3,-1
 72 -7 l 2,4,5
 77 1 77 1 84.5 3 c 128,-1,6
 92 5 92 5 101 5 c 2,7,-1
 173 5 l 2,8,9
 185 5 185 5 180 -7 c 2,10,-1
 135 -110 l 2,11,12
 131 -120 131 -120 123 -123.5 c 128,-1,13
 115 -127 115 -127 104 -127 c 2,14,-1
 11 -127 l 2,0,1
EndSplineSet
Validated: 1
EndChar

StartChar: onesuperior
Encoding: 185 185 118
Width: 256
GlyphClass: 1
Flags: W
LayerCount: 2
Fore
SplineSet
99 449 m 1,0,-1
 48 432 l 2,1,2
 43 430 43 430 39 432 c 128,-1,3
 35 434 35 434 35 439 c 2,4,-1
 35 519 l 2,5,6
 35 535 35 535 50 539 c 2,7,-1
 80 549 l 2,8,9
 86 551 86 551 95 553.5 c 128,-1,10
 104 556 104 556 112 556 c 2,11,-1
 167 556 l 2,12,13
 211 556 211 556 211 516 c 2,14,-1
 211 228 l 2,15,16
 211 217 211 217 200 217 c 2,17,-1
 110 217 l 2,18,19
 99 217 99 217 99 228 c 2,20,-1
 99 449 l 1,0,-1
EndSplineSet
Validated: 1
EndChar

StartChar: ordmasculine
Encoding: 186 186 119
Width: 373
GlyphClass: 1
Flags: W
LayerCount: 2
Fore
SplineSet
15 403 m 0,0,1
 15 477 15 477 61 520.5 c 128,-1,2
 107 564 107 564 186 564 c 256,3,4
 265 564 265 564 311.5 520.5 c 128,-1,5
 358 477 358 477 358 403 c 0,6,7
 358 330 358 330 312 285 c 128,-1,8
 266 240 266 240 188 240 c 0,9,10
 109 240 109 240 62 285 c 128,-1,11
 15 330 15 330 15 403 c 0,0,1
186 341 m 256,12,13
 211 341 211 341 226 357 c 128,-1,14
 241 373 241 373 241 402 c 256,15,16
 241 431 241 431 226 446.5 c 128,-1,17
 211 462 211 462 187 462 c 0,18,19
 133 462 133 462 133 402 c 0,20,21
 133 373 133 373 147 357 c 128,-1,22
 161 341 161 341 186 341 c 256,12,13
EndSplineSet
Validated: 1
EndChar

StartChar: guillemotright
Encoding: 187 187 120
Width: 472
GlyphClass: 1
Flags: W
LayerCount: 2
Fore
SplineSet
327 200 m 1,0,-1
 214 349 l 2,1,2
 210 354 210 354 212.5 358 c 128,-1,3
 215 362 215 362 220 362 c 2,4,-1
 315 362 l 2,5,6
 333 362 333 362 343 349 c 2,7,-1
 448 214 l 2,8,9
 454 207 454 207 454 200 c 0,10,11
 454 194 454 194 448 186 c 2,12,-1
 342 51 l 2,13,14
 332 38 332 38 314 38 c 2,15,-1
 219 38 l 2,16,17
 214 38 214 38 211.5 42.5 c 128,-1,18
 209 47 209 47 213 51 c 2,19,-1
 327 200 l 1,0,-1
139 200 m 1,20,-1
 26 349 l 2,21,22
 22 354 22 354 24.5 358 c 128,-1,23
 27 362 27 362 32 362 c 2,24,-1
 127 362 l 2,25,26
 145 362 145 362 155 349 c 2,27,-1
 260 214 l 2,28,29
 267 205 267 205 267 200 c 256,30,31
 267 195 267 195 260 186 c 2,32,-1
 154 51 l 2,33,34
 144 38 144 38 126 38 c 2,35,-1
 31 38 l 2,36,37
 26 38 26 38 23.5 42.5 c 128,-1,38
 21 47 21 47 25 51 c 2,39,-1
 139 200 l 1,20,-1
EndSplineSet
Validated: 1
EndChar

StartChar: onequarter
Encoding: 188 188 121
Width: 752
GlyphClass: 1
Flags: W
LayerCount: 2
Fore
SplineSet
99 449 m 1,0,-1
 48 432 l 2,1,2
 43 430 43 430 39 432 c 128,-1,3
 35 434 35 434 35 439 c 2,4,-1
 35 519 l 2,5,6
 35 535 35 535 50 539 c 2,7,-1
 80 549 l 2,8,9
 86 551 86 551 95 553.5 c 128,-1,10
 104 556 104 556 112 556 c 2,11,-1
 167 556 l 2,12,13
 211 556 211 556 211 516 c 2,14,-1
 211 228 l 2,15,16
 211 217 211 217 200 217 c 2,17,-1
 110 217 l 2,18,19
 99 217 99 217 99 228 c 2,20,-1
 99 449 l 1,0,-1
143 0 m 2,21,22
 136 0 136 0 134.5 4.5 c 128,-1,23
 133 9 133 9 135 13 c 2,24,-1
 426 542 l 2,25,26
 434 556 434 556 447 556 c 2,27,-1
 477 556 l 2,28,29
 510 556 510 556 521.5 534.5 c 128,-1,30
 533 513 533 513 516 482 c 2,31,-1
 259 13 l 2,32,33
 252 0 252 0 240 0 c 2,34,-1
 143 0 l 2,21,22
558 64 m 1,35,-1
 401 64 l 2,36,37
 389 64 389 64 389 75 c 2,38,-1
 389 127 l 2,39,40
 389 132 389 132 390 136 c 128,-1,41
 391 140 391 140 396 146 c 2,42,-1
 517 324 l 2,43,44
 521 330 521 330 526.5 334.5 c 128,-1,45
 532 339 532 339 544 339 c 2,46,-1
 616 339 l 2,47,48
 659 339 659 339 659 299 c 2,49,-1
 659 148 l 1,50,-1
 675 148 l 2,51,52
 719 148 719 148 719 108 c 2,53,-1
 719 74 l 2,54,55
 719 64 719 64 709 64 c 2,56,-1
 659 64 l 1,57,-1
 659 11 l 2,58,59
 659 0 659 0 648 0 c 2,60,-1
 569 0 l 2,61,62
 558 0 558 0 558 11 c 2,63,-1
 558 64 l 1,35,-1
494 148 m 1,64,-1
 558 148 l 1,65,-1
 558 244 l 1,66,-1
 494 148 l 1,64,-1
EndSplineSet
Validated: 33
Ligature2: "'frac' Diagonal Fractions lookup 4 subtable" one fraction four
Ligature2: "'frac' Diagonal Fractions lookup 4 subtable" one slash four
EndChar

StartChar: onehalf
Encoding: 189 189 122
Width: 785
GlyphClass: 1
Flags: W
LayerCount: 2
Fore
SplineSet
99 449 m 1,0,-1
 48 432 l 2,1,2
 43 430 43 430 39 432 c 128,-1,3
 35 434 35 434 35 439 c 2,4,-1
 35 519 l 2,5,6
 35 535 35 535 50 539 c 2,7,-1
 80 549 l 2,8,9
 86 551 86 551 95 553.5 c 128,-1,10
 104 556 104 556 112 556 c 2,11,-1
 167 556 l 2,12,13
 211 556 211 556 211 516 c 2,14,-1
 211 228 l 2,15,16
 211 217 211 217 200 217 c 2,17,-1
 110 217 l 2,18,19
 99 217 99 217 99 228 c 2,20,-1
 99 449 l 1,0,-1
143 0 m 2,21,22
 136 0 136 0 134.5 4.5 c 128,-1,23
 133 9 133 9 135 13 c 2,24,-1
 426 542 l 2,25,26
 434 556 434 556 447 556 c 2,27,-1
 477 556 l 2,28,29
 510 556 510 556 521.5 534.5 c 128,-1,30
 533 513 533 513 516 482 c 2,31,-1
 259 13 l 2,32,33
 252 0 252 0 240 0 c 2,34,-1
 143 0 l 2,21,22
596 92 m 1,35,-1
 689 92 l 2,36,37
 733 92 733 92 733 53 c 2,38,-1
 733 11 l 2,39,40
 733 0 733 0 722 0 c 2,41,-1
 462 0 l 2,42,43
 452 0 452 0 452 11 c 0,44,45
 452 59 452 59 468.5 91 c 128,-1,46
 485 123 485 123 509 143.5 c 128,-1,47
 533 164 533 164 556.5 177.5 c 128,-1,48
 580 191 580 191 596.5 203 c 128,-1,49
 613 215 613 215 613 231 c 0,50,51
 613 245 613 245 603.5 251.5 c 128,-1,52
 594 258 594 258 578 258 c 0,53,54
 556 258 556 258 535 249.5 c 128,-1,55
 514 241 514 241 497 230 c 0,56,57
 484 222 484 222 479 234 c 2,58,-1
 459 278 l 2,59,60
 452 297 452 297 458.5 308.5 c 128,-1,61
 465 320 465 320 487 329 c 0,62,63
 504 337 504 337 530.5 343 c 128,-1,64
 557 349 557 349 589 349 c 0,65,66
 651 349 651 349 687.5 325 c 128,-1,67
 724 301 724 301 724 250 c 0,68,69
 724 210 724 210 706 184.5 c 128,-1,70
 688 159 688 159 664 142.5 c 128,-1,71
 640 126 640 126 620 114.5 c 128,-1,72
 600 103 600 103 596 92 c 1,35,-1
EndSplineSet
Validated: 33
Ligature2: "'frac' Diagonal Fractions lookup 4 subtable" one fraction two
Ligature2: "'frac' Diagonal Fractions lookup 4 subtable" one slash two
EndChar

StartChar: threequarters
Encoding: 190 190 123
Width: 804
GlyphClass: 1
Flags: W
LayerCount: 2
Fore
SplineSet
254 398 m 1,0,1
 279 386 279 386 290 365.5 c 128,-1,2
 301 345 301 345 301 318 c 0,3,4
 301 272 301 272 265.5 240.5 c 128,-1,5
 230 209 230 209 167 209 c 0,6,7
 121 209 121 209 90 226 c 128,-1,8
 59 243 59 243 43.5 269 c 128,-1,9
 28 295 28 295 28 322 c 0,10,11
 28 338 28 338 41 338 c 0,12,13
 48 338 48 338 55 331 c 0,14,15
 65 321 65 321 90 309 c 128,-1,16
 115 297 115 297 148 297 c 0,17,18
 199 297 199 297 199 327 c 0,19,20
 199 339 199 339 188 343.5 c 128,-1,21
 177 348 177 348 160 348 c 2,22,-1
 128 348 l 2,23,24
 106 348 106 348 97 355.5 c 128,-1,25
 88 363 88 363 88 382 c 2,26,-1
 88 421 l 2,27,28
 88 433 88 433 97 433 c 2,29,-1
 138 433 l 2,30,31
 164 433 164 433 175.5 438.5 c 128,-1,32
 187 444 187 444 187 457 c 0,33,34
 187 479 187 479 147 479 c 0,35,36
 122 479 122 479 104.5 472.5 c 128,-1,37
 87 466 87 466 70 458 c 0,38,39
 56 450 56 450 51 461 c 2,40,-1
 36 497 l 2,41,42
 21 533 21 533 64 549 c 0,43,44
 81 556 81 556 106 561 c 128,-1,45
 131 566 131 566 159 566 c 0,46,47
 215 566 215 566 252 543.5 c 128,-1,48
 289 521 289 521 289 474 c 0,49,50
 289 448 289 448 280 429.5 c 128,-1,51
 271 411 271 411 254 398 c 1,0,1
197 0 m 2,52,53
 190 0 190 0 188.5 4.5 c 128,-1,54
 187 9 187 9 189 13 c 2,55,-1
 479 542 l 2,56,57
 487 556 487 556 499 556 c 2,58,-1
 532 556 l 2,59,60
 564 556 564 556 575 534.5 c 128,-1,61
 586 513 586 513 569 482 c 2,62,-1
 313 13 l 2,63,64
 306 0 306 0 293 0 c 2,65,-1
 197 0 l 2,52,53
613 64 m 1,66,-1
 454 64 l 2,67,68
 444 64 444 64 444 75 c 2,69,-1
 444 127 l 2,70,71
 444 136 444 136 450 146 c 2,72,-1
 570 324 l 2,73,74
 575 330 575 330 580.5 334.5 c 128,-1,75
 586 339 586 339 598 339 c 2,76,-1
 669 339 l 2,77,78
 713 339 713 339 713 299 c 2,79,-1
 713 148 l 1,80,-1
 729 148 l 2,81,82
 773 148 773 148 773 108 c 2,83,-1
 773 74 l 2,84,85
 773 64 773 64 763 64 c 2,86,-1
 713 64 l 1,87,-1
 713 11 l 2,88,89
 713 0 713 0 702 0 c 2,90,-1
 623 0 l 2,91,92
 613 0 613 0 613 11 c 2,93,-1
 613 64 l 1,66,-1
549 148 m 1,94,-1
 613 148 l 1,95,-1
 613 244 l 1,96,-1
 549 148 l 1,94,-1
EndSplineSet
Validated: 33
Ligature2: "'frac' Diagonal Fractions lookup 4 subtable" three fraction four
Ligature2: "'frac' Diagonal Fractions lookup 4 subtable" three slash four
EndChar

StartChar: questiondown
Encoding: 191 191 124
Width: 363
GlyphClass: 1
Flags: W
LayerCount: 2
Fore
SplineSet
217 242 m 0,0,1
 183 242 183 242 161.5 263.5 c 128,-1,2
 140 285 140 285 140 319 c 256,3,4
 140 353 140 353 161.5 375 c 128,-1,5
 183 397 183 397 217 397 c 0,6,7
 250 397 250 397 272.5 375 c 128,-1,8
 295 353 295 353 295 319 c 256,9,10
 295 285 295 285 272.5 263.5 c 128,-1,11
 250 242 250 242 217 242 c 0,0,1
9 -34 m 0,12,13
 9 11 9 11 26 42 c 128,-1,14
 43 73 43 73 74.5 100 c 128,-1,15
 106 127 106 127 148 158 c 0,16,17
 162 168 162 168 162 181 c 2,18,-1
 162 195 l 2,19,20
 162 217 162 217 185 217 c 2,21,-1
 208 217 l 2,22,23
 237 217 237 217 256.5 199 c 128,-1,24
 276 181 276 181 276 156 c 0,25,26
 276 132 276 132 263 114.5 c 128,-1,27
 250 97 250 97 231 82.5 c 128,-1,28
 212 68 212 68 193 54 c 128,-1,29
 174 40 174 40 161 23.5 c 128,-1,30
 148 7 148 7 148 -14 c 0,31,32
 148 -62 148 -62 208 -62 c 0,33,34
 247 -62 247 -62 278.5 -51.5 c 128,-1,35
 310 -41 310 -41 340 -26 c 0,36,37
 348 -22 348 -22 353 -22 c 0,38,39
 360 -22 360 -22 363 -31 c 2,40,-1
 391 -111 l 2,41,42
 393 -118 393 -118 391.5 -124 c 128,-1,43
 390 -130 390 -130 382 -135 c 0,44,45
 341 -157 341 -157 298.5 -170 c 128,-1,46
 256 -183 256 -183 205 -183 c 0,47,48
 150 -183 150 -183 105.5 -166.5 c 128,-1,49
 61 -150 61 -150 35 -116.5 c 128,-1,50
 9 -83 9 -83 9 -34 c 0,12,13
EndSplineSet
Validated: 1
EndChar

StartChar: Agrave
Encoding: 192 192 125
Width: 538
GlyphClass: 1
Flags: W
LayerCount: 2
Fore
SplineSet
124 687 m 2,0,1
 119 691 119 691 120.5 696.5 c 128,-1,2
 122 702 122 702 129 702 c 2,3,-1
 244 702 l 2,4,5
 260 702 260 702 274 691 c 2,6,-1
 374 600 l 2,7,8
 379 596 379 596 377 590.5 c 128,-1,9
 375 585 375 585 368 585 c 2,10,-1
 266 585 l 2,11,12
 243 585 243 585 230 597 c 2,13,-1
 124 687 l 2,0,1
180 125 m 1,14,-1
 142 13 l 2,15,16
 138 0 138 0 127 0 c 2,17,-1
 14 0 l 2,18,19
 8 0 8 0 6 4.5 c 128,-1,20
 4 9 4 9 5 13 c 2,21,-1
 191 544 l 2,22,23
 196 556 196 556 206 556 c 2,24,-1
 265 556 l 2,25,26
 307 556 307 556 330 537.5 c 128,-1,27
 353 519 353 519 372 466 c 2,28,-1
 535 13 l 2,29,30
 536 9 536 9 534 4.5 c 128,-1,31
 532 0 532 0 525 0 c 2,32,-1
 410 0 l 2,33,34
 397 0 397 0 390 13 c 2,35,-1
 352 125 l 1,36,-1
 180 125 l 1,14,-1
219 241 m 1,37,-1
 315 241 l 1,38,-1
 266 384 l 1,39,-1
 219 241 l 1,37,-1
EndSplineSet
Validated: 1
EndChar

StartChar: Aacute
Encoding: 193 193 126
Width: 538
GlyphClass: 1
Flags: W
LayerCount: 2
Fore
SplineSet
161 585 m 2,0,1
 154 585 154 585 153 590.5 c 128,-1,2
 152 596 152 596 156 600 c 2,3,-1
 256 691 l 2,4,5
 270 702 270 702 286 702 c 2,6,-1
 401 702 l 2,7,8
 408 702 408 702 409.5 696.5 c 128,-1,9
 411 691 411 691 406 687 c 2,10,-1
 300 597 l 2,11,12
 287 585 287 585 264 585 c 2,13,-1
 161 585 l 2,0,1
180 125 m 1,14,-1
 142 13 l 2,15,16
 138 0 138 0 127 0 c 2,17,-1
 14 0 l 2,18,19
 8 0 8 0 6 4.5 c 128,-1,20
 4 9 4 9 5 13 c 2,21,-1
 191 544 l 2,22,23
 196 556 196 556 206 556 c 2,24,-1
 265 556 l 2,25,26
 307 556 307 556 330 537.5 c 128,-1,27
 353 519 353 519 372 466 c 2,28,-1
 535 13 l 2,29,30
 536 9 536 9 534 4.5 c 128,-1,31
 532 0 532 0 525 0 c 2,32,-1
 410 0 l 2,33,34
 397 0 397 0 390 13 c 2,35,-1
 352 125 l 1,36,-1
 180 125 l 1,14,-1
219 241 m 1,37,-1
 315 241 l 1,38,-1
 266 384 l 1,39,-1
 219 241 l 1,37,-1
EndSplineSet
Validated: 1
EndChar

StartChar: Acircumflex
Encoding: 194 194 127
Width: 538
GlyphClass: 1
Flags: W
LayerCount: 2
Fore
SplineSet
275 642 m 1,0,-1
 237 599 l 2,1,2
 226 585 226 585 204 585 c 2,3,-1
 114 585 l 2,4,5
 107 585 107 585 105 590.5 c 128,-1,6
 103 596 103 596 107 600 c 2,7,-1
 194 691 l 2,8,9
 201 699 201 699 207.5 700.5 c 128,-1,10
 214 702 214 702 224 702 c 2,11,-1
 325 702 l 2,12,13
 335 702 335 702 341.5 700.5 c 128,-1,14
 348 699 348 699 355 691 c 2,15,-1
 441 600 l 2,16,17
 445 596 445 596 443.5 590.5 c 128,-1,18
 442 585 442 585 435 585 c 2,19,-1
 345 585 l 2,20,21
 324 585 324 585 311 599 c 2,22,-1
 275 642 l 1,0,-1
180 125 m 1,23,-1
 142 13 l 2,24,25
 138 0 138 0 127 0 c 2,26,-1
 14 0 l 2,27,28
 8 0 8 0 6 4.5 c 128,-1,29
 4 9 4 9 5 13 c 2,30,-1
 191 544 l 2,31,32
 196 556 196 556 206 556 c 2,33,-1
 265 556 l 2,34,35
 307 556 307 556 330 537.5 c 128,-1,36
 353 519 353 519 372 466 c 2,37,-1
 535 13 l 2,38,39
 536 9 536 9 534 4.5 c 128,-1,40
 532 0 532 0 525 0 c 2,41,-1
 410 0 l 2,42,43
 397 0 397 0 390 13 c 2,44,-1
 352 125 l 1,45,-1
 180 125 l 1,23,-1
219 241 m 1,46,-1
 315 241 l 1,47,-1
 266 384 l 1,48,-1
 219 241 l 1,46,-1
EndSplineSet
Validated: 1
EndChar

StartChar: Atilde
Encoding: 195 195 128
Width: 538
GlyphClass: 1
Flags: W
LayerCount: 2
Fore
SplineSet
114 581 m 2,0,1
 102 581 102 581 102 594 c 0,2,3
 104 648 104 648 128.5 677 c 128,-1,4
 153 706 153 706 189 706 c 0,5,6
 215 706 215 706 237 699 c 128,-1,7
 259 692 259 692 277.5 684.5 c 128,-1,8
 296 677 296 677 309 677 c 0,9,10
 319 677 319 677 323 681.5 c 128,-1,11
 327 686 327 686 331 697 c 0,12,13
 334 709 334 709 344 709 c 2,14,-1
 400 709 l 2,15,16
 413 709 413 709 411 696 c 0,17,18
 407 647 407 647 388 617 c 128,-1,19
 369 587 369 587 324 587 c 0,20,21
 303 587 303 587 280 593.5 c 128,-1,22
 257 600 257 600 237.5 606.5 c 128,-1,23
 218 613 218 613 209 613 c 0,24,25
 199 613 199 613 195 607.5 c 128,-1,26
 191 602 191 602 189 593 c 0,27,28
 188 581 188 581 176 581 c 2,29,-1
 114 581 l 2,0,1
180 125 m 1,30,-1
 142 13 l 2,31,32
 138 0 138 0 127 0 c 2,33,-1
 14 0 l 2,34,35
 8 0 8 0 6 4.5 c 128,-1,36
 4 9 4 9 5 13 c 2,37,-1
 191 544 l 2,38,39
 196 556 196 556 206 556 c 2,40,-1
 265 556 l 2,41,42
 307 556 307 556 330 537.5 c 128,-1,43
 353 519 353 519 372 466 c 2,44,-1
 535 13 l 2,45,46
 536 9 536 9 534 4.5 c 128,-1,47
 532 0 532 0 525 0 c 2,48,-1
 410 0 l 2,49,50
 397 0 397 0 390 13 c 2,51,-1
 352 125 l 1,52,-1
 180 125 l 1,30,-1
219 241 m 1,53,-1
 315 241 l 1,54,-1
 266 384 l 1,55,-1
 219 241 l 1,53,-1
EndSplineSet
Validated: 1
EndChar

StartChar: Adieresis
Encoding: 196 196 129
Width: 538
GlyphClass: 1
Flags: W
LayerCount: 2
Fore
SplineSet
109 643 m 0,0,1
 109 672 109 672 129.5 693 c 128,-1,2
 150 714 150 714 180 714 c 256,3,4
 210 714 210 714 231 693 c 128,-1,5
 252 672 252 672 252 643 c 0,6,7
 252 613 252 613 231 592 c 128,-1,8
 210 571 210 571 180 571 c 256,9,10
 150 571 150 571 129.5 592 c 128,-1,11
 109 613 109 613 109 643 c 0,0,1
280 643 m 0,12,13
 280 672 280 672 300.5 693 c 128,-1,14
 321 714 321 714 351 714 c 256,15,16
 381 714 381 714 401.5 693 c 128,-1,17
 422 672 422 672 422 643 c 0,18,19
 422 613 422 613 401.5 592 c 128,-1,20
 381 571 381 571 351 571 c 256,21,22
 321 571 321 571 300.5 592 c 128,-1,23
 280 613 280 613 280 643 c 0,12,13
180 125 m 1,24,-1
 142 13 l 2,25,26
 138 0 138 0 127 0 c 2,27,-1
 14 0 l 2,28,29
 8 0 8 0 6 4.5 c 128,-1,30
 4 9 4 9 5 13 c 2,31,-1
 191 544 l 2,32,33
 196 556 196 556 206 556 c 2,34,-1
 265 556 l 2,35,36
 307 556 307 556 330 537.5 c 128,-1,37
 353 519 353 519 372 466 c 2,38,-1
 535 13 l 2,39,40
 536 9 536 9 534 4.5 c 128,-1,41
 532 0 532 0 525 0 c 2,42,-1
 410 0 l 2,43,44
 397 0 397 0 390 13 c 2,45,-1
 352 125 l 1,46,-1
 180 125 l 1,24,-1
219 241 m 1,47,-1
 315 241 l 1,48,-1
 266 384 l 1,49,-1
 219 241 l 1,47,-1
EndSplineSet
Validated: 1
EndChar

StartChar: Aring
Encoding: 197 197 130
Width: 538
GlyphClass: 1
Flags: W
LayerCount: 2
Fore
SplineSet
172 663 m 0,0,1
 172 701 172 701 199.5 727 c 128,-1,2
 227 753 227 753 266 753 c 0,3,4
 304 753 304 753 331 727 c 128,-1,5
 358 701 358 701 358 663 c 0,6,7
 358 624 358 624 331 597.5 c 128,-1,8
 304 571 304 571 266 571 c 0,9,10
 227 571 227 571 199.5 597.5 c 128,-1,11
 172 624 172 624 172 663 c 0,0,1
266 632 m 0,12,13
 277 632 277 632 286 641 c 128,-1,14
 295 650 295 650 295 663 c 0,15,16
 295 674 295 674 286 683 c 128,-1,17
 277 692 277 692 266 692 c 0,18,19
 254 692 254 692 245 683 c 128,-1,20
 236 674 236 674 236 663 c 0,21,22
 236 650 236 650 245 641 c 128,-1,23
 254 632 254 632 266 632 c 0,12,13
180 125 m 1,24,-1
 142 13 l 2,25,26
 138 0 138 0 127 0 c 2,27,-1
 14 0 l 2,28,29
 8 0 8 0 6 4.5 c 128,-1,30
 4 9 4 9 5 13 c 2,31,-1
 191 544 l 2,32,33
 196 556 196 556 206 556 c 2,34,-1
 265 556 l 2,35,36
 307 556 307 556 330 537.5 c 128,-1,37
 353 519 353 519 372 466 c 2,38,-1
 535 13 l 2,39,40
 536 9 536 9 534 4.5 c 128,-1,41
 532 0 532 0 525 0 c 2,42,-1
 410 0 l 2,43,44
 397 0 397 0 390 13 c 2,45,-1
 352 125 l 1,46,-1
 180 125 l 1,24,-1
219 241 m 1,47,-1
 315 241 l 1,48,-1
 266 384 l 1,49,-1
 219 241 l 1,47,-1
EndSplineSet
Validated: 1
EndChar

StartChar: AE
Encoding: 198 198 131
Width: 747
GlyphClass: 1
Flags: W
LayerCount: 2
Fore
SplineSet
208 118 m 1,0,-1
 154 13 l 2,1,2
 148 0 148 0 133 0 c 2,3,-1
 13 0 l 2,4,5
 7 0 7 0 4.5 4 c 128,-1,6
 2 8 2 8 5 13 c 2,7,-1
 289 542 l 2,8,9
 297 556 297 556 312 556 c 2,10,-1
 654 556 l 2,11,12
 689 556 689 556 706.5 538 c 128,-1,13
 724 520 724 520 724 488 c 2,14,-1
 724 448 l 2,15,16
 724 431 724 431 708 431 c 2,17,-1
 506 431 l 1,18,-1
 506 344 l 1,19,-1
 636 344 l 2,20,21
 670 344 670 344 687.5 326.5 c 128,-1,22
 705 309 705 309 705 277 c 2,23,-1
 705 238 l 2,24,25
 705 221 705 221 689 221 c 2,26,-1
 506 221 l 1,27,-1
 506 125 l 1,28,-1
 662 125 l 2,29,30
 732 125 732 125 732 59 c 2,31,-1
 732 17 l 2,32,33
 732 0 732 0 716 0 c 2,34,-1
 384 0 l 2,35,36
 371 0 371 0 371 13 c 2,37,-1
 371 118 l 1,38,-1
 208 118 l 1,0,-1
269 234 m 1,39,-1
 371 234 l 1,40,-1
 371 432 l 1,41,-1
 269 234 l 1,39,-1
EndSplineSet
Validated: 1
EndChar

StartChar: Ccedilla
Encoding: 199 199 132
Width: 507
GlyphClass: 1
Flags: W
LayerCount: 2
Fore
SplineSet
341 -5 m 1,0,-1
 295 -110 l 2,1,2
 290 -120 290 -120 282 -123.5 c 128,-1,3
 274 -127 274 -127 265 -127 c 2,4,-1
 171 -127 l 2,5,6
 164 -127 164 -127 163 -122 c 128,-1,7
 162 -117 162 -117 165 -112 c 2,8,-1
 235 -3 l 1,9,10
 144 15 144 15 89 88 c 128,-1,11
 34 161 34 161 34 276 c 0,12,13
 34 367 34 367 69 432 c 128,-1,14
 104 497 104 497 165.5 531.5 c 128,-1,15
 227 566 227 566 305 566 c 0,16,17
 340 566 340 566 375 561.5 c 128,-1,18
 410 557 410 557 440 543 c 0,19,20
 499 519 499 519 482 457 c 2,21,-1
 471 413 l 2,22,23
 469 406 469 406 465.5 403.5 c 128,-1,24
 462 401 462 401 458 401 c 256,25,26
 454 401 454 401 447.5 404 c 128,-1,27
 441 407 441 407 436 408 c 0,28,29
 407 423 407 423 378.5 431 c 128,-1,30
 350 439 350 439 309 439 c 0,31,32
 250 439 250 439 211.5 400 c 128,-1,33
 173 361 173 361 173 276 c 0,34,35
 173 196 173 196 214.5 157 c 128,-1,36
 256 118 256 118 318 118 c 0,37,38
 371 118 371 118 404.5 136.5 c 128,-1,39
 438 155 438 155 461 177 c 0,40,41
 464 179 464 179 468.5 182.5 c 128,-1,42
 473 186 473 186 478 186 c 0,43,44
 484 186 484 186 490.5 181 c 128,-1,45
 497 176 497 176 497 159 c 0,46,47
 497 133 497 133 483 98.5 c 128,-1,48
 469 64 469 64 435 34.5 c 128,-1,49
 401 5 401 5 341 -5 c 1,0,-1
EndSplineSet
Validated: 33
EndChar

StartChar: Egrave
Encoding: 200 200 133
Width: 424
GlyphClass: 1
Flags: W
LayerCount: 2
Fore
SplineSet
60 687 m 2,0,1
 56 691 56 691 57.5 696.5 c 128,-1,2
 59 702 59 702 65 702 c 2,3,-1
 181 702 l 2,4,5
 198 702 198 702 210 691 c 2,6,-1
 311 600 l 2,7,8
 316 596 316 596 314 590.5 c 128,-1,9
 312 585 312 585 305 585 c 2,10,-1
 203 585 l 2,11,12
 180 585 180 585 167 597 c 2,13,-1
 60 687 l 2,0,1
182 125 m 1,14,-1
 337 125 l 2,15,16
 407 125 407 125 407 59 c 2,17,-1
 407 17 l 2,18,19
 407 0 407 0 391 0 c 2,20,-1
 59 0 l 2,21,22
 46 0 46 0 46 13 c 2,23,-1
 46 542 l 2,24,25
 46 556 46 556 59 556 c 2,26,-1
 329 556 l 2,27,28
 399 556 399 556 399 489 c 2,29,-1
 399 447 l 2,30,31
 399 430 399 430 383 430 c 2,32,-1
 182 430 l 1,33,-1
 182 344 l 1,34,-1
 310 344 l 2,35,36
 380 344 380 344 380 277 c 2,37,-1
 380 237 l 2,38,39
 380 221 380 221 364 221 c 2,40,-1
 182 221 l 1,41,-1
 182 125 l 1,14,-1
EndSplineSet
Validated: 1
EndChar

StartChar: Eacute
Encoding: 201 201 134
Width: 424
GlyphClass: 1
Flags: W
LayerCount: 2
Fore
SplineSet
117 585 m 2,0,1
 110 585 110 585 108.5 590.5 c 128,-1,2
 107 596 107 596 112 600 c 2,3,-1
 212 691 l 2,4,5
 226 702 226 702 242 702 c 2,6,-1
 357 702 l 2,7,8
 363 702 363 702 365 696.5 c 128,-1,9
 367 691 367 691 362 687 c 2,10,-1
 255 597 l 2,11,12
 242 585 242 585 220 585 c 2,13,-1
 117 585 l 2,0,1
182 125 m 1,14,-1
 337 125 l 2,15,16
 407 125 407 125 407 59 c 2,17,-1
 407 17 l 2,18,19
 407 0 407 0 391 0 c 2,20,-1
 59 0 l 2,21,22
 46 0 46 0 46 13 c 2,23,-1
 46 542 l 2,24,25
 46 556 46 556 59 556 c 2,26,-1
 329 556 l 2,27,28
 399 556 399 556 399 489 c 2,29,-1
 399 447 l 2,30,31
 399 430 399 430 383 430 c 2,32,-1
 182 430 l 1,33,-1
 182 344 l 1,34,-1
 310 344 l 2,35,36
 380 344 380 344 380 277 c 2,37,-1
 380 237 l 2,38,39
 380 221 380 221 364 221 c 2,40,-1
 182 221 l 1,41,-1
 182 125 l 1,14,-1
EndSplineSet
Validated: 1
EndChar

StartChar: Ecircumflex
Encoding: 202 202 135
Width: 424
GlyphClass: 1
Flags: W
LayerCount: 2
Fore
SplineSet
218 642 m 1,0,-1
 181 599 l 2,1,2
 168 585 168 585 148 585 c 2,3,-1
 57 585 l 2,4,5
 50 585 50 585 48.5 590.5 c 128,-1,6
 47 596 47 596 51 600 c 2,7,-1
 138 691 l 2,8,9
 145 699 145 699 151 700.5 c 128,-1,10
 157 702 157 702 167 702 c 2,11,-1
 269 702 l 2,12,13
 279 702 279 702 285 700.5 c 128,-1,14
 291 699 291 699 298 691 c 2,15,-1
 385 600 l 2,16,17
 389 596 389 596 387.5 590.5 c 128,-1,18
 386 585 386 585 379 585 c 2,19,-1
 289 585 l 2,20,21
 268 585 268 585 255 599 c 2,22,-1
 218 642 l 1,0,-1
184 125 m 1,23,-1
 340 125 l 2,24,25
 410 125 410 125 410 59 c 2,26,-1
 410 17 l 2,27,28
 410 0 410 0 394 0 c 2,29,-1
 62 0 l 2,30,31
 49 0 49 0 49 13 c 2,32,-1
 49 542 l 2,33,34
 49 556 49 556 62 556 c 2,35,-1
 332 556 l 2,36,37
 402 556 402 556 402 489 c 2,38,-1
 402 447 l 2,39,40
 402 430 402 430 386 430 c 2,41,-1
 184 430 l 1,42,-1
 184 344 l 1,43,-1
 313 344 l 2,44,45
 383 344 383 344 383 277 c 2,46,-1
 383 237 l 2,47,48
 383 221 383 221 367 221 c 2,49,-1
 184 221 l 1,50,-1
 184 125 l 1,23,-1
EndSplineSet
Validated: 1
EndChar

StartChar: Edieresis
Encoding: 203 203 136
Width: 424
GlyphClass: 1
Flags: W
LayerCount: 2
Fore
SplineSet
64 643 m 0,0,1
 64 672 64 672 85 693 c 128,-1,2
 106 714 106 714 136 714 c 0,3,4
 165 714 165 714 186.5 693 c 128,-1,5
 208 672 208 672 208 643 c 0,6,7
 208 613 208 613 186.5 592 c 128,-1,8
 165 571 165 571 136 571 c 0,9,10
 106 571 106 571 85 592 c 128,-1,11
 64 613 64 613 64 643 c 0,0,1
235 643 m 0,12,13
 235 672 235 672 256 693 c 128,-1,14
 277 714 277 714 307 714 c 256,15,16
 337 714 337 714 357.5 693 c 128,-1,17
 378 672 378 672 378 643 c 0,18,19
 378 613 378 613 357.5 592 c 128,-1,20
 337 571 337 571 307 571 c 256,21,22
 277 571 277 571 256 592 c 128,-1,23
 235 613 235 613 235 643 c 0,12,13
182 125 m 1,24,-1
 337 125 l 2,25,26
 407 125 407 125 407 59 c 2,27,-1
 407 17 l 2,28,29
 407 0 407 0 391 0 c 2,30,-1
 59 0 l 2,31,32
 46 0 46 0 46 13 c 2,33,-1
 46 542 l 2,34,35
 46 556 46 556 59 556 c 2,36,-1
 329 556 l 2,37,38
 399 556 399 556 399 489 c 2,39,-1
 399 447 l 2,40,41
 399 430 399 430 383 430 c 2,42,-1
 182 430 l 1,43,-1
 182 344 l 1,44,-1
 310 344 l 2,45,46
 380 344 380 344 380 277 c 2,47,-1
 380 237 l 2,48,49
 380 221 380 221 364 221 c 2,50,-1
 182 221 l 1,51,-1
 182 125 l 1,24,-1
EndSplineSet
Validated: 1
EndChar

StartChar: Igrave
Encoding: 204 204 137
Width: 227
GlyphClass: 1
Flags: W
LayerCount: 2
Fore
SplineSet
-11 687 m 2,0,1
 -16 691 -16 691 -14.5 696.5 c 128,-1,2
 -13 702 -13 702 -6 702 c 2,3,-1
 109 702 l 2,4,5
 125 702 125 702 139 691 c 2,6,-1
 239 600 l 2,7,8
 244 596 244 596 242 590.5 c 128,-1,9
 240 585 240 585 233 585 c 2,10,-1
 131 585 l 2,11,12
 108 585 108 585 95 597 c 2,13,-1
 -11 687 l 2,0,1
53 13 m 2,14,-1
 53 542 l 2,15,16
 53 556 53 556 66 556 c 2,17,-1
 94 556 l 2,18,19
 142 556 142 556 165.5 533 c 128,-1,20
 189 510 189 510 189 455 c 2,21,-1
 189 13 l 2,22,23
 189 0 189 0 175 0 c 2,24,-1
 66 0 l 2,25,26
 53 0 53 0 53 13 c 2,14,-1
EndSplineSet
Validated: 1
EndChar

StartChar: Iacute
Encoding: 205 205 138
Width: 227
GlyphClass: 1
Flags: W
LayerCount: 2
Fore
SplineSet
-6 585 m 2,0,1
 -13 585 -13 585 -14.5 590.5 c 128,-1,2
 -16 596 -16 596 -12 600 c 2,3,-1
 88 691 l 2,4,5
 102 702 102 702 118 702 c 2,6,-1
 233 702 l 2,7,8
 240 702 240 702 241.5 696.5 c 128,-1,9
 243 691 243 691 238 687 c 2,10,-1
 132 597 l 2,11,12
 119 585 119 585 96 585 c 2,13,-1
 -6 585 l 2,0,1
40 13 m 2,14,-1
 40 542 l 2,15,16
 40 556 40 556 54 556 c 2,17,-1
 81 556 l 2,18,19
 129 556 129 556 152.5 533 c 128,-1,20
 176 510 176 510 176 455 c 2,21,-1
 176 13 l 2,22,23
 176 0 176 0 163 0 c 2,24,-1
 54 0 l 2,25,26
 40 0 40 0 40 13 c 2,14,-1
EndSplineSet
Validated: 1
EndChar

StartChar: Icircumflex
Encoding: 206 206 139
Width: 227
GlyphClass: 1
Flags: W
LayerCount: 2
Fore
SplineSet
113 642 m 1,0,-1
 76 599 l 2,1,2
 63 585 63 585 43 585 c 2,3,-1
 -48 585 l 2,4,5
 -55 585 -55 585 -56.5 590.5 c 128,-1,6
 -58 596 -58 596 -54 600 c 2,7,-1
 33 691 l 2,8,9
 40 699 40 699 46 700.5 c 128,-1,10
 52 702 52 702 62 702 c 2,11,-1
 164 702 l 2,12,13
 174 702 174 702 180 700.5 c 128,-1,14
 186 699 186 699 193 691 c 2,15,-1
 280 600 l 2,16,17
 284 596 284 596 282.5 590.5 c 128,-1,18
 281 585 281 585 274 585 c 2,19,-1
 184 585 l 2,20,21
 163 585 163 585 150 599 c 2,22,-1
 113 642 l 1,0,-1
43 13 m 2,23,-1
 43 542 l 2,24,25
 43 556 43 556 56 556 c 2,26,-1
 84 556 l 2,27,28
 131 556 131 556 154.5 533 c 128,-1,29
 178 510 178 510 178 455 c 2,30,-1
 178 13 l 2,31,32
 178 0 178 0 165 0 c 2,33,-1
 56 0 l 2,34,35
 43 0 43 0 43 13 c 2,23,-1
EndSplineSet
Validated: 1
EndChar

StartChar: Idieresis
Encoding: 207 207 140
Width: 227
GlyphClass: 1
Flags: W
LayerCount: 2
Fore
SplineSet
-44 643 m 0,0,1
 -44 672 -44 672 -23 693 c 128,-1,2
 -2 714 -2 714 28 714 c 0,3,4
 57 714 57 714 78 693 c 128,-1,5
 99 672 99 672 99 643 c 0,6,7
 99 613 99 613 78 592 c 128,-1,8
 57 571 57 571 28 571 c 0,9,10
 -2 571 -2 571 -23 592 c 128,-1,11
 -44 613 -44 613 -44 643 c 0,0,1
127 643 m 0,12,13
 127 672 127 672 148 693 c 128,-1,14
 169 714 169 714 198 714 c 0,15,16
 228 714 228 714 249 693 c 128,-1,17
 270 672 270 672 270 643 c 0,18,19
 270 613 270 613 249 592 c 128,-1,20
 228 571 228 571 198 571 c 0,21,22
 169 571 169 571 148 592 c 128,-1,23
 127 613 127 613 127 643 c 0,12,13
45 13 m 2,24,-1
 45 542 l 2,25,26
 45 556 45 556 59 556 c 2,27,-1
 87 556 l 2,28,29
 134 556 134 556 157.5 533 c 128,-1,30
 181 510 181 510 181 455 c 2,31,-1
 181 13 l 2,32,33
 181 0 181 0 168 0 c 2,34,-1
 59 0 l 2,35,36
 45 0 45 0 45 13 c 2,24,-1
EndSplineSet
Validated: 1
EndChar

StartChar: Eth
Encoding: 208 208 141
Width: 591
GlyphClass: 1
Flags: W
LayerCount: 2
Fore
SplineSet
80 222 m 1,0,-1
 28 222 l 2,1,2
 15 222 15 222 15 235 c 2,3,-1
 15 332 l 2,4,5
 15 344 15 344 28 344 c 2,6,-1
 80 344 l 1,7,-1
 80 542 l 2,8,9
 80 556 80 556 92 556 c 2,10,-1
 264 556 l 2,11,12
 320 556 320 556 372 544 c 128,-1,13
 424 532 424 532 466 502 c 128,-1,14
 508 472 508 472 532.5 420 c 128,-1,15
 557 368 557 368 557 288 c 0,16,17
 557 140 557 140 476 70 c 128,-1,18
 395 0 395 0 258 0 c 2,19,-1
 92 0 l 2,20,21
 80 0 80 0 80 13 c 2,22,-1
 80 222 l 1,0,-1
215 125 m 1,23,-1
 269 125 l 2,24,25
 339 125 339 125 378.5 165 c 128,-1,26
 418 205 418 205 418 284 c 0,27,28
 418 367 418 367 377.5 399 c 128,-1,29
 337 431 337 431 264 431 c 2,30,-1
 215 431 l 1,31,-1
 215 344 l 1,32,-1
 272 344 l 2,33,34
 341 344 341 344 341 278 c 2,35,-1
 341 239 l 2,36,37
 341 222 341 222 324 222 c 2,38,-1
 215 222 l 1,39,-1
 215 125 l 1,23,-1
EndSplineSet
Validated: 1
EndChar

StartChar: Ntilde
Encoding: 209 209 142
Width: 537
GlyphClass: 1
Flags: W
LayerCount: 2
Fore
SplineSet
128 581 m 2,0,1
 117 581 117 581 117 594 c 0,2,3
 119 648 119 648 143 677 c 128,-1,4
 167 706 167 706 203 706 c 0,5,6
 229 706 229 706 251 699 c 128,-1,7
 273 692 273 692 291.5 684.5 c 128,-1,8
 310 677 310 677 323 677 c 0,9,10
 333 677 333 677 337 681.5 c 128,-1,11
 341 686 341 686 345 697 c 0,12,13
 348 709 348 709 358 709 c 2,14,-1
 414 709 l 2,15,16
 428 709 428 709 425 696 c 0,17,18
 421 647 421 647 402 617 c 128,-1,19
 383 587 383 587 338 587 c 0,20,21
 318 587 318 587 294.5 593.5 c 128,-1,22
 271 600 271 600 252 606.5 c 128,-1,23
 233 613 233 613 223 613 c 256,24,25
 213 613 213 613 209 607.5 c 128,-1,26
 205 602 205 602 203 593 c 0,27,28
 202 581 202 581 190 581 c 2,29,-1
 128 581 l 2,0,1
182 297 m 1,30,-1
 182 13 l 2,31,32
 182 0 182 0 168 0 c 2,33,-1
 59 0 l 2,34,35
 46 0 46 0 46 13 c 2,36,-1
 46 542 l 2,37,38
 46 556 46 556 59 556 c 2,39,-1
 111 556 l 2,40,41
 147 556 147 556 168.5 544 c 128,-1,42
 190 532 190 532 209 500 c 2,43,-1
 357 261 l 1,44,-1
 357 542 l 2,45,46
 357 556 357 556 370 556 c 2,47,-1
 398 556 l 2,48,49
 446 556 446 556 469 533 c 128,-1,50
 492 510 492 510 492 455 c 2,51,-1
 492 13 l 2,52,53
 492 0 492 0 479 0 c 2,54,-1
 385 0 l 2,55,56
 364 0 364 0 354 18 c 2,57,-1
 182 297 l 1,30,-1
EndSplineSet
Validated: 1
EndChar

StartChar: Ograve
Encoding: 210 210 143
Width: 606
GlyphClass: 1
Flags: W
LayerCount: 2
Fore
SplineSet
163 687 m 2,0,1
 158 691 158 691 159.5 696.5 c 128,-1,2
 161 702 161 702 168 702 c 2,3,-1
 283 702 l 2,4,5
 299 702 299 702 313 691 c 2,6,-1
 413 600 l 2,7,8
 418 596 418 596 416 590.5 c 128,-1,9
 414 585 414 585 407 585 c 2,10,-1
 305 585 l 2,11,12
 283 585 283 585 270 597 c 2,13,-1
 163 687 l 2,0,1
303 -9 m 256,14,15
 174 -9 174 -9 104 68 c 128,-1,16
 34 145 34 145 34 277 c 0,17,18
 34 366 34 366 66 430.5 c 128,-1,19
 98 495 98 495 158 530.5 c 128,-1,20
 218 566 218 566 303 566 c 256,21,22
 388 566 388 566 448 530.5 c 128,-1,23
 508 495 508 495 540 430.5 c 128,-1,24
 572 366 572 366 572 277 c 0,25,26
 572 145 572 145 502 68 c 128,-1,27
 432 -9 432 -9 303 -9 c 256,14,15
303 118 m 256,28,29
 359 118 359 118 396.5 153.5 c 128,-1,30
 434 189 434 189 434 277 c 0,31,32
 434 367 434 367 396.5 403 c 128,-1,33
 359 439 359 439 303 439 c 256,34,35
 247 439 247 439 209.5 403 c 128,-1,36
 172 367 172 367 172 277 c 0,37,38
 172 189 172 189 209.5 153.5 c 128,-1,39
 247 118 247 118 303 118 c 256,28,29
EndSplineSet
Validated: 1
EndChar

StartChar: Oacute
Encoding: 211 211 144
Width: 606
GlyphClass: 1
Flags: W
LayerCount: 2
Fore
SplineSet
201 585 m 2,0,1
 194 585 194 585 192.5 590.5 c 128,-1,2
 191 596 191 596 195 600 c 2,3,-1
 295 691 l 2,4,5
 309 702 309 702 325 702 c 2,6,-1
 440 702 l 2,7,8
 447 702 447 702 448.5 696.5 c 128,-1,9
 450 691 450 691 445 687 c 2,10,-1
 339 597 l 2,11,12
 326 585 326 585 303 585 c 2,13,-1
 201 585 l 2,0,1
303 -9 m 256,14,15
 174 -9 174 -9 104 68 c 128,-1,16
 34 145 34 145 34 277 c 0,17,18
 34 366 34 366 66 430.5 c 128,-1,19
 98 495 98 495 158 530.5 c 128,-1,20
 218 566 218 566 303 566 c 256,21,22
 388 566 388 566 448 530.5 c 128,-1,23
 508 495 508 495 540 430.5 c 128,-1,24
 572 366 572 366 572 277 c 0,25,26
 572 145 572 145 502 68 c 128,-1,27
 432 -9 432 -9 303 -9 c 256,14,15
303 118 m 256,28,29
 359 118 359 118 396.5 153.5 c 128,-1,30
 434 189 434 189 434 277 c 0,31,32
 434 367 434 367 396.5 403 c 128,-1,33
 359 439 359 439 303 439 c 256,34,35
 247 439 247 439 209.5 403 c 128,-1,36
 172 367 172 367 172 277 c 0,37,38
 172 189 172 189 209.5 153.5 c 128,-1,39
 247 118 247 118 303 118 c 256,28,29
EndSplineSet
Validated: 1
EndChar

StartChar: Ocircumflex
Encoding: 212 212 145
Width: 606
GlyphClass: 1
Flags: W
LayerCount: 2
Fore
SplineSet
308 642 m 1,0,-1
 271 599 l 2,1,2
 258 585 258 585 237 585 c 2,3,-1
 147 585 l 2,4,5
 140 585 140 585 138.5 590.5 c 128,-1,6
 137 596 137 596 141 600 c 2,7,-1
 227 691 l 2,8,9
 234 699 234 699 240.5 700.5 c 128,-1,10
 247 702 247 702 257 702 c 2,11,-1
 358 702 l 2,12,13
 368 702 368 702 374.5 700.5 c 128,-1,14
 381 699 381 699 388 691 c 2,15,-1
 475 600 l 2,16,17
 479 596 479 596 477 590.5 c 128,-1,18
 475 585 475 585 468 585 c 2,19,-1
 378 585 l 2,20,21
 356 585 356 585 345 599 c 2,22,-1
 308 642 l 1,0,-1
303 -9 m 256,23,24
 174 -9 174 -9 104 68 c 128,-1,25
 34 145 34 145 34 277 c 0,26,27
 34 366 34 366 66 430.5 c 128,-1,28
 98 495 98 495 158 530.5 c 128,-1,29
 218 566 218 566 303 566 c 256,30,31
 388 566 388 566 448 530.5 c 128,-1,32
 508 495 508 495 540 430.5 c 128,-1,33
 572 366 572 366 572 277 c 0,34,35
 572 145 572 145 502 68 c 128,-1,36
 432 -9 432 -9 303 -9 c 256,23,24
303 118 m 256,37,38
 359 118 359 118 396.5 153.5 c 128,-1,39
 434 189 434 189 434 277 c 0,40,41
 434 367 434 367 396.5 403 c 128,-1,42
 359 439 359 439 303 439 c 256,43,44
 247 439 247 439 209.5 403 c 128,-1,45
 172 367 172 367 172 277 c 0,46,47
 172 189 172 189 209.5 153.5 c 128,-1,48
 247 118 247 118 303 118 c 256,37,38
EndSplineSet
Validated: 1
EndChar

StartChar: Otilde
Encoding: 213 213 146
Width: 606
GlyphClass: 1
Flags: W
LayerCount: 2
Fore
SplineSet
157 581 m 2,0,1
 146 581 146 581 146 594 c 0,2,3
 148 648 148 648 172.5 677 c 128,-1,4
 197 706 197 706 233 706 c 0,5,6
 258 706 258 706 280.5 699 c 128,-1,7
 303 692 303 692 321.5 684.5 c 128,-1,8
 340 677 340 677 353 677 c 0,9,10
 363 677 363 677 367 681.5 c 128,-1,11
 371 686 371 686 375 697 c 0,12,13
 378 709 378 709 388 709 c 2,14,-1
 444 709 l 2,15,16
 457 709 457 709 455 696 c 0,17,18
 450 647 450 647 431 617 c 128,-1,19
 412 587 412 587 368 587 c 0,20,21
 347 587 347 587 323.5 593.5 c 128,-1,22
 300 600 300 600 281 606.5 c 128,-1,23
 262 613 262 613 252 613 c 256,24,25
 242 613 242 613 238.5 607.5 c 128,-1,26
 235 602 235 602 233 593 c 0,27,28
 232 581 232 581 220 581 c 2,29,-1
 157 581 l 2,0,1
303 -9 m 256,30,31
 174 -9 174 -9 104 68 c 128,-1,32
 34 145 34 145 34 277 c 0,33,34
 34 366 34 366 66 430.5 c 128,-1,35
 98 495 98 495 158 530.5 c 128,-1,36
 218 566 218 566 303 566 c 256,37,38
 388 566 388 566 448 530.5 c 128,-1,39
 508 495 508 495 540 430.5 c 128,-1,40
 572 366 572 366 572 277 c 0,41,42
 572 145 572 145 502 68 c 128,-1,43
 432 -9 432 -9 303 -9 c 256,30,31
303 118 m 256,44,45
 359 118 359 118 396.5 153.5 c 128,-1,46
 434 189 434 189 434 277 c 0,47,48
 434 367 434 367 396.5 403 c 128,-1,49
 359 439 359 439 303 439 c 256,50,51
 247 439 247 439 209.5 403 c 128,-1,52
 172 367 172 367 172 277 c 0,53,54
 172 189 172 189 209.5 153.5 c 128,-1,55
 247 118 247 118 303 118 c 256,44,45
EndSplineSet
Validated: 1
EndChar

StartChar: Odieresis
Encoding: 214 214 147
Width: 606
GlyphClass: 1
Flags: W
LayerCount: 2
Fore
SplineSet
151 643 m 0,0,1
 151 672 151 672 171.5 693 c 128,-1,2
 192 714 192 714 222 714 c 256,3,4
 252 714 252 714 273 693 c 128,-1,5
 294 672 294 672 294 643 c 0,6,7
 294 613 294 613 273 592 c 128,-1,8
 252 571 252 571 222 571 c 256,9,10
 192 571 192 571 171.5 592 c 128,-1,11
 151 613 151 613 151 643 c 0,0,1
322 643 m 0,12,13
 322 672 322 672 342.5 693 c 128,-1,14
 363 714 363 714 393 714 c 256,15,16
 423 714 423 714 444 693 c 128,-1,17
 465 672 465 672 465 643 c 0,18,19
 465 613 465 613 444 592 c 128,-1,20
 423 571 423 571 393 571 c 256,21,22
 363 571 363 571 342.5 592 c 128,-1,23
 322 613 322 613 322 643 c 0,12,13
303 -9 m 256,24,25
 174 -9 174 -9 104 68 c 128,-1,26
 34 145 34 145 34 277 c 0,27,28
 34 366 34 366 66 430.5 c 128,-1,29
 98 495 98 495 158 530.5 c 128,-1,30
 218 566 218 566 303 566 c 256,31,32
 388 566 388 566 448 530.5 c 128,-1,33
 508 495 508 495 540 430.5 c 128,-1,34
 572 366 572 366 572 277 c 0,35,36
 572 145 572 145 502 68 c 128,-1,37
 432 -9 432 -9 303 -9 c 256,24,25
303 118 m 256,38,39
 359 118 359 118 396.5 153.5 c 128,-1,40
 434 189 434 189 434 277 c 0,41,42
 434 367 434 367 396.5 403 c 128,-1,43
 359 439 359 439 303 439 c 256,44,45
 247 439 247 439 209.5 403 c 128,-1,46
 172 367 172 367 172 277 c 0,47,48
 172 189 172 189 209.5 153.5 c 128,-1,49
 247 118 247 118 303 118 c 256,38,39
EndSplineSet
Validated: 1
EndChar

StartChar: multiply
Encoding: 215 215 148
Width: 432
GlyphClass: 1
Flags: W
LayerCount: 2
Fore
SplineSet
140 274 m 1,0,-1
 34 381 l 2,1,2
 26 390 26 390 34 398 c 2,3,-1
 40 404 l 2,4,5
 75 439 75 439 102.5 439.5 c 128,-1,6
 130 440 130 440 161 408 c 2,7,-1
 218 352 l 1,8,-1
 312 447 l 2,9,10
 322 457 322 457 331 447 c 2,11,-1
 388 389 l 2,12,13
 397 381 397 381 388 372 c 2,14,-1
 293 276 l 1,15,-1
 399 171 l 2,16,17
 408 161 408 161 399 152 c 2,18,-1
 394 147 l 2,19,20
 360 113 360 113 332 111.5 c 128,-1,21
 304 110 304 110 272 143 c 2,22,-1
 216 200 l 1,23,-1
 120 104 l 2,24,25
 112 96 112 96 102 104 c 2,26,-1
 46 161 l 2,27,28
 37 171 37 171 46 180 c 2,29,-1
 140 274 l 1,0,-1
EndSplineSet
Validated: 33
EndChar

StartChar: Oslash
Encoding: 216 216 149
Width: 606
GlyphClass: 1
Flags: W
LayerCount: 2
Fore
SplineSet
303 -9 m 256,0,1
 174 -9 174 -9 104 67.5 c 128,-1,2
 34 144 34 144 34 277 c 0,3,4
 34 366 34 366 66 430.5 c 128,-1,5
 98 495 98 495 158 530.5 c 128,-1,6
 218 566 218 566 303 566 c 256,7,8
 388 566 388 566 448 530.5 c 128,-1,9
 508 495 508 495 540 430.5 c 128,-1,10
 572 366 572 366 572 277 c 0,11,12
 572 144 572 144 502 67.5 c 128,-1,13
 432 -9 432 -9 303 -9 c 256,0,1
185 195 m 1,14,-1
 337 437 l 1,15,16
 329 439 329 439 320.5 439 c 128,-1,17
 312 439 312 439 303 439 c 0,18,19
 248 439 248 439 210 403 c 128,-1,20
 172 367 172 367 172 277 c 0,21,22
 172 252 172 252 175.5 232 c 128,-1,23
 179 212 179 212 185 195 c 1,14,-1
423 359 m 1,24,-1
 271 121 l 1,25,26
 285 118 285 118 303 118 c 0,27,28
 359 118 359 118 397 153.5 c 128,-1,29
 435 189 435 189 435 277 c 0,30,31
 435 326 435 326 423 359 c 1,24,-1
EndSplineSet
Validated: 1
EndChar

StartChar: Ugrave
Encoding: 217 217 150
Width: 528
GlyphClass: 1
Flags: W
LayerCount: 2
Fore
SplineSet
113 687 m 2,0,1
 108 691 108 691 109.5 696.5 c 128,-1,2
 111 702 111 702 118 702 c 2,3,-1
 234 702 l 2,4,5
 251 702 251 702 263 691 c 2,6,-1
 364 600 l 2,7,8
 369 596 369 596 366.5 590.5 c 128,-1,9
 364 585 364 585 357 585 c 2,10,-1
 255 585 l 2,11,12
 233 585 233 585 220 597 c 2,13,-1
 113 687 l 2,0,1
43 211 m 2,14,-1
 43 542 l 2,15,16
 43 556 43 556 56 556 c 2,17,-1
 84 556 l 2,18,19
 131 556 131 556 154.5 533 c 128,-1,20
 178 510 178 510 178 455 c 2,21,-1
 178 233 l 2,22,23
 178 181 178 181 197 149 c 128,-1,24
 216 117 216 117 262 117 c 0,25,26
 311 117 311 117 331 148.5 c 128,-1,27
 351 180 351 180 351 232 c 2,28,-1
 351 542 l 2,29,30
 351 556 351 556 364 556 c 2,31,-1
 392 556 l 2,32,33
 439 556 439 556 462.5 533 c 128,-1,34
 486 510 486 510 486 455 c 2,35,-1
 486 211 l 2,36,37
 486 184 486 184 478.5 147 c 128,-1,38
 471 110 471 110 448.5 74 c 128,-1,39
 426 38 426 38 381 14.5 c 128,-1,40
 336 -9 336 -9 262 -9 c 0,41,42
 189 -9 189 -9 145.5 14.5 c 128,-1,43
 102 38 102 38 80 74 c 128,-1,44
 58 110 58 110 50.5 147 c 128,-1,45
 43 184 43 184 43 211 c 2,14,-1
EndSplineSet
Validated: 1
EndChar

StartChar: Uacute
Encoding: 218 218 151
Width: 528
GlyphClass: 1
Flags: W
LayerCount: 2
Fore
SplineSet
151 585 m 2,0,1
 144 585 144 585 143 590.5 c 128,-1,2
 142 596 142 596 146 600 c 2,3,-1
 246 691 l 2,4,5
 260 702 260 702 276 702 c 2,6,-1
 391 702 l 2,7,8
 398 702 398 702 399.5 696.5 c 128,-1,9
 401 691 401 691 396 687 c 2,10,-1
 290 597 l 2,11,12
 277 585 277 585 254 585 c 2,13,-1
 151 585 l 2,0,1
43 211 m 2,14,-1
 43 542 l 2,15,16
 43 556 43 556 56 556 c 2,17,-1
 84 556 l 2,18,19
 131 556 131 556 154.5 533 c 128,-1,20
 178 510 178 510 178 455 c 2,21,-1
 178 233 l 2,22,23
 178 181 178 181 197 149 c 128,-1,24
 216 117 216 117 262 117 c 0,25,26
 311 117 311 117 331 148.5 c 128,-1,27
 351 180 351 180 351 232 c 2,28,-1
 351 542 l 2,29,30
 351 556 351 556 364 556 c 2,31,-1
 392 556 l 2,32,33
 439 556 439 556 462.5 533 c 128,-1,34
 486 510 486 510 486 455 c 2,35,-1
 486 211 l 2,36,37
 486 184 486 184 478.5 147 c 128,-1,38
 471 110 471 110 448.5 74 c 128,-1,39
 426 38 426 38 381 14.5 c 128,-1,40
 336 -9 336 -9 262 -9 c 0,41,42
 189 -9 189 -9 145.5 14.5 c 128,-1,43
 102 38 102 38 80 74 c 128,-1,44
 58 110 58 110 50.5 147 c 128,-1,45
 43 184 43 184 43 211 c 2,14,-1
EndSplineSet
Validated: 1
EndChar

StartChar: Ucircumflex
Encoding: 219 219 152
Width: 528
GlyphClass: 1
Flags: W
LayerCount: 2
Fore
SplineSet
267 642 m 1,0,-1
 230 599 l 2,1,2
 217 585 217 585 196 585 c 2,3,-1
 106 585 l 2,4,5
 99 585 99 585 97.5 590.5 c 128,-1,6
 96 596 96 596 100 600 c 2,7,-1
 186 691 l 2,8,9
 193 699 193 699 199.5 700.5 c 128,-1,10
 206 702 206 702 216 702 c 2,11,-1
 317 702 l 2,12,13
 327 702 327 702 333.5 700.5 c 128,-1,14
 340 699 340 699 347 691 c 2,15,-1
 434 600 l 2,16,17
 438 596 438 596 436 590.5 c 128,-1,18
 434 585 434 585 427 585 c 2,19,-1
 337 585 l 2,20,21
 315 585 315 585 304 599 c 2,22,-1
 267 642 l 1,0,-1
43 211 m 2,23,-1
 43 542 l 2,24,25
 43 556 43 556 56 556 c 2,26,-1
 84 556 l 2,27,28
 131 556 131 556 154.5 533 c 128,-1,29
 178 510 178 510 178 455 c 2,30,-1
 178 233 l 2,31,32
 178 181 178 181 197 149 c 128,-1,33
 216 117 216 117 262 117 c 0,34,35
 311 117 311 117 331 148.5 c 128,-1,36
 351 180 351 180 351 232 c 2,37,-1
 351 542 l 2,38,39
 351 556 351 556 364 556 c 2,40,-1
 392 556 l 2,41,42
 439 556 439 556 462.5 533 c 128,-1,43
 486 510 486 510 486 455 c 2,44,-1
 486 211 l 2,45,46
 486 184 486 184 478.5 147 c 128,-1,47
 471 110 471 110 448.5 74 c 128,-1,48
 426 38 426 38 381 14.5 c 128,-1,49
 336 -9 336 -9 262 -9 c 0,50,51
 189 -9 189 -9 145.5 14.5 c 128,-1,52
 102 38 102 38 80 74 c 128,-1,53
 58 110 58 110 50.5 147 c 128,-1,54
 43 184 43 184 43 211 c 2,23,-1
EndSplineSet
Validated: 1
EndChar

StartChar: Udieresis
Encoding: 220 220 153
Width: 528
GlyphClass: 1
Flags: W
LayerCount: 2
Fore
SplineSet
105 643 m 0,0,1
 105 672 105 672 126 693 c 128,-1,2
 147 714 147 714 177 714 c 0,3,4
 206 714 206 714 227.5 693 c 128,-1,5
 249 672 249 672 249 643 c 0,6,7
 249 613 249 613 227.5 592 c 128,-1,8
 206 571 206 571 177 571 c 0,9,10
 147 571 147 571 126 592 c 128,-1,11
 105 613 105 613 105 643 c 0,0,1
276 643 m 0,12,13
 276 672 276 672 297 693 c 128,-1,14
 318 714 318 714 347 714 c 0,15,16
 377 714 377 714 398 693 c 128,-1,17
 419 672 419 672 419 643 c 0,18,19
 419 613 419 613 398 592 c 128,-1,20
 377 571 377 571 347 571 c 0,21,22
 318 571 318 571 297 592 c 128,-1,23
 276 613 276 613 276 643 c 0,12,13
43 211 m 2,24,-1
 43 542 l 2,25,26
 43 556 43 556 56 556 c 2,27,-1
 84 556 l 2,28,29
 131 556 131 556 154.5 533 c 128,-1,30
 178 510 178 510 178 455 c 2,31,-1
 178 233 l 2,32,33
 178 181 178 181 197 149 c 128,-1,34
 216 117 216 117 262 117 c 0,35,36
 311 117 311 117 331 148.5 c 128,-1,37
 351 180 351 180 351 232 c 2,38,-1
 351 542 l 2,39,40
 351 556 351 556 364 556 c 2,41,-1
 392 556 l 2,42,43
 439 556 439 556 462.5 533 c 128,-1,44
 486 510 486 510 486 455 c 2,45,-1
 486 211 l 2,46,47
 486 184 486 184 478.5 147 c 128,-1,48
 471 110 471 110 448.5 74 c 128,-1,49
 426 38 426 38 381 14.5 c 128,-1,50
 336 -9 336 -9 262 -9 c 0,51,52
 189 -9 189 -9 145.5 14.5 c 128,-1,53
 102 38 102 38 80 74 c 128,-1,54
 58 110 58 110 50.5 147 c 128,-1,55
 43 184 43 184 43 211 c 2,24,-1
EndSplineSet
Validated: 1
EndChar

StartChar: Yacute
Encoding: 221 221 154
Width: 492
GlyphClass: 1
Flags: W
LayerCount: 2
Fore
SplineSet
149 585 m 2,0,1
 142 585 142 585 140.5 590.5 c 128,-1,2
 139 596 139 596 143 600 c 2,3,-1
 243 691 l 2,4,5
 257 702 257 702 273 702 c 2,6,-1
 388 702 l 2,7,8
 395 702 395 702 396.5 696.5 c 128,-1,9
 398 691 398 691 393 687 c 2,10,-1
 287 597 l 2,11,12
 280 590 280 590 271 587.5 c 128,-1,13
 262 585 262 585 252 585 c 2,14,-1
 149 585 l 2,0,1
179 203 m 1,15,-1
 -1 542 l 2,16,17
 -3 547 -3 547 -1.5 551.5 c 128,-1,18
 0 556 0 556 7 556 c 2,19,-1
 77 556 l 2,20,21
 112 556 112 556 135.5 542 c 128,-1,22
 159 528 159 528 176 495 c 2,23,-1
 252 346 l 1,24,-1
 350 542 l 2,25,26
 357 556 357 556 370 556 c 2,27,-1
 488 556 l 2,28,29
 495 556 495 556 496.5 551.5 c 128,-1,30
 498 547 498 547 496 542 c 2,31,-1
 314 199 l 1,32,-1
 314 13 l 2,33,34
 314 0 314 0 301 0 c 2,35,-1
 192 0 l 2,36,37
 179 0 179 0 179 13 c 2,38,-1
 179 203 l 1,15,-1
EndSplineSet
Validated: 1
EndChar

StartChar: Thorn
Encoding: 222 222 155
Width: 494
GlyphClass: 1
Flags: W
LayerCount: 2
Fore
SplineSet
180 88 m 1,0,-1
 180 13 l 2,1,2
 180 0 180 0 168 0 c 2,3,-1
 59 0 l 2,4,5
 46 0 46 0 46 13 c 2,6,-1
 46 542 l 2,7,8
 46 556 46 556 59 556 c 2,9,-1
 87 556 l 2,10,11
 132 556 132 556 155.5 535 c 128,-1,12
 179 514 179 514 180 464 c 1,13,-1
 258 464 l 2,14,15
 372 464 372 464 422 414 c 128,-1,16
 472 364 472 364 472 281 c 0,17,18
 472 226 472 226 447.5 182.5 c 128,-1,19
 423 139 423 139 378.5 113.5 c 128,-1,20
 334 88 334 88 273 88 c 2,21,-1
 180 88 l 1,0,-1
180 213 m 1,22,-1
 267 213 l 2,23,24
 283 213 283 213 299.5 218 c 128,-1,25
 316 223 316 223 327 237 c 128,-1,26
 338 251 338 251 338 278 c 0,27,28
 338 310 338 310 318 324.5 c 128,-1,29
 298 339 298 339 267 339 c 2,30,-1
 180 339 l 1,31,-1
 180 213 l 1,22,-1
EndSplineSet
Validated: 1
EndChar

StartChar: germandbls
Encoding: 223 223 156
Width: 492
GlyphClass: 1
Flags: W
LayerCount: 2
Fore
SplineSet
49 0 m 2,0,1
 36 0 36 0 36 13 c 2,2,-1
 36 399 l 2,3,4
 36 478 36 478 90 522 c 128,-1,5
 144 566 144 566 229 566 c 0,6,7
 281 566 281 566 315 553 c 128,-1,8
 349 540 349 540 368 520.5 c 128,-1,9
 387 501 387 501 394.5 480 c 128,-1,10
 402 459 402 459 402 443 c 0,11,12
 402 414 402 414 386 390 c 128,-1,13
 370 366 370 366 354.5 347 c 128,-1,14
 339 328 339 328 339 314 c 0,15,16
 339 299 339 299 353.5 287.5 c 128,-1,17
 368 276 368 276 389.5 264 c 128,-1,18
 411 252 411 252 432 235 c 128,-1,19
 453 218 453 218 467.5 193.5 c 128,-1,20
 482 169 482 169 482 131 c 0,21,22
 482 73 482 73 446 31.5 c 128,-1,23
 410 -10 410 -10 335 -10 c 0,24,25
 290 -10 290 -10 258 9 c 128,-1,26
 226 28 226 28 209.5 57.5 c 128,-1,27
 193 87 193 87 193 118 c 0,28,29
 193 140 193 140 208 140 c 0,30,31
 211 140 211 140 213.5 138.5 c 128,-1,32
 216 137 216 137 218 135 c 0,33,34
 259 95 259 95 307 95 c 0,35,36
 324 95 324 95 332 103 c 128,-1,37
 340 111 340 111 340 124 c 0,38,39
 340 138 340 138 327.5 148 c 128,-1,40
 315 158 315 158 296.5 168 c 128,-1,41
 278 178 278 178 259 192 c 128,-1,42
 240 206 240 206 227.5 226.5 c 128,-1,43
 215 247 215 247 215 279 c 0,44,45
 215 299 215 299 225.5 317 c 128,-1,46
 236 335 236 335 249.5 351.5 c 128,-1,47
 263 368 263 368 273.5 384 c 128,-1,48
 284 400 284 400 284 416 c 0,49,50
 284 429 284 429 273 443.5 c 128,-1,51
 262 458 262 458 230 458 c 0,52,53
 202 458 202 458 185.5 439.5 c 128,-1,54
 169 421 169 421 169 386 c 2,55,-1
 169 13 l 2,56,57
 169 0 169 0 155 0 c 2,58,-1
 49 0 l 2,0,1
EndSplineSet
Validated: 1
EndChar

StartChar: agrave
Encoding: 224 224 157
Width: 464
GlyphClass: 1
Flags: W
LayerCount: 2
Fore
SplineSet
89 528 m 2,0,1
 84 532 84 532 85.5 537.5 c 128,-1,2
 87 543 87 543 94 543 c 2,3,-1
 210 543 l 2,4,5
 219 543 219 543 225.5 541 c 128,-1,6
 232 539 232 539 239 532 c 2,7,-1
 340 441 l 2,8,9
 345 437 345 437 342.5 431.5 c 128,-1,10
 340 426 340 426 333 426 c 2,11,-1
 231 426 l 2,12,13
 209 426 209 426 196 438 c 2,14,-1
 89 528 l 2,0,1
297 28 m 1,15,16
 279 12 279 12 255.5 2 c 128,-1,17
 232 -8 232 -8 201 -8 c 0,18,19
 143 -8 143 -8 103.5 19.5 c 128,-1,20
 64 47 64 47 44 93.5 c 128,-1,21
 24 140 24 140 24 196 c 0,22,23
 24 253 24 253 45.5 298.5 c 128,-1,24
 67 344 67 344 107.5 370.5 c 128,-1,25
 148 397 148 397 203 397 c 0,26,27
 277 397 277 397 318 353 c 1,28,29
 329 371 329 371 350 378.5 c 128,-1,30
 371 386 371 386 400 386 c 2,31,-1
 417 386 l 2,32,33
 430 386 430 386 430 373 c 2,34,-1
 430 13 l 2,35,36
 430 0 430 0 417 0 c 2,37,-1
 310 0 l 2,38,39
 297 0 297 0 297 13 c 2,40,-1
 297 28 l 1,15,16
231 114 m 256,41,42
 242 114 242 114 257.5 119.5 c 128,-1,43
 273 125 273 125 285 142.5 c 128,-1,44
 297 160 297 160 297 195 c 256,45,46
 297 230 297 230 285 246 c 128,-1,47
 273 262 273 262 257.5 267 c 128,-1,48
 242 272 242 272 231 272 c 0,49,50
 221 272 221 272 204 267 c 128,-1,51
 187 262 187 262 174 246 c 128,-1,52
 161 230 161 230 161 195 c 256,53,54
 161 160 161 160 174 142.5 c 128,-1,55
 187 125 187 125 203.5 119.5 c 128,-1,56
 220 114 220 114 231 114 c 256,41,42
EndSplineSet
Validated: 1
EndChar

StartChar: aacute
Encoding: 225 225 158
Width: 464
GlyphClass: 1
Flags: W
LayerCount: 2
Fore
SplineSet
137 426 m 2,0,1
 130 426 130 426 128.5 431.5 c 128,-1,2
 127 437 127 437 131 441 c 2,3,-1
 231 532 l 2,4,5
 243 543 243 543 261 543 c 2,6,-1
 376 543 l 2,7,8
 383 543 383 543 384.5 537.5 c 128,-1,9
 386 532 386 532 381 528 c 2,10,-1
 275 438 l 2,11,12
 268 431 268 431 259 428.5 c 128,-1,13
 250 426 250 426 240 426 c 2,14,-1
 137 426 l 2,0,1
297 28 m 1,15,16
 279 12 279 12 255.5 2 c 128,-1,17
 232 -8 232 -8 201 -8 c 0,18,19
 143 -8 143 -8 103.5 19.5 c 128,-1,20
 64 47 64 47 44 93.5 c 128,-1,21
 24 140 24 140 24 196 c 0,22,23
 24 253 24 253 45.5 298.5 c 128,-1,24
 67 344 67 344 107.5 370.5 c 128,-1,25
 148 397 148 397 203 397 c 0,26,27
 277 397 277 397 318 353 c 1,28,29
 329 371 329 371 350 378.5 c 128,-1,30
 371 386 371 386 400 386 c 2,31,-1
 417 386 l 2,32,33
 430 386 430 386 430 373 c 2,34,-1
 430 13 l 2,35,36
 430 0 430 0 417 0 c 2,37,-1
 310 0 l 2,38,39
 297 0 297 0 297 13 c 2,40,-1
 297 28 l 1,15,16
231 114 m 256,41,42
 242 114 242 114 257.5 119.5 c 128,-1,43
 273 125 273 125 285 142.5 c 128,-1,44
 297 160 297 160 297 195 c 256,45,46
 297 230 297 230 285 246 c 128,-1,47
 273 262 273 262 257.5 267 c 128,-1,48
 242 272 242 272 231 272 c 0,49,50
 221 272 221 272 204 267 c 128,-1,51
 187 262 187 262 174 246 c 128,-1,52
 161 230 161 230 161 195 c 256,53,54
 161 160 161 160 174 142.5 c 128,-1,55
 187 125 187 125 203.5 119.5 c 128,-1,56
 220 114 220 114 231 114 c 256,41,42
EndSplineSet
Validated: 1
EndChar

StartChar: acircumflex
Encoding: 226 226 159
Width: 464
GlyphClass: 1
Flags: W
LayerCount: 2
Fore
SplineSet
240 483 m 1,0,-1
 203 440 l 2,1,2
 190 426 190 426 170 426 c 2,3,-1
 79 426 l 2,4,5
 72 426 72 426 70.5 431.5 c 128,-1,6
 69 437 69 437 73 441 c 2,7,-1
 160 532 l 2,8,9
 166 540 166 540 172.5 541.5 c 128,-1,10
 179 543 179 543 189 543 c 2,11,-1
 291 543 l 2,12,13
 300 543 300 543 306.5 541.5 c 128,-1,14
 313 540 313 540 320 532 c 2,15,-1
 407 441 l 2,16,17
 411 437 411 437 409.5 431.5 c 128,-1,18
 408 426 408 426 401 426 c 2,19,-1
 311 426 l 2,20,21
 290 426 290 426 277 440 c 2,22,-1
 240 483 l 1,0,-1
297 28 m 1,23,24
 279 12 279 12 255.5 2 c 128,-1,25
 232 -8 232 -8 201 -8 c 0,26,27
 143 -8 143 -8 103.5 19.5 c 128,-1,28
 64 47 64 47 44 93.5 c 128,-1,29
 24 140 24 140 24 196 c 0,30,31
 24 253 24 253 45.5 298.5 c 128,-1,32
 67 344 67 344 107.5 370.5 c 128,-1,33
 148 397 148 397 203 397 c 0,34,35
 277 397 277 397 318 353 c 1,36,37
 329 371 329 371 350 378.5 c 128,-1,38
 371 386 371 386 400 386 c 2,39,-1
 417 386 l 2,40,41
 430 386 430 386 430 373 c 2,42,-1
 430 13 l 2,43,44
 430 0 430 0 417 0 c 2,45,-1
 310 0 l 2,46,47
 297 0 297 0 297 13 c 2,48,-1
 297 28 l 1,23,24
231 114 m 256,49,50
 242 114 242 114 257.5 119.5 c 128,-1,51
 273 125 273 125 285 142.5 c 128,-1,52
 297 160 297 160 297 195 c 256,53,54
 297 230 297 230 285 246 c 128,-1,55
 273 262 273 262 257.5 267 c 128,-1,56
 242 272 242 272 231 272 c 0,57,58
 221 272 221 272 204 267 c 128,-1,59
 187 262 187 262 174 246 c 128,-1,60
 161 230 161 230 161 195 c 256,61,62
 161 160 161 160 174 142.5 c 128,-1,63
 187 125 187 125 203.5 119.5 c 128,-1,64
 220 114 220 114 231 114 c 256,49,50
EndSplineSet
Validated: 1
EndChar

StartChar: atilde
Encoding: 227 227 160
Width: 464
GlyphClass: 1
Flags: W
LayerCount: 2
Fore
SplineSet
97 422 m 2,0,1
 86 422 86 422 86 435 c 0,2,3
 88 489 88 489 112.5 518 c 128,-1,4
 137 547 137 547 173 547 c 0,5,6
 198 547 198 547 220.5 540 c 128,-1,7
 243 533 243 533 261.5 525.5 c 128,-1,8
 280 518 280 518 293 518 c 0,9,10
 303 518 303 518 307 522.5 c 128,-1,11
 311 527 311 527 315 538 c 0,12,13
 318 551 318 551 328 551 c 2,14,-1
 384 551 l 2,15,16
 397 551 397 551 395 537 c 0,17,18
 390 488 390 488 371 458 c 128,-1,19
 352 428 352 428 308 428 c 0,20,21
 287 428 287 428 263.5 434.5 c 128,-1,22
 240 441 240 441 221 447.5 c 128,-1,23
 202 454 202 454 192 454 c 256,24,25
 182 454 182 454 178.5 448.5 c 128,-1,26
 175 443 175 443 173 434 c 0,27,28
 172 422 172 422 160 422 c 2,29,-1
 97 422 l 2,0,1
297 28 m 1,30,31
 279 12 279 12 255.5 2 c 128,-1,32
 232 -8 232 -8 201 -8 c 0,33,34
 143 -8 143 -8 103.5 19.5 c 128,-1,35
 64 47 64 47 44 93.5 c 128,-1,36
 24 140 24 140 24 196 c 0,37,38
 24 253 24 253 45.5 298.5 c 128,-1,39
 67 344 67 344 107.5 370.5 c 128,-1,40
 148 397 148 397 203 397 c 0,41,42
 277 397 277 397 318 353 c 1,43,44
 329 371 329 371 350 378.5 c 128,-1,45
 371 386 371 386 400 386 c 2,46,-1
 417 386 l 2,47,48
 430 386 430 386 430 373 c 2,49,-1
 430 13 l 2,50,51
 430 0 430 0 417 0 c 2,52,-1
 310 0 l 2,53,54
 297 0 297 0 297 13 c 2,55,-1
 297 28 l 1,30,31
231 114 m 256,56,57
 242 114 242 114 257.5 119.5 c 128,-1,58
 273 125 273 125 285 142.5 c 128,-1,59
 297 160 297 160 297 195 c 256,60,61
 297 230 297 230 285 246 c 128,-1,62
 273 262 273 262 257.5 267 c 128,-1,63
 242 272 242 272 231 272 c 0,64,65
 221 272 221 272 204 267 c 128,-1,66
 187 262 187 262 174 246 c 128,-1,67
 161 230 161 230 161 195 c 256,68,69
 161 160 161 160 174 142.5 c 128,-1,70
 187 125 187 125 203.5 119.5 c 128,-1,71
 220 114 220 114 231 114 c 256,56,57
EndSplineSet
Validated: 1
EndChar

StartChar: adieresis
Encoding: 228 228 161
Width: 464
GlyphClass: 1
Flags: W
LayerCount: 2
Fore
SplineSet
77 484 m 0,0,1
 77 513 77 513 97.5 534.5 c 128,-1,2
 118 556 118 556 148 556 c 256,3,4
 178 556 178 556 199 534.5 c 128,-1,5
 220 513 220 513 220 484 c 0,6,7
 220 454 220 454 199 433 c 128,-1,8
 178 412 178 412 148 412 c 256,9,10
 118 412 118 412 97.5 433 c 128,-1,11
 77 454 77 454 77 484 c 0,0,1
248 484 m 0,12,13
 248 513 248 513 269 534.5 c 128,-1,14
 290 556 290 556 319 556 c 0,15,16
 349 556 349 556 370 534.5 c 128,-1,17
 391 513 391 513 391 484 c 0,18,19
 391 454 391 454 370 433 c 128,-1,20
 349 412 349 412 319 412 c 0,21,22
 290 412 290 412 269 433 c 128,-1,23
 248 454 248 454 248 484 c 0,12,13
297 28 m 1,24,25
 279 12 279 12 255.5 2 c 128,-1,26
 232 -8 232 -8 201 -8 c 0,27,28
 143 -8 143 -8 103.5 19.5 c 128,-1,29
 64 47 64 47 44 93.5 c 128,-1,30
 24 140 24 140 24 196 c 0,31,32
 24 253 24 253 45.5 298.5 c 128,-1,33
 67 344 67 344 107.5 370.5 c 128,-1,34
 148 397 148 397 203 397 c 0,35,36
 277 397 277 397 318 353 c 1,37,38
 329 371 329 371 350 378.5 c 128,-1,39
 371 386 371 386 400 386 c 2,40,-1
 417 386 l 2,41,42
 430 386 430 386 430 373 c 2,43,-1
 430 13 l 2,44,45
 430 0 430 0 417 0 c 2,46,-1
 310 0 l 2,47,48
 297 0 297 0 297 13 c 2,49,-1
 297 28 l 1,24,25
231 114 m 256,50,51
 242 114 242 114 257.5 119.5 c 128,-1,52
 273 125 273 125 285 142.5 c 128,-1,53
 297 160 297 160 297 195 c 256,54,55
 297 230 297 230 285 246 c 128,-1,56
 273 262 273 262 257.5 267 c 128,-1,57
 242 272 242 272 231 272 c 0,58,59
 221 272 221 272 204 267 c 128,-1,60
 187 262 187 262 174 246 c 128,-1,61
 161 230 161 230 161 195 c 256,62,63
 161 160 161 160 174 142.5 c 128,-1,64
 187 125 187 125 203.5 119.5 c 128,-1,65
 220 114 220 114 231 114 c 256,50,51
EndSplineSet
Validated: 1
EndChar

StartChar: aring
Encoding: 229 229 162
Width: 464
GlyphClass: 1
Flags: W
LayerCount: 2
Fore
SplineSet
141 504 m 0,0,1
 141 542 141 542 168.5 568 c 128,-1,2
 196 594 196 594 235 594 c 0,3,4
 273 594 273 594 300 568 c 128,-1,5
 327 542 327 542 327 504 c 0,6,7
 327 465 327 465 300 438.5 c 128,-1,8
 273 412 273 412 235 412 c 0,9,10
 196 412 196 412 168.5 438.5 c 128,-1,11
 141 465 141 465 141 504 c 0,0,1
235 473 m 0,12,13
 246 473 246 473 254.5 482 c 128,-1,14
 263 491 263 491 263 504 c 0,15,16
 263 515 263 515 254.5 524 c 128,-1,17
 246 533 246 533 235 533 c 0,18,19
 222 533 222 533 213.5 524 c 128,-1,20
 205 515 205 515 205 504 c 0,21,22
 205 491 205 491 213.5 482 c 128,-1,23
 222 473 222 473 235 473 c 0,12,13
297 28 m 1,24,25
 279 12 279 12 255.5 2 c 128,-1,26
 232 -8 232 -8 201 -8 c 0,27,28
 143 -8 143 -8 103.5 19.5 c 128,-1,29
 64 47 64 47 44 93.5 c 128,-1,30
 24 140 24 140 24 196 c 0,31,32
 24 253 24 253 45.5 298.5 c 128,-1,33
 67 344 67 344 107.5 370.5 c 128,-1,34
 148 397 148 397 203 397 c 0,35,36
 277 397 277 397 318 353 c 1,37,38
 329 371 329 371 350 378.5 c 128,-1,39
 371 386 371 386 400 386 c 2,40,-1
 417 386 l 2,41,42
 430 386 430 386 430 373 c 2,43,-1
 430 13 l 2,44,45
 430 0 430 0 417 0 c 2,46,-1
 310 0 l 2,47,48
 297 0 297 0 297 13 c 2,49,-1
 297 28 l 1,24,25
231 114 m 256,50,51
 242 114 242 114 257.5 119.5 c 128,-1,52
 273 125 273 125 285 142.5 c 128,-1,53
 297 160 297 160 297 195 c 256,54,55
 297 230 297 230 285 246 c 128,-1,56
 273 262 273 262 257.5 267 c 128,-1,57
 242 272 242 272 231 272 c 0,58,59
 221 272 221 272 204 267 c 128,-1,60
 187 262 187 262 174 246 c 128,-1,61
 161 230 161 230 161 195 c 256,62,63
 161 160 161 160 174 142.5 c 128,-1,64
 187 125 187 125 203.5 119.5 c 128,-1,65
 220 114 220 114 231 114 c 256,50,51
EndSplineSet
Validated: 1
EndChar

StartChar: ae
Encoding: 230 230 163
Width: 755
GlyphClass: 1
Flags: W
LayerCount: 2
Fore
SplineSet
421 42 m 1,0,-1
 421 13 l 2,1,2
 421 0 421 0 408 0 c 2,3,-1
 319 0 l 2,4,5
 306 0 306 0 306 13 c 2,6,-1
 306 37 l 1,7,8
 287 16 287 16 261.5 4 c 128,-1,9
 236 -8 236 -8 201 -8 c 0,10,11
 143 -8 143 -8 103.5 19.5 c 128,-1,12
 64 47 64 47 44 93.5 c 128,-1,13
 24 140 24 140 24 196 c 256,14,15
 24 252 24 252 45.5 298 c 128,-1,16
 67 344 67 344 107.5 371 c 128,-1,17
 148 398 148 398 203 398 c 0,18,19
 240 398 240 398 269 386 c 128,-1,20
 298 374 298 374 317 353 c 1,21,22
 339 386 339 386 398 386 c 2,23,-1
 408 386 l 2,24,25
 421 386 421 386 421 373 c 2,26,-1
 421 343 l 1,27,28
 447 369 447 369 481 383.5 c 128,-1,29
 515 398 515 398 558 398 c 0,30,31
 619 398 619 398 657.5 372 c 128,-1,32
 696 346 696 346 714.5 305.5 c 128,-1,33
 733 265 733 265 733 222 c 0,34,35
 733 203 733 203 732.5 189.5 c 128,-1,36
 732 176 732 176 731 167 c 0,37,38
 730 152 730 152 712 152 c 2,39,-1
 492 152 l 1,40,41
 497 127 497 127 520 110.5 c 128,-1,42
 543 94 543 94 580 94 c 0,43,44
 618 94 618 94 642 102 c 128,-1,45
 666 110 666 110 696 123 c 0,46,47
 706 128 706 128 713 128 c 0,48,49
 725 128 725 128 725 113 c 0,50,51
 725 90 725 90 709.5 61 c 128,-1,52
 694 32 694 32 657.5 11 c 128,-1,53
 621 -10 621 -10 557 -10 c 0,54,55
 515 -10 515 -10 481 3.5 c 128,-1,56
 447 17 447 17 421 42 c 1,0,-1
492 237 m 1,57,-1
 603 237 l 1,58,59
 606 256 606 256 594 273.5 c 128,-1,60
 582 291 582 291 550 291 c 0,61,62
 521 291 521 291 507 274 c 128,-1,63
 493 257 493 257 492 237 c 1,57,-1
231 114 m 256,64,65
 242 114 242 114 257.5 119.5 c 128,-1,66
 273 125 273 125 285 142.5 c 128,-1,67
 297 160 297 160 297 195 c 256,68,69
 297 230 297 230 285 246.5 c 128,-1,70
 273 263 273 263 257.5 268 c 128,-1,71
 242 273 242 273 231 273 c 0,72,73
 221 273 221 273 204 268 c 128,-1,74
 187 263 187 263 174 246.5 c 128,-1,75
 161 230 161 230 161 195 c 256,76,77
 161 160 161 160 173.5 142.5 c 128,-1,78
 186 125 186 125 203 119.5 c 128,-1,79
 220 114 220 114 231 114 c 256,64,65
EndSplineSet
Validated: 33
EndChar

StartChar: ccedilla
Encoding: 231 231 164
Width: 364
GlyphClass: 1
Flags: W
LayerCount: 2
Fore
SplineSet
270 0 m 1,0,-1
 224 -110 l 2,1,2
 220 -120 220 -120 212 -123.5 c 128,-1,3
 204 -127 204 -127 193 -127 c 2,4,-1
 99 -127 l 2,5,6
 93 -127 93 -127 92 -122 c 128,-1,7
 91 -117 91 -117 93 -112 c 2,8,-1
 162 -4 l 1,9,10
 99 10 99 10 61.5 61.5 c 128,-1,11
 24 113 24 113 24 194 c 0,12,13
 24 289 24 289 79.5 343 c 128,-1,14
 135 397 135 397 224 397 c 0,15,16
 248 397 248 397 268.5 393.5 c 128,-1,17
 289 390 289 390 306 384 c 0,18,19
 336 374 336 374 344.5 354 c 128,-1,20
 353 334 353 334 345 299 c 2,21,-1
 335 261 l 2,22,23
 331 251 331 251 326 251 c 0,24,25
 323 251 323 251 315 254 c 0,26,27
 293 265 293 265 275.5 269.5 c 128,-1,28
 258 274 258 274 233 274 c 0,29,30
 205 274 205 274 183 254.5 c 128,-1,31
 161 235 161 235 161 191 c 0,32,33
 161 152 161 152 181.5 128 c 128,-1,34
 202 104 202 104 244 104 c 0,35,36
 273 104 273 104 293.5 112.5 c 128,-1,37
 314 121 314 121 325 129 c 0,38,39
 335 136 335 136 342 136 c 0,40,41
 350 136 350 136 353.5 130 c 128,-1,42
 357 124 357 124 357 117 c 0,43,44
 357 76 357 76 333 45 c 128,-1,45
 309 14 309 14 270 0 c 1,0,-1
EndSplineSet
Validated: 33
EndChar

StartChar: egrave
Encoding: 232 232 165
Width: 423
GlyphClass: 1
Flags: W
LayerCount: 2
Fore
SplineSet
63 528 m 2,0,1
 58 532 58 532 59.5 537.5 c 128,-1,2
 61 543 61 543 68 543 c 2,3,-1
 184 543 l 2,4,5
 193 543 193 543 199.5 541 c 128,-1,6
 206 539 206 539 213 532 c 2,7,-1
 314 441 l 2,8,9
 319 437 319 437 316.5 431.5 c 128,-1,10
 314 426 314 426 308 426 c 2,11,-1
 205 426 l 2,12,13
 183 426 183 426 170 438 c 2,14,-1
 63 528 l 2,0,1
162 152 m 1,15,16
 167 127 167 127 189.5 110.5 c 128,-1,17
 212 94 212 94 249 94 c 0,18,19
 287 94 287 94 311.5 102 c 128,-1,20
 336 110 336 110 366 123 c 0,21,22
 376 128 376 128 383 128 c 0,23,24
 395 128 395 128 395 113 c 0,25,26
 395 90 395 90 379.5 61 c 128,-1,27
 364 32 364 32 327.5 11 c 128,-1,28
 291 -10 291 -10 227 -10 c 0,29,30
 136 -10 136 -10 81.5 44.5 c 128,-1,31
 27 99 27 99 27 193 c 0,32,33
 27 251 27 251 50.5 297 c 128,-1,34
 74 343 74 343 118 370 c 128,-1,35
 162 397 162 397 223 397 c 0,36,37
 286 397 286 397 325.5 371.5 c 128,-1,38
 365 346 365 346 384 306 c 128,-1,39
 403 266 403 266 403 222 c 0,40,41
 403 203 403 203 402 189.5 c 128,-1,42
 401 176 401 176 401 167 c 0,43,44
 400 152 400 152 382 152 c 2,45,-1
 162 152 l 1,15,16
161 237 m 1,46,-1
 273 237 l 1,47,48
 275 255 275 255 263.5 273 c 128,-1,49
 252 291 252 291 219 291 c 0,50,51
 190 291 190 291 176 273.5 c 128,-1,52
 162 256 162 256 161 237 c 1,46,-1
EndSplineSet
Validated: 33
EndChar

StartChar: eacute
Encoding: 233 233 166
Width: 423
GlyphClass: 1
Flags: W
LayerCount: 2
Fore
SplineSet
110 426 m 2,0,1
 103 426 103 426 102 431.5 c 128,-1,2
 101 437 101 437 105 441 c 2,3,-1
 205 532 l 2,4,5
 217 543 217 543 235 543 c 2,6,-1
 350 543 l 2,7,8
 357 543 357 543 358.5 537.5 c 128,-1,9
 360 532 360 532 355 528 c 2,10,-1
 249 438 l 2,11,12
 236 426 236 426 213 426 c 2,13,-1
 110 426 l 2,0,1
162 152 m 1,14,15
 167 127 167 127 189.5 110.5 c 128,-1,16
 212 94 212 94 249 94 c 0,17,18
 287 94 287 94 311.5 102 c 128,-1,19
 336 110 336 110 366 123 c 0,20,21
 376 128 376 128 383 128 c 0,22,23
 395 128 395 128 395 113 c 0,24,25
 395 90 395 90 379.5 61 c 128,-1,26
 364 32 364 32 327.5 11 c 128,-1,27
 291 -10 291 -10 227 -10 c 0,28,29
 136 -10 136 -10 81.5 44.5 c 128,-1,30
 27 99 27 99 27 193 c 0,31,32
 27 251 27 251 50.5 297 c 128,-1,33
 74 343 74 343 118 370 c 128,-1,34
 162 397 162 397 223 397 c 0,35,36
 286 397 286 397 325.5 371.5 c 128,-1,37
 365 346 365 346 384 306 c 128,-1,38
 403 266 403 266 403 222 c 0,39,40
 403 203 403 203 402 189.5 c 128,-1,41
 401 176 401 176 401 167 c 0,42,43
 400 152 400 152 382 152 c 2,44,-1
 162 152 l 1,14,15
161 237 m 1,45,-1
 273 237 l 1,46,47
 275 255 275 255 263.5 273 c 128,-1,48
 252 291 252 291 219 291 c 0,49,50
 190 291 190 291 176 273.5 c 128,-1,51
 162 256 162 256 161 237 c 1,45,-1
EndSplineSet
Validated: 33
EndChar

StartChar: ecircumflex
Encoding: 234 234 167
Width: 423
GlyphClass: 1
Flags: W
LayerCount: 2
Fore
SplineSet
225 483 m 1,0,-1
 188 440 l 2,1,2
 175 426 175 426 155 426 c 2,3,-1
 64 426 l 2,4,5
 57 426 57 426 55.5 431.5 c 128,-1,6
 54 437 54 437 58 441 c 2,7,-1
 145 532 l 2,8,9
 152 540 152 540 158 541.5 c 128,-1,10
 164 543 164 543 174 543 c 2,11,-1
 276 543 l 2,12,13
 286 543 286 543 292 541.5 c 128,-1,14
 298 540 298 540 305 532 c 2,15,-1
 392 441 l 2,16,17
 396 437 396 437 394.5 431.5 c 128,-1,18
 393 426 393 426 386 426 c 2,19,-1
 296 426 l 2,20,21
 275 426 275 426 262 440 c 2,22,-1
 225 483 l 1,0,-1
162 152 m 1,23,24
 167 127 167 127 189.5 110.5 c 128,-1,25
 212 94 212 94 249 94 c 0,26,27
 287 94 287 94 311.5 102 c 128,-1,28
 336 110 336 110 366 123 c 0,29,30
 376 128 376 128 383 128 c 0,31,32
 395 128 395 128 395 113 c 0,33,34
 395 90 395 90 379.5 61 c 128,-1,35
 364 32 364 32 327.5 11 c 128,-1,36
 291 -10 291 -10 227 -10 c 0,37,38
 136 -10 136 -10 81.5 44.5 c 128,-1,39
 27 99 27 99 27 193 c 0,40,41
 27 251 27 251 50.5 297 c 128,-1,42
 74 343 74 343 118 370 c 128,-1,43
 162 397 162 397 223 397 c 0,44,45
 286 397 286 397 325.5 371.5 c 128,-1,46
 365 346 365 346 384 306 c 128,-1,47
 403 266 403 266 403 222 c 0,48,49
 403 203 403 203 402 189.5 c 128,-1,50
 401 176 401 176 401 167 c 0,51,52
 400 152 400 152 382 152 c 2,53,-1
 162 152 l 1,23,24
161 237 m 1,54,-1
 273 237 l 1,55,56
 275 255 275 255 263.5 273 c 128,-1,57
 252 291 252 291 219 291 c 0,58,59
 190 291 190 291 176 273.5 c 128,-1,60
 162 256 162 256 161 237 c 1,54,-1
EndSplineSet
Validated: 33
EndChar

StartChar: edieresis
Encoding: 235 235 168
Width: 423
GlyphClass: 1
Flags: W
LayerCount: 2
Fore
SplineSet
69 484 m 0,0,1
 69 513 69 513 90 534.5 c 128,-1,2
 111 556 111 556 141 556 c 0,3,4
 170 556 170 556 191.5 534.5 c 128,-1,5
 213 513 213 513 213 484 c 0,6,7
 213 454 213 454 191.5 433 c 128,-1,8
 170 412 170 412 141 412 c 0,9,10
 111 412 111 412 90 433 c 128,-1,11
 69 454 69 454 69 484 c 0,0,1
240 484 m 0,12,13
 240 513 240 513 261 534.5 c 128,-1,14
 282 556 282 556 311 556 c 0,15,16
 341 556 341 556 362 534.5 c 128,-1,17
 383 513 383 513 383 484 c 0,18,19
 383 454 383 454 362 433 c 128,-1,20
 341 412 341 412 311 412 c 0,21,22
 282 412 282 412 261 433 c 128,-1,23
 240 454 240 454 240 484 c 0,12,13
162 152 m 1,24,25
 167 127 167 127 189.5 110.5 c 128,-1,26
 212 94 212 94 249 94 c 0,27,28
 287 94 287 94 311.5 102 c 128,-1,29
 336 110 336 110 366 123 c 0,30,31
 376 128 376 128 383 128 c 0,32,33
 395 128 395 128 395 113 c 0,34,35
 395 90 395 90 379.5 61 c 128,-1,36
 364 32 364 32 327.5 11 c 128,-1,37
 291 -10 291 -10 227 -10 c 0,38,39
 136 -10 136 -10 81.5 44.5 c 128,-1,40
 27 99 27 99 27 193 c 0,41,42
 27 251 27 251 50.5 297 c 128,-1,43
 74 343 74 343 118 370 c 128,-1,44
 162 397 162 397 223 397 c 0,45,46
 286 397 286 397 325.5 371.5 c 128,-1,47
 365 346 365 346 384 306 c 128,-1,48
 403 266 403 266 403 222 c 0,49,50
 403 203 403 203 402 189.5 c 128,-1,51
 401 176 401 176 401 167 c 0,52,53
 400 152 400 152 382 152 c 2,54,-1
 162 152 l 1,24,25
161 237 m 1,55,-1
 273 237 l 1,56,57
 275 255 275 255 263.5 273 c 128,-1,58
 252 291 252 291 219 291 c 0,59,60
 190 291 190 291 176 273.5 c 128,-1,61
 162 256 162 256 161 237 c 1,55,-1
EndSplineSet
Validated: 33
EndChar

StartChar: igrave
Encoding: 236 236 169
Width: 204
GlyphClass: 1
Flags: W
LayerCount: 2
Fore
SplineSet
-23 528 m 2,0,1
 -28 532 -28 532 -26.5 537.5 c 128,-1,2
 -25 543 -25 543 -18 543 c 2,3,-1
 97 543 l 2,4,5
 115 543 115 543 127 532 c 2,6,-1
 227 441 l 2,7,8
 232 437 232 437 230 431.5 c 128,-1,9
 228 426 228 426 221 426 c 2,10,-1
 119 426 l 2,11,12
 96 426 96 426 83 438 c 2,13,-1
 -23 528 l 2,0,1
43 13 m 2,14,-1
 43 373 l 2,15,16
 43 386 43 386 57 386 c 2,17,-1
 79 386 l 2,18,19
 127 386 127 386 151.5 363.5 c 128,-1,20
 176 341 176 341 176 288 c 2,21,-1
 176 13 l 2,22,23
 176 0 176 0 163 0 c 2,24,-1
 57 0 l 2,25,26
 43 0 43 0 43 13 c 2,14,-1
EndSplineSet
Validated: 1
EndChar

StartChar: iacute
Encoding: 237 237 170
Width: 204
GlyphClass: 1
Flags: W
LayerCount: 2
Fore
SplineSet
-18 426 m 2,0,1
 -25 426 -25 426 -26.5 431.5 c 128,-1,2
 -28 437 -28 437 -24 441 c 2,3,-1
 76 532 l 2,4,5
 88 543 88 543 106 543 c 2,6,-1
 221 543 l 2,7,8
 228 543 228 543 229.5 537.5 c 128,-1,9
 231 532 231 532 226 528 c 2,10,-1
 120 438 l 2,11,12
 107 426 107 426 84 426 c 2,13,-1
 -18 426 l 2,0,1
30 13 m 2,14,-1
 30 373 l 2,15,16
 30 386 30 386 43 386 c 2,17,-1
 66 386 l 2,18,19
 113 386 113 386 137.5 363.5 c 128,-1,20
 162 341 162 341 162 288 c 2,21,-1
 162 13 l 2,22,23
 162 0 162 0 149 0 c 2,24,-1
 43 0 l 2,25,26
 30 0 30 0 30 13 c 2,14,-1
EndSplineSet
Validated: 1
EndChar

StartChar: icircumflex
Encoding: 238 238 171
Width: 204
GlyphClass: 1
Flags: W
LayerCount: 2
Fore
SplineSet
102 483 m 1,0,-1
 65 440 l 2,1,2
 52 426 52 426 32 426 c 2,3,-1
 -59 426 l 2,4,5
 -66 426 -66 426 -67.5 431.5 c 128,-1,6
 -69 437 -69 437 -65 441 c 2,7,-1
 22 532 l 2,8,9
 29 540 29 540 35 541.5 c 128,-1,10
 41 543 41 543 51 543 c 2,11,-1
 153 543 l 2,12,13
 163 543 163 543 169 541.5 c 128,-1,14
 175 540 175 540 182 532 c 2,15,-1
 269 441 l 2,16,17
 273 437 273 437 271.5 431.5 c 128,-1,18
 270 426 270 426 263 426 c 2,19,-1
 173 426 l 2,20,21
 152 426 152 426 139 440 c 2,22,-1
 102 483 l 1,0,-1
34 13 m 2,23,-1
 34 373 l 2,24,25
 34 386 34 386 47 386 c 2,26,-1
 70 386 l 2,27,28
 117 386 117 386 141.5 363.5 c 128,-1,29
 166 341 166 341 166 288 c 2,30,-1
 166 13 l 2,31,32
 166 0 166 0 153 0 c 2,33,-1
 47 0 l 2,34,35
 34 0 34 0 34 13 c 2,23,-1
EndSplineSet
Validated: 1
EndChar

StartChar: idieresis
Encoding: 239 239 172
Width: 204
GlyphClass: 1
Flags: W
LayerCount: 2
Fore
SplineSet
-55 484 m 0,0,1
 -55 513 -55 513 -34 534.5 c 128,-1,2
 -13 556 -13 556 17 556 c 0,3,4
 46 556 46 556 67 534.5 c 128,-1,5
 88 513 88 513 88 484 c 0,6,7
 88 454 88 454 67 433 c 128,-1,8
 46 412 46 412 17 412 c 0,9,10
 -13 412 -13 412 -34 433 c 128,-1,11
 -55 454 -55 454 -55 484 c 0,0,1
116 484 m 0,12,13
 116 513 116 513 137 534.5 c 128,-1,14
 158 556 158 556 187 556 c 0,15,16
 217 556 217 556 238 534.5 c 128,-1,17
 259 513 259 513 259 484 c 0,18,19
 259 454 259 454 238 433 c 128,-1,20
 217 412 217 412 187 412 c 0,21,22
 158 412 158 412 137 433 c 128,-1,23
 116 454 116 454 116 484 c 0,12,13
33 13 m 2,24,-1
 33 373 l 2,25,26
 33 386 33 386 47 386 c 2,27,-1
 69 386 l 2,28,29
 117 386 117 386 141.5 363.5 c 128,-1,30
 166 341 166 341 166 288 c 2,31,-1
 166 13 l 2,32,33
 166 0 166 0 153 0 c 2,34,-1
 47 0 l 2,35,36
 33 0 33 0 33 13 c 2,24,-1
EndSplineSet
Validated: 1
EndChar

StartChar: eth
Encoding: 240 240 173
Width: 437
GlyphClass: 1
Flags: W
LayerCount: 2
Fore
SplineSet
194 381 m 1,0,-1
 160 428 l 1,1,-1
 105 401 l 2,2,3
 94 395 94 395 89 406 c 2,4,-1
 73 429 l 2,5,6
 66 439 66 439 77 444 c 2,7,-1
 130 472 l 1,8,-1
 83 542 l 2,9,10
 80 547 80 547 82 551.5 c 128,-1,11
 84 556 84 556 89 556 c 2,12,-1
 150 556 l 2,13,14
 186 556 186 556 205.5 551.5 c 128,-1,15
 225 547 225 547 243 527 c 1,16,-1
 292 552 l 2,17,18
 303 557 303 557 309 547 c 2,19,-1
 325 523 l 2,20,21
 331 512 331 512 322 508 c 2,22,-1
 275 484 l 1,23,-1
 363 356 l 2,24,25
 383 327 383 327 398 289 c 128,-1,26
 413 251 413 251 413 194 c 0,27,28
 413 101 413 101 361 46 c 128,-1,29
 309 -9 309 -9 220 -9 c 0,30,31
 129 -9 129 -9 76.5 45.5 c 128,-1,32
 24 100 24 100 24 188 c 0,33,34
 24 270 24 270 69.5 322 c 128,-1,35
 115 374 115 374 194 381 c 1,0,-1
218 105 m 0,36,37
 246 105 246 105 264 123.5 c 128,-1,38
 282 142 282 142 282 186 c 0,39,40
 282 231 282 231 263.5 250 c 128,-1,41
 245 269 245 269 219 269 c 0,42,43
 192 269 192 269 173 250 c 128,-1,44
 154 231 154 231 154 186 c 0,45,46
 154 142 154 142 172.5 123.5 c 128,-1,47
 191 105 191 105 218 105 c 0,36,37
EndSplineSet
Validated: 1
EndChar

StartChar: ntilde
Encoding: 241 241 174
Width: 446
GlyphClass: 1
Flags: W
LayerCount: 2
Fore
SplineSet
83 422 m 2,0,1
 72 422 72 422 72 435 c 0,2,3
 74 489 74 489 98 518 c 128,-1,4
 122 547 122 547 158 547 c 0,5,6
 184 547 184 547 206 540 c 128,-1,7
 228 533 228 533 246.5 525.5 c 128,-1,8
 265 518 265 518 278 518 c 0,9,10
 288 518 288 518 292 522.5 c 128,-1,11
 296 527 296 527 300 538 c 0,12,13
 303 551 303 551 313 551 c 2,14,-1
 369 551 l 2,15,16
 383 551 383 551 380 537 c 0,17,18
 376 488 376 488 357 458 c 128,-1,19
 338 428 338 428 293 428 c 0,20,21
 273 428 273 428 249.5 434.5 c 128,-1,22
 226 441 226 441 207 447.5 c 128,-1,23
 188 454 188 454 178 454 c 256,24,25
 168 454 168 454 164 448.5 c 128,-1,26
 160 443 160 443 158 434 c 0,27,28
 157 422 157 422 145 422 c 2,29,-1
 83 422 l 2,0,1
152 349 m 1,30,31
 170 368 170 368 196.5 382 c 128,-1,32
 223 396 223 396 253 396 c 0,33,34
 325 396 325 396 368.5 353.5 c 128,-1,35
 412 311 412 311 412 222 c 2,36,-1
 412 13 l 2,37,38
 412 0 412 0 398 0 c 2,39,-1
 292 0 l 2,40,41
 279 0 279 0 279 13 c 2,42,-1
 279 202 l 2,43,44
 279 244 279 244 262.5 259.5 c 128,-1,45
 246 275 246 275 224 275 c 0,46,47
 199 275 199 275 183.5 257.5 c 128,-1,48
 168 240 168 240 168 207 c 2,49,-1
 168 13 l 2,50,51
 168 0 168 0 155 0 c 2,52,-1
 49 0 l 2,53,54
 36 0 36 0 36 13 c 2,55,-1
 36 373 l 2,56,57
 36 386 36 386 49 386 c 2,58,-1
 69 386 l 2,59,60
 98 386 98 386 119.5 377.5 c 128,-1,61
 141 369 141 369 152 349 c 1,30,31
EndSplineSet
Validated: 1
EndChar

StartChar: ograve
Encoding: 242 242 175
Width: 452
GlyphClass: 1
Flags: W
LayerCount: 2
Fore
SplineSet
85 528 m 2,0,1
 80 532 80 532 81.5 537.5 c 128,-1,2
 83 543 83 543 90 543 c 2,3,-1
 206 543 l 2,4,5
 215 543 215 543 221.5 541 c 128,-1,6
 228 539 228 539 235 532 c 2,7,-1
 336 441 l 2,8,9
 341 437 341 437 338.5 431.5 c 128,-1,10
 336 426 336 426 330 426 c 2,11,-1
 227 426 l 2,12,13
 205 426 205 426 192 438 c 2,14,-1
 85 528 l 2,0,1
227 -9 m 0,15,16
 133 -9 133 -9 78.5 47.5 c 128,-1,17
 24 104 24 104 24 195 c 0,18,19
 24 287 24 287 78 342 c 128,-1,20
 132 397 132 397 225 397 c 256,21,22
 318 397 318 397 372.5 341.5 c 128,-1,23
 427 286 427 286 427 194 c 0,24,25
 427 103 427 103 373.5 47 c 128,-1,26
 320 -9 320 -9 227 -9 c 0,15,16
225 109 m 0,27,28
 254 109 254 109 273 128 c 128,-1,29
 292 147 292 147 292 193 c 0,30,31
 292 240 292 240 272.5 259 c 128,-1,32
 253 278 253 278 226 278 c 0,33,34
 198 278 198 278 178.5 259 c 128,-1,35
 159 240 159 240 159 193 c 0,36,37
 159 147 159 147 178 128 c 128,-1,38
 197 109 197 109 225 109 c 0,27,28
EndSplineSet
Validated: 1
EndChar

StartChar: oacute
Encoding: 243 243 176
Width: 452
GlyphClass: 1
Flags: W
LayerCount: 2
Fore
SplineSet
123 426 m 2,0,1
 116 426 116 426 114.5 431.5 c 128,-1,2
 113 437 113 437 117 441 c 2,3,-1
 217 532 l 2,4,5
 225 539 225 539 231.5 541 c 128,-1,6
 238 543 238 543 247 543 c 2,7,-1
 362 543 l 2,8,9
 369 543 369 543 371 537.5 c 128,-1,10
 373 532 373 532 367 528 c 2,11,-1
 261 438 l 2,12,13
 248 426 248 426 226 426 c 2,14,-1
 123 426 l 2,0,1
227 -9 m 0,15,16
 133 -9 133 -9 78.5 47.5 c 128,-1,17
 24 104 24 104 24 195 c 0,18,19
 24 287 24 287 78 342 c 128,-1,20
 132 397 132 397 225 397 c 256,21,22
 318 397 318 397 372.5 341.5 c 128,-1,23
 427 286 427 286 427 194 c 0,24,25
 427 103 427 103 373.5 47 c 128,-1,26
 320 -9 320 -9 227 -9 c 0,15,16
225 109 m 0,27,28
 254 109 254 109 273 128 c 128,-1,29
 292 147 292 147 292 193 c 0,30,31
 292 240 292 240 272.5 259 c 128,-1,32
 253 278 253 278 226 278 c 0,33,34
 198 278 198 278 178.5 259 c 128,-1,35
 159 240 159 240 159 193 c 0,36,37
 159 147 159 147 178 128 c 128,-1,38
 197 109 197 109 225 109 c 0,27,28
EndSplineSet
Validated: 1
EndChar

StartChar: ocircumflex
Encoding: 244 244 177
Width: 452
GlyphClass: 1
Flags: W
LayerCount: 2
Fore
SplineSet
231 483 m 1,0,-1
 194 440 l 2,1,2
 181 426 181 426 161 426 c 2,3,-1
 70 426 l 2,4,5
 63 426 63 426 61.5 431.5 c 128,-1,6
 60 437 60 437 64 441 c 2,7,-1
 151 532 l 2,8,9
 158 540 158 540 164 541.5 c 128,-1,10
 170 543 170 543 180 543 c 2,11,-1
 282 543 l 2,12,13
 292 543 292 543 298 541.5 c 128,-1,14
 304 540 304 540 311 532 c 2,15,-1
 398 441 l 2,16,17
 402 437 402 437 400.5 431.5 c 128,-1,18
 399 426 399 426 392 426 c 2,19,-1
 302 426 l 2,20,21
 281 426 281 426 268 440 c 2,22,-1
 231 483 l 1,0,-1
227 -9 m 0,23,24
 133 -9 133 -9 78.5 47.5 c 128,-1,25
 24 104 24 104 24 195 c 0,26,27
 24 287 24 287 78 342 c 128,-1,28
 132 397 132 397 225 397 c 256,29,30
 318 397 318 397 372.5 341.5 c 128,-1,31
 427 286 427 286 427 194 c 0,32,33
 427 103 427 103 373.5 47 c 128,-1,34
 320 -9 320 -9 227 -9 c 0,23,24
225 109 m 0,35,36
 254 109 254 109 273 128 c 128,-1,37
 292 147 292 147 292 193 c 0,38,39
 292 240 292 240 272.5 259 c 128,-1,40
 253 278 253 278 226 278 c 0,41,42
 198 278 198 278 178.5 259 c 128,-1,43
 159 240 159 240 159 193 c 0,44,45
 159 147 159 147 178 128 c 128,-1,46
 197 109 197 109 225 109 c 0,35,36
EndSplineSet
Validated: 1
EndChar

StartChar: otilde
Encoding: 245 245 178
Width: 452
GlyphClass: 1
Flags: W
LayerCount: 2
Fore
SplineSet
79 422 m 2,0,1
 68 422 68 422 68 435 c 0,2,3
 70 489 70 489 94.5 518 c 128,-1,4
 119 547 119 547 155 547 c 0,5,6
 180 547 180 547 202.5 540 c 128,-1,7
 225 533 225 533 243.5 525.5 c 128,-1,8
 262 518 262 518 275 518 c 0,9,10
 284 518 284 518 288 522.5 c 128,-1,11
 292 527 292 527 296 538 c 0,12,13
 299 551 299 551 310 551 c 2,14,-1
 366 551 l 2,15,16
 379 551 379 551 377 537 c 0,17,18
 372 488 372 488 353 458 c 128,-1,19
 334 428 334 428 290 428 c 0,20,21
 269 428 269 428 245.5 434.5 c 128,-1,22
 222 441 222 441 203 447.5 c 128,-1,23
 184 454 184 454 174 454 c 256,24,25
 164 454 164 454 160 448.5 c 128,-1,26
 156 443 156 443 155 434 c 0,27,28
 152 422 152 422 141 422 c 2,29,-1
 79 422 l 2,0,1
227 -9 m 0,30,31
 133 -9 133 -9 78.5 47.5 c 128,-1,32
 24 104 24 104 24 195 c 0,33,34
 24 287 24 287 78 342 c 128,-1,35
 132 397 132 397 225 397 c 256,36,37
 318 397 318 397 372.5 341.5 c 128,-1,38
 427 286 427 286 427 194 c 0,39,40
 427 103 427 103 373.5 47 c 128,-1,41
 320 -9 320 -9 227 -9 c 0,30,31
225 109 m 0,42,43
 254 109 254 109 273 128 c 128,-1,44
 292 147 292 147 292 193 c 0,45,46
 292 240 292 240 272.5 259 c 128,-1,47
 253 278 253 278 226 278 c 0,48,49
 198 278 198 278 178.5 259 c 128,-1,50
 159 240 159 240 159 193 c 0,51,52
 159 147 159 147 178 128 c 128,-1,53
 197 109 197 109 225 109 c 0,42,43
EndSplineSet
Validated: 1
EndChar

StartChar: odieresis
Encoding: 246 246 179
Width: 452
GlyphClass: 1
Flags: W
LayerCount: 2
Fore
SplineSet
74 484 m 0,0,1
 74 513 74 513 95 534.5 c 128,-1,2
 116 556 116 556 146 556 c 0,3,4
 175 556 175 556 196 534.5 c 128,-1,5
 217 513 217 513 217 484 c 0,6,7
 217 454 217 454 196 433 c 128,-1,8
 175 412 175 412 146 412 c 0,9,10
 116 412 116 412 95 433 c 128,-1,11
 74 454 74 454 74 484 c 0,0,1
245 484 m 0,12,13
 245 513 245 513 266 534.5 c 128,-1,14
 287 556 287 556 316 556 c 0,15,16
 346 556 346 556 367 534.5 c 128,-1,17
 388 513 388 513 388 484 c 0,18,19
 388 454 388 454 367 433 c 128,-1,20
 346 412 346 412 316 412 c 0,21,22
 287 412 287 412 266 433 c 128,-1,23
 245 454 245 454 245 484 c 0,12,13
227 -9 m 0,24,25
 133 -9 133 -9 78.5 47.5 c 128,-1,26
 24 104 24 104 24 195 c 0,27,28
 24 287 24 287 78 342 c 128,-1,29
 132 397 132 397 225 397 c 256,30,31
 318 397 318 397 372.5 341.5 c 128,-1,32
 427 286 427 286 427 194 c 0,33,34
 427 103 427 103 373.5 47 c 128,-1,35
 320 -9 320 -9 227 -9 c 0,24,25
225 109 m 0,36,37
 254 109 254 109 273 128 c 128,-1,38
 292 147 292 147 292 193 c 0,39,40
 292 240 292 240 272.5 259 c 128,-1,41
 253 278 253 278 226 278 c 0,42,43
 198 278 198 278 178.5 259 c 128,-1,44
 159 240 159 240 159 193 c 0,45,46
 159 147 159 147 178 128 c 128,-1,47
 197 109 197 109 225 109 c 0,36,37
EndSplineSet
Validated: 1
EndChar

StartChar: divide
Encoding: 247 247 180
Width: 432
GlyphClass: 1
Flags: W
LayerCount: 2
Fore
SplineSet
144 428 m 256,0,1
 144 459 144 459 165 479 c 128,-1,2
 186 499 186 499 217 499 c 0,3,4
 247 499 247 499 267 479 c 128,-1,5
 287 459 287 459 287 428 c 256,6,7
 287 397 287 397 267 377 c 128,-1,8
 247 357 247 357 217 357 c 0,9,10
 186 357 186 357 165 377 c 128,-1,11
 144 397 144 397 144 428 c 256,0,1
25 230 m 2,12,-1
 25 316 l 2,13,14
 25 329 25 329 38 329 c 2,15,-1
 337 329 l 2,16,17
 407 329 407 329 407 263 c 2,18,-1
 407 230 l 2,19,20
 407 217 407 217 393 217 c 2,21,-1
 38 217 l 2,22,23
 25 217 25 217 25 230 c 2,12,-1
144 117 m 256,24,25
 144 148 144 148 165 168.5 c 128,-1,26
 186 189 186 189 217 189 c 0,27,28
 247 189 247 189 267 168.5 c 128,-1,29
 287 148 287 148 287 117 c 256,30,31
 287 86 287 86 267 66 c 128,-1,32
 247 46 247 46 217 46 c 0,33,34
 186 46 186 46 165 66 c 128,-1,35
 144 86 144 86 144 117 c 256,24,25
EndSplineSet
Validated: 1
EndChar

StartChar: oslash
Encoding: 248 248 181
Width: 452
GlyphClass: 1
Flags: W
LayerCount: 2
Fore
SplineSet
227 -9 m 0,0,1
 133 -9 133 -9 78.5 47.5 c 128,-1,2
 24 104 24 104 24 195 c 0,3,4
 24 287 24 287 77.5 342 c 128,-1,5
 131 397 131 397 225 397 c 0,6,7
 318 397 318 397 373 341.5 c 128,-1,8
 428 286 428 286 428 194 c 0,9,10
 428 103 428 103 374 47 c 128,-1,11
 320 -9 320 -9 227 -9 c 0,0,1
163 159 m 1,12,-1
 239 277 l 1,13,14
 236 278 236 278 232.5 278 c 128,-1,15
 229 278 229 278 226 278 c 0,16,17
 198 278 198 278 178.5 259 c 128,-1,18
 159 240 159 240 159 193 c 0,19,20
 159 183 159 183 160.5 175 c 128,-1,21
 162 167 162 167 163 159 c 1,12,-1
289 226 m 1,22,-1
 215 110 l 1,23,24
 217 110 217 110 220 109.5 c 128,-1,25
 223 109 223 109 225 109 c 0,26,27
 254 109 254 109 273 128 c 128,-1,28
 292 147 292 147 292 193 c 0,29,30
 292 211 292 211 289 226 c 1,22,-1
EndSplineSet
Validated: 1
EndChar

StartChar: ugrave
Encoding: 249 249 182
Width: 446
GlyphClass: 1
Flags: W
LayerCount: 2
Fore
SplineSet
71 528 m 2,0,1
 66 532 66 532 67.5 537.5 c 128,-1,2
 69 543 69 543 76 543 c 2,3,-1
 191 543 l 2,4,5
 209 543 209 543 221 532 c 2,6,-1
 321 441 l 2,7,8
 326 437 326 437 324 431.5 c 128,-1,9
 322 426 322 426 315 426 c 2,10,-1
 213 426 l 2,11,12
 190 426 190 426 177 438 c 2,13,-1
 71 528 l 2,0,1
222 -9 m 0,14,15
 122 -9 122 -9 78.5 47 c 128,-1,16
 35 103 35 103 35 194 c 2,17,-1
 35 373 l 2,18,19
 35 386 35 386 48 386 c 2,20,-1
 71 386 l 2,21,22
 118 386 118 386 142.5 363.5 c 128,-1,23
 167 341 167 341 167 288 c 2,24,-1
 167 175 l 2,25,26
 167 137 167 137 183.5 122.5 c 128,-1,27
 200 108 200 108 222 108 c 256,28,29
 244 108 244 108 261 122.5 c 128,-1,30
 278 137 278 137 278 174 c 2,31,-1
 278 373 l 2,32,33
 278 386 278 386 291 386 c 2,34,-1
 314 386 l 2,35,36
 362 386 362 386 386.5 363.5 c 128,-1,37
 411 341 411 341 411 288 c 2,38,-1
 411 188 l 2,39,40
 411 98 411 98 367 44.5 c 128,-1,41
 323 -9 323 -9 222 -9 c 0,14,15
EndSplineSet
Validated: 1
EndChar

StartChar: uacute
Encoding: 250 250 183
Width: 446
GlyphClass: 1
Flags: W
LayerCount: 2
Fore
SplineSet
110 426 m 2,0,1
 103 426 103 426 101.5 431.5 c 128,-1,2
 100 437 100 437 104 441 c 2,3,-1
 204 532 l 2,4,5
 212 539 212 539 218.5 541 c 128,-1,6
 225 543 225 543 234 543 c 2,7,-1
 349 543 l 2,8,9
 356 543 356 543 358 537.5 c 128,-1,10
 360 532 360 532 354 528 c 2,11,-1
 248 438 l 2,12,13
 235 426 235 426 213 426 c 2,14,-1
 110 426 l 2,0,1
222 -9 m 0,15,16
 122 -9 122 -9 78.5 47 c 128,-1,17
 35 103 35 103 35 194 c 2,18,-1
 35 373 l 2,19,20
 35 386 35 386 48 386 c 2,21,-1
 71 386 l 2,22,23
 118 386 118 386 142.5 363.5 c 128,-1,24
 167 341 167 341 167 288 c 2,25,-1
 167 175 l 2,26,27
 167 137 167 137 183.5 122.5 c 128,-1,28
 200 108 200 108 222 108 c 256,29,30
 244 108 244 108 261 122.5 c 128,-1,31
 278 137 278 137 278 174 c 2,32,-1
 278 373 l 2,33,34
 278 386 278 386 291 386 c 2,35,-1
 314 386 l 2,36,37
 362 386 362 386 386.5 363.5 c 128,-1,38
 411 341 411 341 411 288 c 2,39,-1
 411 188 l 2,40,41
 411 98 411 98 367 44.5 c 128,-1,42
 323 -9 323 -9 222 -9 c 0,15,16
EndSplineSet
Validated: 1
EndChar

StartChar: ucircumflex
Encoding: 251 251 184
Width: 446
GlyphClass: 1
Flags: W
LayerCount: 2
Fore
SplineSet
224 483 m 1,0,-1
 187 440 l 2,1,2
 174 426 174 426 153 426 c 2,3,-1
 63 426 l 2,4,5
 56 426 56 426 54.5 431.5 c 128,-1,6
 53 437 53 437 57 441 c 2,7,-1
 143 532 l 2,8,9
 150 540 150 540 156.5 541.5 c 128,-1,10
 163 543 163 543 173 543 c 2,11,-1
 274 543 l 2,12,13
 284 543 284 543 290.5 541.5 c 128,-1,14
 297 540 297 540 304 532 c 2,15,-1
 391 441 l 2,16,17
 395 437 395 437 393 431.5 c 128,-1,18
 391 426 391 426 384 426 c 2,19,-1
 294 426 l 2,20,21
 272 426 272 426 261 440 c 2,22,-1
 224 483 l 1,0,-1
222 -9 m 0,23,24
 122 -9 122 -9 78.5 47 c 128,-1,25
 35 103 35 103 35 194 c 2,26,-1
 35 373 l 2,27,28
 35 386 35 386 48 386 c 2,29,-1
 71 386 l 2,30,31
 118 386 118 386 142.5 363.5 c 128,-1,32
 167 341 167 341 167 288 c 2,33,-1
 167 175 l 2,34,35
 167 137 167 137 183.5 122.5 c 128,-1,36
 200 108 200 108 222 108 c 256,37,38
 244 108 244 108 261 122.5 c 128,-1,39
 278 137 278 137 278 174 c 2,40,-1
 278 373 l 2,41,42
 278 386 278 386 291 386 c 2,43,-1
 314 386 l 2,44,45
 362 386 362 386 386.5 363.5 c 128,-1,46
 411 341 411 341 411 288 c 2,47,-1
 411 188 l 2,48,49
 411 98 411 98 367 44.5 c 128,-1,50
 323 -9 323 -9 222 -9 c 0,23,24
EndSplineSet
Validated: 1
EndChar

StartChar: udieresis
Encoding: 252 252 185
Width: 446
GlyphClass: 1
Flags: W
LayerCount: 2
Fore
SplineSet
71 484 m 0,0,1
 71 513 71 513 92 534.5 c 128,-1,2
 113 556 113 556 143 556 c 0,3,4
 172 556 172 556 193 534.5 c 128,-1,5
 214 513 214 513 214 484 c 0,6,7
 214 454 214 454 193 433 c 128,-1,8
 172 412 172 412 143 412 c 0,9,10
 113 412 113 412 92 433 c 128,-1,11
 71 454 71 454 71 484 c 0,0,1
242 484 m 0,12,13
 242 513 242 513 263 534.5 c 128,-1,14
 284 556 284 556 313 556 c 0,15,16
 343 556 343 556 364 534.5 c 128,-1,17
 385 513 385 513 385 484 c 0,18,19
 385 454 385 454 364 433 c 128,-1,20
 343 412 343 412 313 412 c 0,21,22
 284 412 284 412 263 433 c 128,-1,23
 242 454 242 454 242 484 c 0,12,13
222 -9 m 0,24,25
 122 -9 122 -9 78.5 47 c 128,-1,26
 35 103 35 103 35 194 c 2,27,-1
 35 373 l 2,28,29
 35 386 35 386 48 386 c 2,30,-1
 71 386 l 2,31,32
 118 386 118 386 142.5 363.5 c 128,-1,33
 167 341 167 341 167 288 c 2,34,-1
 167 175 l 2,35,36
 167 137 167 137 183.5 122.5 c 128,-1,37
 200 108 200 108 222 108 c 256,38,39
 244 108 244 108 261 122.5 c 128,-1,40
 278 137 278 137 278 174 c 2,41,-1
 278 373 l 2,42,43
 278 386 278 386 291 386 c 2,44,-1
 314 386 l 2,45,46
 362 386 362 386 386.5 363.5 c 128,-1,47
 411 341 411 341 411 288 c 2,48,-1
 411 188 l 2,49,50
 411 98 411 98 367 44.5 c 128,-1,51
 323 -9 323 -9 222 -9 c 0,24,25
EndSplineSet
Validated: 1
EndChar

StartChar: yacute
Encoding: 253 253 186
Width: 416
GlyphClass: 1
Flags: W
LayerCount: 2
Fore
SplineSet
103 426 m 2,0,1
 96 426 96 426 95 431.5 c 128,-1,2
 94 437 94 437 98 441 c 2,3,-1
 198 532 l 2,4,5
 210 543 210 543 228 543 c 2,6,-1
 343 543 l 2,7,8
 350 543 350 543 351.5 537.5 c 128,-1,9
 353 532 353 532 348 528 c 2,10,-1
 242 438 l 2,11,12
 229 426 229 426 206 426 c 2,13,-1
 103 426 l 2,0,1
142 -5 m 1,14,-1
 3 373 l 2,15,16
 1 378 1 378 3.5 382 c 128,-1,17
 6 386 6 386 10 386 c 2,18,-1
 51 386 l 2,19,20
 86 386 86 386 106.5 377.5 c 128,-1,21
 127 369 127 369 141 347.5 c 128,-1,22
 155 326 155 326 168 288 c 2,23,-1
 212 162 l 1,24,-1
 283 373 l 2,25,26
 289 386 289 386 299 386 c 2,27,-1
 405 386 l 2,28,29
 411 386 411 386 412.5 382 c 128,-1,30
 414 378 414 378 413 373 c 2,31,-1
 277 -9 l 2,32,33
 259 -58 259 -58 239.5 -94.5 c 128,-1,34
 220 -131 220 -131 191 -151 c 128,-1,35
 162 -171 162 -171 114 -171 c 0,36,37
 76 -171 76 -171 49.5 -154 c 128,-1,38
 23 -137 23 -137 9.5 -111.5 c 128,-1,39
 -4 -86 -4 -86 -4 -59 c 0,40,41
 -4 -51 -4 -51 -0.5 -44 c 128,-1,42
 3 -37 3 -37 12 -37 c 0,43,44
 17 -37 17 -37 21 -40 c 0,45,46
 50 -59 50 -59 74 -59 c 0,47,48
 100 -59 100 -59 115.5 -45 c 128,-1,49
 131 -31 131 -31 142 -5 c 1,14,-1
EndSplineSet
Validated: 1
EndChar

StartChar: thorn
Encoding: 254 254 187
Width: 464
GlyphClass: 1
Flags: W
LayerCount: 2
Fore
SplineSet
168 27 m 1,0,-1
 168 -147 l 2,1,2
 168 -160 168 -160 155 -160 c 2,3,-1
 49 -160 l 2,4,5
 36 -160 36 -160 36 -147 c 2,6,-1
 36 542 l 2,7,8
 36 556 36 556 49 556 c 2,9,-1
 72 556 l 2,10,11
 119 556 119 556 143.5 533.5 c 128,-1,12
 168 511 168 511 168 458 c 2,13,-1
 168 368 l 1,14,15
 185 379 185 379 207 388 c 128,-1,16
 229 397 229 397 260 397 c 0,17,18
 322 397 322 397 362 370 c 128,-1,19
 402 343 402 343 422 297.5 c 128,-1,20
 442 252 442 252 442 196 c 256,21,22
 442 140 442 140 422 93.5 c 128,-1,23
 402 47 402 47 362.5 19.5 c 128,-1,24
 323 -8 323 -8 264 -8 c 0,25,26
 236 -8 236 -8 210 1.5 c 128,-1,27
 184 11 184 11 168 27 c 1,0,-1
235 114 m 0,28,29
 247 114 247 114 263 119.5 c 128,-1,30
 279 125 279 125 291.5 142.5 c 128,-1,31
 304 160 304 160 304 195 c 256,32,33
 304 230 304 230 291.5 246.5 c 128,-1,34
 279 263 279 263 262.5 268 c 128,-1,35
 246 273 246 273 235 273 c 256,36,37
 224 273 224 273 208 268 c 128,-1,38
 192 263 192 263 180 246.5 c 128,-1,39
 168 230 168 230 168 195 c 256,40,41
 168 160 168 160 180 142.5 c 128,-1,42
 192 125 192 125 208 119.5 c 128,-1,43
 224 114 224 114 235 114 c 0,28,29
EndSplineSet
Validated: 1
EndChar

StartChar: ydieresis
Encoding: 255 255 188
Width: 416
GlyphClass: 1
Flags: W
LayerCount: 2
Fore
SplineSet
48 484 m 0,0,1
 48 513 48 513 69 534.5 c 128,-1,2
 90 556 90 556 120 556 c 0,3,4
 149 556 149 556 170.5 534.5 c 128,-1,5
 192 513 192 513 192 484 c 0,6,7
 192 454 192 454 170.5 433 c 128,-1,8
 149 412 149 412 120 412 c 0,9,10
 90 412 90 412 69 433 c 128,-1,11
 48 454 48 454 48 484 c 0,0,1
219 484 m 0,12,13
 219 513 219 513 240 534.5 c 128,-1,14
 261 556 261 556 290 556 c 0,15,16
 320 556 320 556 341 534.5 c 128,-1,17
 362 513 362 513 362 484 c 0,18,19
 362 454 362 454 341 433 c 128,-1,20
 320 412 320 412 290 412 c 0,21,22
 261 412 261 412 240 433 c 128,-1,23
 219 454 219 454 219 484 c 0,12,13
142 -5 m 1,24,-1
 3 373 l 2,25,26
 1 378 1 378 3.5 382 c 128,-1,27
 6 386 6 386 10 386 c 2,28,-1
 51 386 l 2,29,30
 86 386 86 386 106.5 377.5 c 128,-1,31
 127 369 127 369 141 347.5 c 128,-1,32
 155 326 155 326 168 288 c 2,33,-1
 212 162 l 1,34,-1
 283 373 l 2,35,36
 289 386 289 386 299 386 c 2,37,-1
 405 386 l 2,38,39
 411 386 411 386 412.5 382 c 128,-1,40
 414 378 414 378 413 373 c 2,41,-1
 277 -9 l 2,42,43
 259 -58 259 -58 239.5 -94.5 c 128,-1,44
 220 -131 220 -131 191 -151 c 128,-1,45
 162 -171 162 -171 114 -171 c 0,46,47
 76 -171 76 -171 49.5 -154 c 128,-1,48
 23 -137 23 -137 9.5 -111.5 c 128,-1,49
 -4 -86 -4 -86 -4 -59 c 0,50,51
 -4 -51 -4 -51 -0.5 -44 c 128,-1,52
 3 -37 3 -37 12 -37 c 0,53,54
 17 -37 17 -37 21 -40 c 0,55,56
 50 -59 50 -59 74 -59 c 0,57,58
 100 -59 100 -59 115.5 -45 c 128,-1,59
 131 -31 131 -31 142 -5 c 1,24,-1
EndSplineSet
Validated: 1
EndChar

